if (_typeface_js && _typeface_js.loadFace) _typeface_js.loadFace({"glyphs":{"0":{"ha":833,"x_min":0,"x_max":0,"o":"m 417 24 b 692 485 585 24 692 171 b 417 949 692 799 585 949 b 142 485 249 949 142 799 b 417 24 142 171 249 24 m 417 -21 b 90 485 231 -21 90 131 b 417 993 90 840 231 993 b 743 485 603 993 743 840 b 417 -21 743 129 603 -21 "},"1":{"ha":833,"x_min":0,"x_max":0,"o":"m 450 0 l 450 917 l 222 782 l 222 836 l 451 972 l 501 972 l 501 0 "},"2":{"ha":833,"x_min":0,"x_max":0,"o":"m 104 746 b 413 993 129 904 253 993 b 699 732 572 993 699 893 b 507 389 699 607 638 524 l 174 47 l 697 47 l 697 0 l 108 0 l 108 47 l 489 440 b 649 732 590 546 649 622 b 411 949 649 864 556 949 b 158 746 272 949 175 865 "},"3":{"ha":833,"x_min":0,"x_max":0,"o":"m 396 -21 b 72 213 231 -21 101 63 l 124 213 b 397 24 149 90 258 24 b 665 264 556 24 665 114 b 422 493 665 411 569 493 l 314 493 l 314 539 l 417 539 b 640 742 558 539 640 625 b 400 949 640 871 543 949 b 138 760 258 949 164 882 l 86 760 b 401 993 115 906 232 993 b 690 747 569 993 690 899 b 504 517 690 625 628 546 b 717 267 625 503 717 411 b 396 -21 717 86 585 -21 "},"4":{"ha":833,"x_min":0,"x_max":0,"o":"m 608 972 l 608 228 l 756 228 l 756 183 l 608 183 l 608 0 l 557 0 l 557 183 l 103 183 l 103 238 l 553 972 m 557 228 l 557 894 l 150 228 "},"5":{"ha":833,"x_min":0,"x_max":0,"o":"m 396 -21 b 82 222 243 -21 113 67 l 133 222 b 400 24 161 86 274 24 b 676 308 553 24 676 133 b 410 578 676 479 567 578 b 153 454 268 578 185 501 l 114 454 l 132 972 l 671 972 l 671 928 l 181 928 l 164 522 b 415 622 213 572 296 622 b 728 307 596 622 728 507 b 396 -21 728 107 581 -21 "},"6":{"ha":833,"x_min":0,"x_max":0,"o":"m 643 807 b 435 949 615 897 538 949 b 138 454 281 949 142 850 b 415 631 178 549 281 631 b 724 308 588 631 724 513 b 415 -21 724 104 588 -21 b 90 442 164 -21 90 194 b 435 993 90 881 261 993 b 694 807 556 993 664 922 m 411 586 b 150 326 278 586 150 494 b 418 25 150 218 206 25 b 674 303 550 25 674 128 b 411 586 674 486 565 586 "},"7":{"ha":833,"x_min":0,"x_max":0,"o":"m 258 0 l 204 0 l 658 926 l 97 926 l 97 972 l 711 972 l 711 926 "},"8":{"ha":833,"x_min":0,"x_max":0,"o":"m 721 756 b 497 517 721 608 604 547 b 756 249 618 483 756 410 b 417 -21 756 96 626 -21 b 78 243 208 -21 78 99 b 319 514 78 414 203 481 b 113 749 222 543 113 613 b 417 993 113 913 260 993 b 721 756 575 993 721 919 m 704 247 b 408 496 704 410 543 472 b 129 246 265 463 129 408 b 417 24 129 108 257 24 b 704 247 575 24 704 107 m 163 753 b 411 535 163 604 297 556 b 671 753 544 564 671 611 b 417 950 671 893 546 950 b 163 753 296 950 163 893 "},"9":{"ha":833,"x_min":0,"x_max":0,"o":"m 163 165 b 379 24 189 74 279 24 b 676 518 553 24 672 149 b 399 342 636 422 533 342 b 90 664 235 342 90 451 b 393 993 90 861 228 993 b 724 531 644 993 724 778 b 379 -21 724 118 576 -21 b 113 165 257 -21 142 51 m 403 386 b 664 646 536 386 664 478 b 396 947 664 754 608 947 b 140 669 254 947 140 835 b 403 386 140 478 257 386 "},"\u0000":{"ha":0,"x_min":0,"x_max":0,"o":""},"\r":{"ha":417,"x_min":0,"x_max":0,"o":""}," ":{"ha":417,"x_min":0,"x_max":0,"o":""},"!":{"ha":347,"x_min":0,"x_max":0,"o":"m 142 306 l 142 1000 l 196 1000 l 196 306 m 136 0 l 136 89 l 211 89 l 211 0 "},"\"":{"ha":833,"x_min":0,"x_max":0,"o":"m 206 681 l 171 681 l 160 893 l 160 1021 l 215 1021 l 215 893 m 386 681 l 351 681 l 340 893 l 340 1021 l 396 1021 l 396 893 "},"#":{"ha":833,"x_min":0,"x_max":0,"o":"m 104 693 l 233 693 l 258 972 l 308 972 l 283 693 l 585 693 l 610 972 l 660 972 l 635 693 l 757 693 l 757 647 l 631 647 l 603 325 l 729 325 l 729 279 l 599 279 l 575 0 l 525 0 l 549 279 l 247 279 l 224 0 l 174 0 l 197 279 l 76 279 l 76 325 l 201 325 l 229 647 l 104 647 m 251 325 l 553 325 l 581 647 l 279 647 "},"$":{"ha":833,"x_min":0,"x_max":0,"o":"m 399 -12 b 54 251 222 -6 88 86 l 108 251 b 425 33 139 103 272 33 b 724 250 613 33 724 121 b 397 497 724 368 658 439 b 100 749 182 546 100 617 b 399 992 100 879 206 983 l 399 1153 l 447 1153 l 447 992 b 781 753 613 985 747 896 l 728 753 b 428 947 697 874 579 947 b 153 753 247 947 153 861 b 432 539 153 642 208 589 b 776 253 686 482 776 396 b 447 -14 776 110 657 -6 l 447 -187 l 399 -187 "},"%":{"ha":1144,"x_min":0,"x_max":0,"o":"m 378 0 l 329 0 l 764 972 l 813 972 m 129 758 b 304 564 129 622 213 564 b 481 758 394 564 481 622 b 304 953 481 894 396 953 b 129 758 213 953 129 894 m 528 758 b 304 524 528 601 425 524 b 82 758 183 524 82 601 b 304 993 82 915 185 993 b 528 758 425 993 528 915 m 664 214 b 839 19 664 78 747 19 b 1015 214 929 19 1015 78 b 839 408 1015 350 931 408 b 664 214 747 408 664 350 m 1063 214 b 839 -21 1063 57 960 -21 b 617 214 718 -21 617 57 b 839 449 617 371 719 449 b 1063 214 960 449 1063 371 "},"&":{"ha":840,"x_min":0,"x_max":0,"o":"m 783 458 b 674 160 771 358 735 249 l 826 7 l 792 -21 l 647 124 b 350 -21 576 38 478 -21 b 46 218 150 -21 46 76 b 267 504 46 347 132 422 b 83 783 167 606 83 688 b 329 993 83 888 158 993 b 582 781 503 993 582 886 b 336 496 582 681 476 578 l 642 192 b 738 464 693 269 726 367 m 354 21 b 615 156 461 21 550 75 l 299 474 b 97 222 179 401 97 333 b 354 21 97 96 193 21 m 131 783 b 306 526 131 707 190 643 b 535 781 444 608 535 693 b 329 951 535 860 478 951 b 131 783 190 951 131 872 "},"'":{"ha":375,"x_min":0,"x_max":0,"o":"m 206 681 l 171 681 l 160 893 l 160 1021 l 215 1021 l 215 893 "},"(":{"ha":472,"x_min":0,"x_max":0,"o":"m 175 444 b 396 -236 175 146 281 -60 l 349 -236 b 125 444 242 -94 125 143 b 349 1125 125 746 242 983 l 396 1125 b 175 444 281 949 175 743 "},")":{"ha":472,"x_min":0,"x_max":0,"o":"m 297 444 b 76 1125 297 743 192 949 l 124 1125 b 347 444 231 983 347 746 b 124 -236 347 143 231 -94 l 76 -236 b 297 444 192 -60 297 146 "},"*":{"ha":653,"x_min":0,"x_max":0,"o":"m 326 738 l 196 540 l 157 571 l 306 757 l 75 821 l 90 867 l 313 783 l 301 1021 l 351 1021 l 340 783 l 563 867 l 578 821 l 347 757 l 496 571 l 457 540 "},"+":{"ha":833,"x_min":0,"x_max":0,"o":"m 442 725 l 442 471 l 694 471 l 694 424 l 442 424 l 442 169 l 392 169 l 392 424 l 139 424 l 139 471 l 392 471 l 392 725 "},",":{"ha":375,"x_min":0,"x_max":0,"o":"m 231 4 b 101 -187 231 -103 183 -162 l 101 -147 b 178 0 156 -125 178 -83 l 153 0 l 153 89 l 231 89 "},"-":{"ha":750,"x_min":0,"x_max":0,"o":"m 611 424 l 139 424 l 139 471 l 611 471 "},".":{"ha":386,"x_min":0,"x_max":0,"o":"m 156 0 l 156 89 l 231 89 l 231 0 "},"/":{"ha":472,"x_min":0,"x_max":0,"o":"m 115 -125 l 67 -125 l 357 1021 l 406 1021 "},":":{"ha":386,"x_min":0,"x_max":0,"o":"m 156 0 l 156 89 l 231 89 l 231 0 m 156 633 l 156 722 l 231 722 l 231 633 "},";":{"ha":386,"x_min":0,"x_max":0,"o":"m 156 633 l 156 722 l 231 722 l 231 633 m 231 4 b 101 -187 231 -103 183 -162 l 101 -147 b 178 0 156 -125 178 -83 l 153 0 l 153 89 l 231 89 "},"<":{"ha":833,"x_min":0,"x_max":0,"o":"m 197 447 l 694 201 l 694 146 l 139 428 l 139 468 l 694 750 l 694 694 l 197 449 "},"=":{"ha":833,"x_min":0,"x_max":0,"o":"m 694 569 l 139 569 l 139 617 l 694 617 m 694 278 l 139 278 l 139 325 l 694 325 "},">":{"ha":833,"x_min":0,"x_max":0,"o":"m 636 449 l 139 694 l 139 750 l 694 468 l 694 428 l 139 146 l 139 201 l 636 447 "},"?":{"ha":685,"x_min":0,"x_max":0,"o":"m 79 796 b 363 1021 101 921 204 1021 b 629 806 519 1021 629 925 b 456 525 629 718 597 675 b 369 278 375 440 369 388 l 319 278 b 422 560 319 428 328 464 b 579 804 532 671 579 717 b 361 978 579 896 494 978 b 132 796 243 978 153 901 m 307 0 l 307 89 l 382 89 l 382 0 "},"@":{"ha":1292,"x_min":0,"x_max":0,"o":"m 958 146 b 814 299 864 146 815 217 b 582 153 793 246 708 153 b 354 410 465 153 354 244 b 654 775 354 640 490 775 b 840 656 724 775 813 736 l 865 765 l 903 765 l 851 371 b 849 328 850 350 849 342 b 958 189 849 238 893 189 b 1158 547 1071 189 1158 311 b 664 976 1158 793 971 976 b 133 444 431 976 133 839 b 669 -67 133 114 385 -67 b 886 -33 751 -67 831 -51 l 900 -75 b 668 -112 843 -96 758 -112 b 83 444 372 -112 83 78 b 664 1021 83 864 400 1021 b 1208 549 1008 1021 1208 807 b 958 146 1208 297 1100 146 m 590 196 b 808 403 689 196 790 265 l 822 504 b 825 549 824 519 825 535 b 654 733 825 682 739 733 b 403 415 529 733 403 626 b 590 196 403 274 486 196 "},"A":{"ha":892,"x_min":0,"x_max":0,"o":"m 821 0 l 704 296 l 186 296 l 68 0 l 14 0 l 411 1000 l 482 1000 l 878 0 m 203 340 l 688 340 l 447 953 "},"B":{"ha":878,"x_min":0,"x_max":0,"o":"m 454 1000 b 760 760 650 1000 760 907 b 571 531 760 654 689 558 b 803 276 700 514 803 413 b 463 0 803 107 689 0 l 118 0 l 118 1000 m 169 506 l 169 46 l 469 46 b 749 276 649 46 749 129 b 478 506 749 411 646 506 m 169 954 l 169 550 l 474 550 b 708 758 628 550 708 643 b 463 954 708 882 618 954 "},"C":{"ha":993,"x_min":0,"x_max":0,"o":"m 525 -21 b 76 489 260 -21 76 182 b 519 1021 76 833 272 1021 b 924 707 726 1021 889 914 l 874 707 b 519 975 836 886 701 975 b 129 489 300 975 129 800 b 525 25 129 203 300 25 b 871 324 711 25 844 133 l 922 324 b 525 -21 897 128 750 -21 "},"D":{"ha":936,"x_min":0,"x_max":0,"o":"m 382 1000 b 860 500 661 1000 860 818 b 381 0 860 185 653 0 l 118 0 l 118 1000 m 169 954 l 169 46 l 388 46 b 807 500 626 46 807 206 b 385 954 807 796 625 954 "},"E":{"ha":779,"x_min":0,"x_max":0,"o":"m 656 486 l 169 486 l 169 46 l 696 46 l 696 0 l 118 0 l 118 1000 l 696 1000 l 696 954 l 169 954 l 169 532 l 656 532 "},"F":{"ha":764,"x_min":0,"x_max":0,"o":"m 688 1000 l 688 954 l 169 954 l 169 504 l 636 504 l 636 458 l 169 458 l 169 0 l 118 0 l 118 1000 "},"G":{"ha":1011,"x_min":0,"x_max":0,"o":"m 904 0 l 867 0 l 860 183 b 525 -21 800 56 676 -21 b 76 499 281 -21 76 157 b 518 1021 76 840 271 1021 b 908 736 722 1021 865 919 l 856 736 b 518 975 813 896 692 975 b 129 499 317 975 129 822 b 525 25 129 188 315 25 b 860 326 708 25 860 154 l 860 474 l 522 474 l 522 519 l 904 519 "},"H":{"ha":939,"x_min":0,"x_max":0,"o":"m 821 1000 l 821 0 l 769 0 l 769 488 l 169 488 l 169 0 l 118 0 l 118 1000 l 169 1000 l 169 535 l 769 535 l 769 1000 "},"I":{"ha":288,"x_min":0,"x_max":0,"o":"m 169 1000 l 169 0 l 118 0 l 118 1000 "},"J":{"ha":718,"x_min":0,"x_max":0,"o":"m 99 258 b 331 25 106 107 197 25 b 556 272 469 25 556 111 l 556 1000 l 607 1000 l 607 274 b 331 -21 607 99 501 -21 b 49 258 158 -21 56 90 "},"K":{"ha":806,"x_min":0,"x_max":0,"o":"m 715 0 l 169 500 l 169 0 l 118 0 l 118 1000 l 169 1000 l 169 526 l 682 1000 l 744 1000 l 226 517 l 785 0 "},"L":{"ha":758,"x_min":0,"x_max":0,"o":"m 169 1000 l 169 46 l 696 46 l 696 0 l 118 0 l 118 1000 "},"M":{"ha":1151,"x_min":0,"x_max":0,"o":"m 556 0 l 168 947 l 168 0 l 118 0 l 118 1000 l 199 1000 l 588 49 l 956 1000 l 1033 1000 l 1033 0 l 983 0 l 983 940 l 618 0 "},"N":{"ha":985,"x_min":0,"x_max":0,"o":"m 867 1000 l 867 0 l 813 0 l 168 928 l 168 0 l 118 0 l 118 1000 l 175 1000 l 819 79 l 819 1000 "},"O":{"ha":1033,"x_min":0,"x_max":0,"o":"m 517 25 b 904 499 721 25 904 172 b 517 975 904 808 735 975 b 129 499 299 975 129 808 b 517 25 129 179 313 25 m 517 -21 b 76 499 272 -21 76 165 b 517 1021 76 835 274 1021 b 957 499 760 1021 957 835 b 517 -21 957 158 761 -21 "},"P":{"ha":867,"x_min":0,"x_max":0,"o":"m 458 1000 b 797 692 674 1000 797 883 b 456 394 797 508 651 394 l 169 394 l 169 0 l 118 0 l 118 1000 m 169 954 l 169 442 l 456 442 b 743 692 631 442 743 536 b 463 954 743 856 639 954 "},"Q":{"ha":1033,"x_min":0,"x_max":0,"o":"m 517 -21 b 76 499 272 -21 76 165 b 517 1021 76 835 274 1021 b 957 499 760 1021 957 835 b 792 76 957 304 893 163 l 946 -112 l 899 -146 l 753 47 b 517 -21 685 1 604 -21 m 517 25 b 904 499 721 25 904 172 b 517 975 904 808 735 975 b 129 499 299 975 129 808 b 517 25 129 179 313 25 "},"R":{"ha":860,"x_min":0,"x_max":0,"o":"m 768 0 l 489 424 l 169 424 l 169 0 l 118 0 l 118 1000 l 467 1000 b 799 707 681 1000 799 889 b 544 431 799 564 690 464 l 832 0 m 169 954 l 169 469 l 464 469 b 744 707 638 469 744 569 b 471 954 744 863 649 954 "},"S":{"ha":893,"x_min":0,"x_max":0,"o":"m 447 26 b 760 250 649 26 760 113 b 419 508 760 383 690 454 b 108 779 196 553 108 639 b 447 1021 108 921 224 1021 b 817 781 638 1021 782 931 l 764 781 b 450 975 733 901 615 975 b 161 783 256 975 161 896 b 454 550 161 665 224 597 b 813 251 717 496 813 410 b 446 -21 813 94 685 -21 b 63 244 243 -21 97 72 l 117 244 b 447 26 147 96 281 26 "},"T":{"ha":782,"x_min":0,"x_max":0,"o":"m 754 954 l 417 954 l 417 0 l 365 0 l 365 954 l 28 954 l 28 1000 l 754 1000 "},"U":{"ha":972,"x_min":0,"x_max":0,"o":"m 486 -21 b 111 326 246 -21 111 140 l 111 1000 l 161 1000 l 161 325 b 486 25 161 149 301 25 b 811 325 669 25 811 149 l 811 1000 l 861 1000 l 861 326 b 486 -21 861 140 722 -21 "},"V":{"ha":858,"x_min":0,"x_max":0,"o":"m 67 1000 l 428 40 l 794 1000 l 844 1000 l 467 0 l 390 0 l 14 1000 "},"W":{"ha":1319,"x_min":0,"x_max":0,"o":"m 1299 1000 l 1017 0 l 940 0 l 660 958 l 381 0 l 303 0 l 21 1000 l 75 1000 l 343 40 l 624 1000 l 700 1000 l 979 43 l 1249 1000 "},"X":{"ha":828,"x_min":0,"x_max":0,"o":"m 449 517 l 800 0 l 739 0 l 414 479 l 88 0 l 28 0 l 383 519 l 56 1000 l 117 1000 l 418 557 l 731 1000 l 788 1000 "},"Y":{"ha":861,"x_min":0,"x_max":0,"o":"m 69 1000 l 429 440 l 794 1000 l 847 1000 l 456 390 l 456 0 l 404 0 l 404 393 l 14 1000 "},"Z":{"ha":888,"x_min":0,"x_max":0,"o":"m 129 46 l 804 46 l 804 0 l 69 0 l 69 47 l 757 954 l 101 954 l 101 1000 l 818 1000 l 818 957 "},"[":{"ha":319,"x_min":0,"x_max":0,"o":"m 278 -236 l 42 -236 l 42 1125 l 278 1125 l 278 1081 l 92 1081 l 92 -192 l 278 -192 "},"\\":{"ha":422,"x_min":0,"x_max":0,"o":"m 42 1021 l 90 1021 l 381 -125 l 332 -125 "},"]":{"ha":319,"x_min":0,"x_max":0,"o":"m 42 -192 l 228 -192 l 228 1081 l 42 1081 l 42 1125 l 278 1125 l 278 -236 l 42 -236 "},"^":{"ha":667,"x_min":0,"x_max":0,"o":"m 115 556 l 64 556 l 306 1000 l 361 1000 l 603 556 l 551 556 l 333 961 "},"_":{"ha":839,"x_min":0,"x_max":0,"o":"m 797 -144 l 42 -144 l 42 -97 l 797 -97 "},"`":{"ha":300,"x_min":0,"x_max":0,"o":"m 258 831 l 211 831 l 42 1021 l 115 1021 "},"a":{"ha":722,"x_min":0,"x_max":0,"o":"m 93 542 b 361 743 104 661 211 743 b 618 511 511 743 618 657 l 618 0 l 578 0 l 569 129 b 308 -21 526 50 442 -21 b 69 182 175 -21 69 50 b 349 411 69 303 143 376 l 568 447 l 568 521 b 358 701 568 631 489 701 b 143 542 238 701 153 635 m 568 406 l 368 372 b 121 185 176 340 121 281 b 322 22 121 75 206 22 b 568 254 443 22 568 115 "},"b":{"ha":789,"x_min":0,"x_max":0,"o":"m 111 0 l 111 1000 l 161 1000 l 161 574 b 421 743 206 672 296 743 b 719 371 594 743 719 624 b 417 -21 719 113 586 -21 b 160 147 293 -21 203 47 l 151 0 m 668 372 b 413 701 668 599 561 701 b 156 358 289 701 156 614 b 410 21 156 131 264 21 b 668 372 554 21 668 135 "},"c":{"ha":742,"x_min":0,"x_max":0,"o":"m 672 204 b 382 -21 649 72 535 -21 b 69 356 207 -21 69 108 b 385 743 69 617 215 743 b 668 528 535 743 644 657 l 615 528 b 386 701 597 632 507 701 b 119 353 239 701 119 589 b 385 22 119 126 242 22 b 621 204 507 22 603 99 "},"d":{"ha":789,"x_min":0,"x_max":0,"o":"m 638 0 l 629 153 b 369 -21 585 51 494 -21 b 69 353 208 -21 69 100 b 372 743 69 615 208 743 b 628 579 492 743 583 676 l 628 1000 l 678 1000 l 678 0 m 121 354 b 378 21 121 126 236 21 b 633 364 499 21 633 108 b 379 701 633 592 522 701 b 121 354 240 701 121 590 "},"e":{"ha":789,"x_min":0,"x_max":0,"o":"m 699 192 b 407 -21 664 61 553 -21 b 69 361 215 -21 69 117 b 390 743 69 607 211 743 b 713 349 569 743 713 615 l 121 349 b 408 22 126 125 253 22 b 646 192 525 22 617 83 m 390 701 b 121 392 247 701 131 593 l 660 392 b 390 701 650 597 535 701 "},"f":{"ha":404,"x_min":0,"x_max":0,"o":"m 411 963 b 306 979 378 972 335 979 b 199 854 239 979 199 938 l 199 722 l 375 722 l 375 679 l 199 679 l 199 0 l 149 0 l 149 679 l 42 679 l 42 722 l 149 722 l 149 853 b 306 1021 149 961 211 1021 b 411 1004 339 1021 376 1015 "},"g":{"ha":789,"x_min":0,"x_max":0,"o":"m 153 -75 b 386 -229 174 -183 271 -229 b 628 0 536 -229 628 -137 l 628 185 b 371 28 583 93 494 28 b 69 379 213 28 69 150 b 372 743 69 615 207 743 b 629 583 490 743 585 681 l 638 722 l 678 722 l 678 0 b 388 -271 678 -154 568 -271 b 100 -75 235 -271 126 -203 m 121 381 b 379 69 121 176 236 69 b 633 385 504 69 633 144 b 378 701 633 603 521 701 b 121 381 239 701 121 600 "},"h":{"ha":760,"x_min":0,"x_max":0,"o":"m 111 0 l 111 1000 l 161 1000 l 161 586 b 408 743 207 688 304 743 b 656 500 558 743 656 649 l 656 0 l 606 0 l 606 497 b 397 701 606 624 529 701 b 161 449 285 701 161 603 l 161 0 "},"i":{"ha":256,"x_min":0,"x_max":0,"o":"m 103 0 l 103 722 l 153 722 l 153 0 m 96 921 l 96 1000 l 160 1000 l 160 921 "},"j":{"ha":256,"x_min":0,"x_max":0,"o":"m -82 -211 b 8 -226 -53 -221 -15 -226 b 103 -104 69 -226 103 -193 l 103 722 l 153 722 l 153 -107 b 15 -271 153 -215 103 -271 b -82 -256 -15 -271 -47 -267 m 96 921 l 96 1000 l 160 1000 l 160 921 "},"k":{"ha":658,"x_min":0,"x_max":0,"o":"m 111 0 l 111 1000 l 161 1000 l 161 422 l 533 722 l 603 722 l 213 407 l 651 0 l 583 0 l 161 389 l 161 0 "},"l":{"ha":272,"x_min":0,"x_max":0,"o":"m 161 0 l 111 0 l 111 1000 l 161 1000 "},"m":{"ha":1171,"x_min":0,"x_max":0,"o":"m 111 0 l 111 722 l 153 722 l 160 599 b 386 743 206 699 300 743 b 603 588 499 743 576 688 b 839 743 649 696 749 743 b 1067 501 982 743 1067 654 l 1067 0 l 1017 0 l 1017 499 b 831 701 1017 638 947 701 b 614 450 706 701 614 592 l 614 0 l 564 0 l 564 499 b 381 701 564 635 497 701 b 161 450 253 701 161 592 l 161 0 "},"n":{"ha":760,"x_min":0,"x_max":0,"o":"m 111 0 l 111 722 l 153 722 l 160 585 b 408 743 207 688 304 743 b 656 500 558 743 656 649 l 656 0 l 606 0 l 606 497 b 397 701 606 624 529 701 b 161 450 285 701 161 604 l 161 0 "},"o":{"ha":785,"x_min":0,"x_max":0,"o":"m 121 361 b 393 21 121 135 240 21 b 664 361 550 21 664 135 b 393 701 664 589 550 701 b 121 361 236 701 121 588 m 69 361 b 393 743 69 613 208 743 b 715 361 582 743 715 611 b 396 -21 715 110 579 -21 b 69 361 211 -21 69 113 "},"p":{"ha":789,"x_min":0,"x_max":0,"o":"m 151 722 l 160 571 b 421 743 203 671 294 743 b 719 371 593 743 719 624 b 414 -21 719 113 583 -21 b 161 144 293 -21 204 46 l 161 -250 l 111 -250 l 111 722 m 668 372 b 413 701 668 599 560 701 b 156 358 289 701 156 614 b 407 21 156 131 264 21 b 668 372 551 21 668 135 "},"q":{"ha":789,"x_min":0,"x_max":0,"o":"m 678 722 l 678 -250 l 628 -250 l 628 150 b 369 -21 583 50 493 -21 b 69 353 208 -21 69 100 b 372 743 69 615 208 743 b 629 575 493 743 585 675 l 638 722 m 121 354 b 378 21 121 126 236 21 b 633 364 499 21 633 108 b 379 701 633 592 522 701 b 121 354 240 701 121 590 "},"r":{"ha":464,"x_min":0,"x_max":0,"o":"m 111 0 l 111 722 l 151 722 l 160 569 b 371 743 197 690 276 743 b 443 732 397 743 426 738 l 443 683 b 367 696 419 690 394 696 b 161 408 256 696 161 579 l 161 0 "},"s":{"ha":682,"x_min":0,"x_max":0,"o":"m 560 189 b 311 360 560 285 490 332 b 78 557 175 381 78 440 b 333 743 78 658 161 743 b 610 549 479 743 589 665 l 557 549 b 329 701 546 635 453 701 b 129 561 192 701 129 636 b 346 400 129 472 185 428 b 613 190 538 367 613 306 b 338 -21 613 82 510 -21 b 56 185 172 -21 74 65 l 108 185 b 339 22 118 90 206 22 b 560 189 482 22 560 103 "},"t":{"ha":408,"x_min":0,"x_max":0,"o":"m 189 679 l 189 132 b 292 21 189 56 229 21 b 381 33 318 21 344 24 l 381 -8 b 292 -21 349 -17 319 -21 b 139 133 199 -21 139 29 l 139 679 l 35 679 l 35 722 l 139 722 l 144 896 l 189 896 l 189 722 l 361 722 l 361 679 "},"u":{"ha":753,"x_min":0,"x_max":0,"o":"m 154 722 l 154 228 b 360 21 154 90 235 21 b 592 278 489 21 592 131 l 592 722 l 642 722 l 642 0 l 600 0 l 593 129 b 349 -21 543 25 440 -21 b 104 225 210 -21 104 61 l 104 722 "},"v":{"ha":681,"x_min":0,"x_max":0,"o":"m 653 722 l 374 0 l 307 0 l 28 722 l 82 722 l 340 44 l 601 722 "},"w":{"ha":1044,"x_min":0,"x_max":0,"o":"m 1010 722 l 803 0 l 739 0 l 525 678 l 324 0 l 260 0 l 35 722 l 85 722 l 293 49 l 493 722 l 560 722 l 771 51 l 961 722 "},"x":{"ha":700,"x_min":0,"x_max":0,"o":"m 376 381 l 672 0 l 610 0 l 343 344 l 88 0 l 28 0 l 313 381 l 40 722 l 104 722 l 347 417 l 571 722 l 629 722 "},"y":{"ha":681,"x_min":0,"x_max":0,"o":"m 394 -4 b 206 -271 318 -217 297 -271 b 135 -257 182 -271 154 -264 l 135 -215 b 207 -229 158 -224 186 -229 b 346 0 268 -229 288 -175 l 322 0 l 28 722 l 82 722 l 360 36 l 601 722 l 653 722 "},"z":{"ha":664,"x_min":0,"x_max":0,"o":"m 111 43 l 608 43 l 608 0 l 56 0 l 56 50 l 556 679 l 76 679 l 76 722 l 608 722 l 608 669 "},"{":{"ha":472,"x_min":0,"x_max":0,"o":"m 83 471 b 215 611 163 471 215 522 l 215 942 b 403 1125 215 1057 264 1125 l 403 1081 b 265 949 293 1081 265 1032 l 265 615 b 138 446 265 524 214 461 b 265 276 214 431 265 368 l 265 -57 b 403 -189 265 -140 293 -189 l 403 -233 b 215 -50 264 -233 215 -165 l 215 281 b 83 421 215 369 163 421 l 83 471 "},"|":{"ha":472,"x_min":0,"x_max":0,"o":"m 260 1090 l 260 -194 l 213 -194 l 213 1090 "},"}":{"ha":472,"x_min":0,"x_max":0,"o":"m 389 421 b 257 281 310 421 257 369 l 257 -50 b 69 -233 257 -165 208 -233 l 69 -189 b 207 -57 179 -189 207 -140 l 207 276 b 335 446 207 368 258 431 b 207 615 258 461 207 524 l 207 949 b 69 1081 207 1032 179 1081 l 69 1125 b 257 942 208 1125 257 1057 l 257 611 b 389 471 257 522 310 471 "},"~":{"ha":833,"x_min":0,"x_max":0,"o":"m 550 436 b 694 504 607 436 647 463 l 694 447 b 549 392 657 418 614 392 b 283 474 435 392 379 474 b 139 406 226 474 186 447 l 139 463 b 285 518 176 492 219 518 b 550 436 399 518 454 436 "}," ":{"ha":417,"x_min":0,"x_max":0,"o":""},"¡":{"ha":347,"x_min":0,"x_max":0,"o":"m 196 444 l 196 -250 l 142 -250 l 142 444 m 211 750 l 211 661 l 136 661 l 136 750 "},"¢":{"ha":833,"x_min":0,"x_max":0,"o":"m 399 -19 b 115 356 238 -6 115 122 b 399 742 115 600 243 726 l 399 917 l 447 917 l 447 742 b 714 528 589 736 690 651 l 661 528 b 432 701 643 632 553 701 b 165 353 285 701 165 589 b 431 22 165 126 288 22 b 667 204 553 22 649 99 l 718 204 b 447 -19 694 78 590 -12 l 447 -187 l 399 -187 "},"£":{"ha":833,"x_min":0,"x_max":0,"o":"m 532 465 l 222 465 l 222 189 b 150 46 222 140 203 83 l 694 46 l 694 0 l 76 0 l 76 46 b 174 196 142 71 174 126 l 174 465 l 111 465 l 111 510 l 174 510 l 174 729 b 428 993 174 897 275 993 b 682 803 557 993 657 910 l 633 803 b 428 950 613 886 533 950 b 222 729 296 950 222 869 l 222 510 l 532 510 "},"¤":{"ha":833,"x_min":0,"x_max":0,"o":"m 107 472 b 175 675 107 557 133 624 l 85 765 l 118 799 l 207 708 b 417 790 268 764 346 790 b 626 707 488 790 567 763 l 718 799 l 751 765 l 658 672 b 726 472 699 622 726 556 b 657 268 726 386 699 318 l 751 174 l 718 140 l 624 233 b 417 154 564 181 486 154 b 210 232 347 154 271 179 l 118 140 l 85 174 l 178 267 b 107 472 135 317 107 385 m 157 472 b 418 199 157 310 275 199 b 676 472 557 199 676 310 b 418 746 676 635 557 746 b 157 472 276 746 157 635 "},"¥":{"ha":833,"x_min":0,"x_max":0,"o":"m 654 208 l 442 208 l 442 0 l 390 0 l 390 208 l 181 208 l 181 253 l 390 253 l 390 394 l 181 394 l 181 439 l 363 439 l 18 972 l 74 972 l 415 440 l 763 972 l 815 972 l 471 439 l 654 439 l 654 394 l 442 394 l 442 253 l 654 253 "},"¦":{"ha":472,"x_min":0,"x_max":0,"o":"m 260 340 l 260 -194 l 213 -194 l 213 340 m 260 1090 l 260 556 l 213 556 l 213 1090 "},"§":{"ha":833,"x_min":0,"x_max":0,"o":"m 144 443 b 335 636 144 539 214 608 b 197 807 243 678 197 731 b 429 993 197 918 286 993 b 663 849 551 993 640 926 l 608 849 b 428 951 588 908 515 951 b 246 811 311 951 246 886 b 438 644 246 722 318 682 b 689 425 629 583 689 521 b 499 231 689 328 618 260 b 638 61 590 189 638 136 b 406 -125 638 -54 539 -125 b 163 21 283 -125 188 -54 l 219 21 b 407 -83 238 -33 313 -83 b 589 57 517 -83 589 -19 b 397 224 589 146 517 185 b 144 443 206 286 144 349 m 449 251 b 639 422 547 274 639 319 b 407 610 639 515 578 553 l 385 617 b 194 446 275 594 194 550 b 428 258 194 353 257 315 "},"¨":{"ha":514,"x_min":0,"x_max":0,"o":"m 83 921 l 83 1000 l 147 1000 l 147 921 m 356 921 l 356 1000 l 419 1000 l 419 921 "},"©":{"ha":1171,"x_min":0,"x_max":0,"o":"m 126 500 b 585 19 126 164 358 19 b 1043 500 811 19 1043 164 b 585 981 1043 836 811 981 b 126 500 358 981 126 836 m 1088 500 b 585 -21 1088 136 831 -21 b 82 500 339 -21 82 136 b 585 1021 82 864 339 1021 b 1088 500 831 1021 1088 864 m 810 389 b 583 214 790 285 703 214 b 340 501 447 214 340 314 b 585 797 340 700 454 797 b 807 629 703 797 788 731 l 757 629 b 586 756 742 707 676 756 b 389 500 478 756 389 672 b 585 257 389 333 481 257 b 761 389 676 257 746 310 "},"ª":{"ha":611,"x_min":0,"x_max":0,"o":"m 122 886 b 314 1019 136 976 222 1019 b 501 843 429 1019 501 954 l 501 426 l 465 426 l 457 519 b 278 415 426 464 369 415 b 103 582 178 415 103 479 b 301 758 103 689 189 738 l 456 786 l 456 846 b 310 982 456 931 407 982 b 171 886 233 982 178 944 m 456 746 l 318 721 b 150 585 226 704 150 674 b 290 454 150 501 204 454 b 456 624 382 454 456 540 m 515 0 l 96 0 l 96 47 l 515 47 "},"«":{"ha":638,"x_min":0,"x_max":0,"o":"m 90 438 l 256 722 l 297 722 l 150 435 l 283 125 l 242 125 m 340 438 l 506 722 l 547 722 l 400 435 l 533 125 l 492 125 "},"¬":{"ha":833,"x_min":0,"x_max":0,"o":"m 694 471 l 694 169 l 644 169 l 644 424 l 139 424 l 139 471 "},"­":{"ha":750,"x_min":0,"x_max":0,"o":"m 611 424 l 139 424 l 139 471 l 611 471 "},"®":{"ha":853,"x_min":0,"x_max":0,"o":"m 104 685 b 426 1014 104 913 278 1014 b 749 685 575 1014 749 913 b 426 356 749 457 575 356 b 104 685 278 356 104 457 m 143 685 b 426 390 143 493 283 390 b 710 685 569 390 710 493 b 426 979 710 876 569 979 b 143 685 283 979 143 876 m 526 508 l 439 653 l 358 653 l 358 508 l 322 508 l 322 867 l 429 867 b 556 764 500 867 556 836 b 476 660 556 719 535 678 l 569 508 m 358 836 l 358 683 l 435 683 b 518 764 490 683 518 725 b 431 836 518 801 494 836 "},"¯":{"ha":403,"x_min":0,"x_max":0,"o":"m 42 918 l 42 963 l 361 963 l 361 918 "},"°":{"ha":750,"x_min":0,"x_max":0,"o":"m 119 767 b 285 589 119 654 192 589 b 450 767 378 589 450 654 b 285 944 450 879 378 944 b 119 767 192 944 119 879 m 500 767 b 285 547 500 624 396 547 b 69 767 174 547 69 624 b 285 986 69 910 174 986 b 500 767 396 986 500 910 "},"±":{"ha":833,"x_min":0,"x_max":0,"o":"m 442 725 l 442 471 l 694 471 l 694 424 l 442 424 l 442 183 l 392 183 l 392 424 l 139 424 l 139 471 l 392 471 l 392 725 m 694 0 l 139 0 l 139 47 l 694 47 "},"²":{"ha":472,"x_min":0,"x_max":0,"o":"m 65 993 b 239 1125 85 1071 149 1125 b 403 972 340 1125 403 1054 b 304 786 403 896 364 846 l 143 625 l 396 625 l 396 583 l 86 583 l 86 625 l 274 817 b 356 972 313 856 356 901 b 239 1086 356 1017 328 1086 b 113 993 174 1086 129 1049 "},"³":{"ha":472,"x_min":0,"x_max":0,"o":"m 72 1007 b 239 1125 90 1082 154 1125 b 388 986 329 1125 388 1065 b 292 865 388 928 354 883 b 408 728 344 854 408 821 b 238 575 408 640 339 575 b 69 697 157 575 83 631 l 119 697 b 236 615 135 649 188 615 b 361 729 317 615 361 668 b 233 843 361 806 300 843 l 201 843 l 201 881 l 240 881 b 342 985 296 881 342 931 b 238 1086 342 1047 301 1086 b 119 1007 174 1086 133 1054 "},"´":{"ha":300,"x_min":0,"x_max":0,"o":"m 185 1021 l 258 1021 l 89 831 l 42 831 "},"µ":{"ha":760,"x_min":0,"x_max":0,"o":"m 161 722 l 161 228 b 367 21 161 90 242 21 b 599 278 496 21 599 131 l 599 722 l 649 722 l 649 0 l 607 0 l 600 129 b 356 -21 550 25 447 -21 b 161 61 275 -21 204 6 l 161 -250 l 111 -250 l 111 722 "},"¶":{"ha":764,"x_min":0,"x_max":0,"o":"m 307 -250 l 307 549 b 97 774 238 549 97 604 b 307 1000 97 943 238 1000 l 354 1000 l 354 -250 m 611 1000 l 611 -250 l 564 -250 l 564 1000 "},"·":{"ha":386,"x_min":0,"x_max":0,"o":"m 156 401 l 156 490 l 231 490 l 231 401 "},"¸":{"ha":390,"x_min":0,"x_max":0,"o":"m 349 -199 b 199 -331 349 -271 286 -331 b 42 -217 117 -331 53 -292 l 88 -217 b 200 -290 93 -265 140 -290 b 304 -200 263 -290 304 -251 b 144 -107 304 -144 260 -107 l 154 21 l 193 21 l 193 -72 b 349 -199 296 -82 349 -132 "},"¹":{"ha":472,"x_min":0,"x_max":0,"o":"m 104 583 l 104 624 l 235 624 l 235 1065 l 85 976 l 85 1025 l 229 1111 l 282 1111 l 282 624 l 390 624 l 390 583 "},"º":{"ha":533,"x_min":0,"x_max":0,"o":"m 96 715 b 268 454 96 521 179 454 b 438 715 357 454 438 521 b 268 981 438 911 357 981 b 96 715 179 981 96 910 m 49 715 b 268 1019 49 918 135 1019 b 485 715 401 1019 485 921 b 269 415 485 510 397 415 b 49 715 140 415 49 513 m 464 0 l 56 0 l 56 47 l 464 47 "},"»":{"ha":638,"x_min":0,"x_max":0,"o":"m 396 125 l 354 125 l 488 435 l 340 722 l 382 722 l 547 438 m 146 125 l 104 125 l 238 435 l 90 722 l 132 722 l 297 438 "},"¼":{"ha":1222,"x_min":0,"x_max":0,"o":"m 153 444 l 153 485 l 283 485 l 283 926 l 133 838 l 133 886 l 278 972 l 331 972 l 331 485 l 439 485 l 439 444 m 994 333 l 994 165 l 1088 165 l 1088 125 l 994 125 l 994 0 l 947 0 l 947 125 l 742 125 l 742 167 l 858 528 l 906 528 l 788 165 l 947 165 l 947 193 l 954 333 m 336 -125 l 289 -125 l 919 1097 l 968 1097 "},"½":{"ha":1222,"x_min":0,"x_max":0,"o":"m 760 410 b 933 542 779 488 843 542 b 1097 389 1035 542 1097 471 b 999 203 1097 313 1058 263 l 838 42 l 1090 42 l 1090 0 l 781 0 l 781 42 l 968 233 b 1050 389 1007 272 1050 318 b 933 503 1050 433 1022 503 b 807 410 868 503 824 465 m 143 444 l 143 485 l 274 485 l 274 926 l 124 838 l 124 886 l 268 972 l 321 972 l 321 485 l 429 485 l 429 444 m 326 -125 l 279 -125 l 910 1097 l 958 1097 "},"¾":{"ha":1222,"x_min":0,"x_max":0,"o":"m 136 875 b 303 993 154 950 218 993 b 451 854 393 993 451 933 b 356 733 451 796 418 751 b 472 596 408 722 472 689 b 301 443 472 508 403 443 b 133 565 221 443 147 499 l 183 565 b 300 483 199 517 251 483 b 425 597 381 483 425 536 b 297 711 425 674 364 711 l 265 711 l 265 749 l 304 749 b 406 853 360 749 406 799 b 301 954 406 915 365 954 b 183 875 238 954 197 922 m 996 333 l 996 165 l 1089 165 l 1089 125 l 996 125 l 996 0 l 949 0 l 949 125 l 743 125 l 743 167 l 860 528 l 907 528 l 789 165 l 949 165 l 949 193 l 956 333 m 338 -125 l 290 -125 l 921 1097 l 969 1097 "},"¿":{"ha":685,"x_min":0,"x_max":0,"o":"m 606 -46 b 322 -271 583 -171 481 -271 b 56 -56 165 -271 56 -175 b 229 225 56 32 88 75 b 315 472 310 310 315 339 l 365 472 b 263 190 365 322 357 286 b 106 -54 153 79 106 33 b 324 -228 106 -146 190 -228 b 553 -46 442 -228 532 -151 m 378 750 l 378 661 l 303 661 l 303 750 "},"À":{"ha":892,"x_min":0,"x_max":0,"o":"m 821 0 l 704 296 l 186 296 l 68 0 l 14 0 l 411 1000 l 482 1000 l 878 0 m 203 340 l 688 340 l 447 953 m 506 1067 l 458 1067 l 289 1257 l 363 1257 "},"Á":{"ha":892,"x_min":0,"x_max":0,"o":"m 821 0 l 704 296 l 186 296 l 68 0 l 14 0 l 411 1000 l 482 1000 l 878 0 m 203 340 l 688 340 l 447 953 m 519 1257 l 593 1257 l 424 1067 l 376 1067 "},"Â":{"ha":892,"x_min":0,"x_max":0,"o":"m 821 0 l 704 296 l 186 296 l 68 0 l 14 0 l 411 1000 l 482 1000 l 878 0 m 203 340 l 688 340 l 447 953 m 621 1067 l 574 1067 l 447 1224 l 322 1067 l 274 1067 l 418 1257 l 478 1257 "},"Ã":{"ha":892,"x_min":0,"x_max":0,"o":"m 821 0 l 704 296 l 186 296 l 68 0 l 14 0 l 411 1000 l 482 1000 l 878 0 m 203 340 l 688 340 l 447 953 m 521 1115 b 372 1160 447 1115 431 1160 b 271 1115 340 1160 311 1147 l 271 1165 b 374 1206 308 1193 335 1206 b 522 1161 447 1206 464 1161 b 624 1206 554 1161 583 1174 l 624 1156 b 521 1115 586 1128 560 1115 "},"Ä":{"ha":892,"x_min":0,"x_max":0,"o":"m 821 0 l 704 296 l 186 296 l 68 0 l 14 0 l 411 1000 l 482 1000 l 878 0 m 203 340 l 688 340 l 447 953 m 279 1157 l 279 1236 l 343 1236 l 343 1157 m 551 1157 l 551 1236 l 615 1236 l 615 1157 "},"Å":{"ha":892,"x_min":0,"x_max":0,"o":"m 821 0 l 704 296 l 186 296 l 68 0 l 14 0 l 400 972 b 285 1126 331 989 285 1049 b 444 1286 285 1219 350 1286 b 604 1126 539 1286 604 1219 b 492 972 604 1050 560 992 l 878 0 m 203 340 l 688 340 l 447 953 m 329 1126 b 444 1004 329 1047 379 1004 b 560 1126 510 1004 560 1047 b 444 1249 560 1206 510 1249 b 329 1126 379 1249 329 1206 "},"Æ":{"ha":1274,"x_min":0,"x_max":0,"o":"m 1150 486 l 692 486 l 692 46 l 1190 46 l 1190 0 l 640 0 l 640 296 l 233 296 l 54 0 l 0 0 l 606 1000 l 1190 1000 l 1190 954 l 692 954 l 692 532 l 1150 532 m 640 340 l 640 965 l 261 340 "},"Ç":{"ha":993,"x_min":0,"x_max":0,"o":"m 699 -199 b 549 -331 699 -271 636 -331 b 392 -217 467 -331 403 -292 l 438 -217 b 550 -290 443 -265 490 -290 b 654 -200 613 -290 654 -251 b 494 -107 654 -144 610 -107 l 501 -19 b 76 489 249 -7 76 190 b 519 1021 76 833 272 1021 b 924 707 726 1021 889 914 l 874 707 b 519 975 836 886 701 975 b 129 489 300 975 129 800 b 525 25 129 203 300 25 b 871 324 711 25 844 133 l 922 324 b 543 -21 897 133 757 -12 l 543 -72 b 699 -199 646 -82 699 -132 "},"È":{"ha":779,"x_min":0,"x_max":0,"o":"m 656 486 l 169 486 l 169 46 l 696 46 l 696 0 l 118 0 l 118 1000 l 696 1000 l 696 954 l 169 954 l 169 532 l 656 532 m 494 1067 l 447 1067 l 278 1257 l 351 1257 "},"É":{"ha":779,"x_min":0,"x_max":0,"o":"m 656 486 l 169 486 l 169 46 l 696 46 l 696 0 l 118 0 l 118 1000 l 696 1000 l 696 954 l 169 954 l 169 532 l 656 532 m 463 1257 l 536 1257 l 367 1067 l 319 1067 "},"Ê":{"ha":779,"x_min":0,"x_max":0,"o":"m 656 486 l 169 486 l 169 46 l 696 46 l 696 0 l 118 0 l 118 1000 l 696 1000 l 696 954 l 169 954 l 169 532 l 656 532 m 585 1067 l 538 1067 l 411 1224 l 286 1067 l 238 1067 l 382 1257 l 442 1257 "},"Ë":{"ha":779,"x_min":0,"x_max":0,"o":"m 656 486 l 169 486 l 169 46 l 696 46 l 696 0 l 118 0 l 118 1000 l 696 1000 l 696 954 l 169 954 l 169 532 l 656 532 m 228 1157 l 228 1236 l 292 1236 l 292 1157 m 500 1157 l 500 1236 l 564 1236 l 564 1157 "},"Ì":{"ha":288,"x_min":0,"x_max":0,"o":"m 169 1000 l 169 0 l 118 0 l 118 1000 m 207 1067 l 160 1067 l -10 1257 l 64 1257 "},"Í":{"ha":288,"x_min":0,"x_max":0,"o":"m 169 1000 l 169 0 l 118 0 l 118 1000 m 224 1257 l 297 1257 l 128 1067 l 81 1067 "},"Î":{"ha":288,"x_min":0,"x_max":0,"o":"m 169 1000 l 169 0 l 118 0 l 118 1000 m 317 1067 l 269 1067 l 143 1224 l 18 1067 l -31 1067 l 114 1257 l 174 1257 "},"Ï":{"ha":288,"x_min":0,"x_max":0,"o":"m 169 1000 l 169 0 l 118 0 l 118 1000 m -25 1157 l -25 1236 l 39 1236 l 39 1157 m 247 1157 l 247 1236 l 311 1236 l 311 1157 "},"Ð":{"ha":936,"x_min":0,"x_max":0,"o":"m 118 503 l 35 503 l 35 549 l 118 549 l 118 1000 l 382 1000 b 860 500 661 1000 860 818 b 381 0 860 185 653 0 l 118 0 m 500 503 l 169 503 l 169 46 l 388 46 b 807 500 626 46 807 206 b 385 954 807 796 625 954 l 169 954 l 169 549 l 500 549 "},"Ñ":{"ha":985,"x_min":0,"x_max":0,"o":"m 867 1000 l 867 0 l 813 0 l 168 928 l 168 0 l 118 0 l 118 1000 l 175 1000 l 819 79 l 819 1000 m 582 1115 b 433 1160 508 1115 492 1160 b 332 1115 401 1160 372 1147 l 332 1165 b 435 1206 369 1193 396 1206 b 583 1161 508 1206 525 1161 b 685 1206 615 1161 644 1174 l 685 1156 b 582 1115 647 1128 621 1115 "},"Ò":{"ha":1033,"x_min":0,"x_max":0,"o":"m 517 25 b 904 499 721 25 904 172 b 517 975 904 808 735 975 b 129 499 299 975 129 808 b 517 25 129 179 313 25 m 517 -21 b 76 499 272 -21 76 165 b 517 1021 76 835 274 1021 b 957 499 760 1021 957 835 b 517 -21 957 158 761 -21 m 564 1067 l 517 1067 l 347 1257 l 421 1257 "},"Ó":{"ha":1033,"x_min":0,"x_max":0,"o":"m 517 25 b 904 499 721 25 904 172 b 517 975 904 808 735 975 b 129 499 299 975 129 808 b 517 25 129 179 313 25 m 517 -21 b 76 499 272 -21 76 165 b 517 1021 76 835 274 1021 b 957 499 760 1021 957 835 b 517 -21 957 158 761 -21 m 597 1257 l 671 1257 l 501 1067 l 454 1067 "},"Ô":{"ha":1033,"x_min":0,"x_max":0,"o":"m 517 25 b 904 499 721 25 904 172 b 517 975 904 808 735 975 b 129 499 299 975 129 808 b 517 25 129 179 313 25 m 517 -21 b 76 499 272 -21 76 165 b 517 1021 76 835 274 1021 b 957 499 760 1021 957 835 b 517 -21 957 158 761 -21 m 690 1067 l 643 1067 l 517 1224 l 392 1067 l 343 1067 l 488 1257 l 547 1257 "},"Õ":{"ha":1033,"x_min":0,"x_max":0,"o":"m 517 25 b 904 499 721 25 904 172 b 517 975 904 808 735 975 b 129 499 299 975 129 808 b 517 25 129 179 313 25 m 517 -21 b 76 499 272 -21 76 165 b 517 1021 76 835 274 1021 b 957 499 760 1021 957 835 b 517 -21 957 158 761 -21 m 590 1115 b 442 1160 517 1115 500 1160 b 340 1115 410 1160 381 1147 l 340 1165 b 443 1206 378 1193 404 1206 b 592 1161 517 1206 533 1161 b 693 1206 624 1161 653 1174 l 693 1156 b 590 1115 656 1128 629 1115 "},"Ö":{"ha":1033,"x_min":0,"x_max":0,"o":"m 517 25 b 904 499 721 25 904 172 b 517 975 904 808 735 975 b 129 499 299 975 129 808 b 517 25 129 179 313 25 m 517 -21 b 76 499 272 -21 76 165 b 517 1021 76 835 274 1021 b 957 499 760 1021 957 835 b 517 -21 957 158 761 -21 m 347 1157 l 347 1236 l 411 1236 l 411 1157 m 619 1157 l 619 1236 l 683 1236 l 683 1157 "},"×":{"ha":833,"x_min":0,"x_max":0,"o":"m 238 660 l 417 481 l 596 660 l 629 626 l 450 447 l 629 268 l 596 235 l 417 414 l 238 235 l 204 268 l 383 447 l 204 626 "},"Ø":{"ha":1033,"x_min":0,"x_max":0,"o":"m 517 -21 b 361 6 463 -21 410 -11 l 303 -153 l 254 -153 l 319 25 b 76 499 175 100 76 261 b 517 1021 76 835 274 1021 b 676 992 572 1021 626 1011 l 731 1139 l 779 1139 l 718 972 b 957 499 860 896 957 733 b 517 -21 957 158 761 -21 m 129 499 b 336 69 129 278 215 136 l 660 947 b 517 975 615 965 568 975 b 129 499 299 975 129 808 m 517 25 b 904 499 721 25 904 172 b 701 928 904 713 824 858 l 378 50 b 517 25 422 33 468 25 "},"Ù":{"ha":972,"x_min":0,"x_max":0,"o":"m 486 -21 b 111 326 246 -21 111 140 l 111 1000 l 161 1000 l 161 325 b 486 25 161 149 301 25 b 811 325 669 25 811 149 l 811 1000 l 861 1000 l 861 326 b 486 -21 861 140 722 -21 m 557 1067 l 510 1067 l 340 1257 l 414 1257 "},"Ú":{"ha":972,"x_min":0,"x_max":0,"o":"m 486 -21 b 111 326 246 -21 111 140 l 111 1000 l 161 1000 l 161 325 b 486 25 161 149 301 25 b 811 325 669 25 811 149 l 811 1000 l 861 1000 l 861 326 b 486 -21 861 140 722 -21 m 553 1257 l 626 1257 l 457 1067 l 410 1067 "},"Û":{"ha":972,"x_min":0,"x_max":0,"o":"m 486 -21 b 111 326 246 -21 111 140 l 111 1000 l 161 1000 l 161 325 b 486 25 161 149 301 25 b 811 325 669 25 811 149 l 811 1000 l 861 1000 l 861 326 b 486 -21 861 140 722 -21 m 658 1067 l 611 1067 l 485 1224 l 360 1067 l 311 1067 l 456 1257 l 515 1257 "},"Ü":{"ha":972,"x_min":0,"x_max":0,"o":"m 486 -21 b 111 326 246 -21 111 140 l 111 1000 l 161 1000 l 161 325 b 486 25 161 149 301 25 b 811 325 669 25 811 149 l 811 1000 l 861 1000 l 861 326 b 486 -21 861 140 722 -21 m 318 1157 l 318 1236 l 382 1236 l 382 1157 m 590 1157 l 590 1236 l 654 1236 l 654 1157 "},"Ý":{"ha":861,"x_min":0,"x_max":0,"o":"m 69 1000 l 429 440 l 794 1000 l 847 1000 l 456 390 l 456 0 l 404 0 l 404 393 l 14 1000 m 497 1257 l 571 1257 l 401 1067 l 354 1067 "},"Þ":{"ha":867,"x_min":0,"x_max":0,"o":"m 169 1000 l 169 815 l 458 815 b 797 507 674 815 797 699 b 456 210 797 324 651 210 l 169 210 l 169 0 l 118 0 l 118 1000 m 169 769 l 169 257 l 456 257 b 743 507 631 257 743 351 b 463 769 743 671 639 769 "},"ß":{"ha":757,"x_min":0,"x_max":0,"o":"m 311 121 b 482 21 326 57 396 21 b 663 194 579 21 663 90 b 513 389 663 278 624 328 b 379 560 406 447 379 490 b 529 819 379 668 529 694 b 349 979 529 925 453 979 b 161 765 250 979 161 928 l 161 0 l 111 0 l 111 763 b 349 1021 111 922 190 1021 b 578 822 474 1021 578 958 b 425 561 578 689 425 642 b 539 426 425 510 454 471 b 715 200 668 358 715 286 b 478 -21 715 79 619 -21 b 258 121 356 -21 276 40 "},"à":{"ha":722,"x_min":0,"x_max":0,"o":"m 93 542 b 361 743 104 661 211 743 b 618 511 511 743 618 657 l 618 0 l 578 0 l 569 129 b 308 -21 526 50 442 -21 b 69 182 175 -21 69 50 b 349 411 69 303 143 376 l 568 447 l 568 521 b 358 701 568 631 489 701 b 143 542 238 701 153 635 m 568 406 l 368 372 b 121 185 176 340 121 281 b 322 22 121 75 206 22 b 568 254 443 22 568 115 m 408 831 l 361 831 l 192 1021 l 265 1021 "},"á":{"ha":722,"x_min":0,"x_max":0,"o":"m 93 542 b 361 743 104 661 211 743 b 618 511 511 743 618 657 l 618 0 l 578 0 l 569 129 b 308 -21 526 50 442 -21 b 69 182 175 -21 69 50 b 349 411 69 303 143 376 l 568 447 l 568 521 b 358 701 568 631 489 701 b 143 542 238 701 153 635 m 568 406 l 368 372 b 121 185 176 340 121 281 b 322 22 121 75 206 22 b 568 254 443 22 568 115 m 457 1021 l 531 1021 l 361 831 l 314 831 "},"â":{"ha":722,"x_min":0,"x_max":0,"o":"m 93 542 b 361 743 104 661 211 743 b 618 511 511 743 618 657 l 618 0 l 578 0 l 569 129 b 308 -21 526 50 442 -21 b 69 182 175 -21 69 50 b 349 411 69 303 143 376 l 568 447 l 568 521 b 358 701 568 631 489 701 b 143 542 238 701 153 635 m 568 406 l 368 372 b 121 185 176 340 121 281 b 322 22 121 75 206 22 b 568 254 443 22 568 115 m 539 831 l 492 831 l 365 988 l 240 831 l 192 831 l 336 1021 l 396 1021 "},"ã":{"ha":722,"x_min":0,"x_max":0,"o":"m 93 542 b 361 743 104 661 211 743 b 618 511 511 743 618 657 l 618 0 l 578 0 l 569 129 b 308 -21 526 50 442 -21 b 69 182 175 -21 69 50 b 349 411 69 303 143 376 l 568 447 l 568 521 b 358 701 568 631 489 701 b 143 542 238 701 153 635 m 568 406 l 368 372 b 121 185 176 340 121 281 b 322 22 121 75 206 22 b 568 254 443 22 568 115 m 435 879 b 286 924 361 879 344 924 b 185 879 254 924 225 911 l 185 929 b 288 969 222 957 249 969 b 436 925 361 969 378 925 b 538 969 468 925 497 938 l 538 919 b 435 879 500 892 474 879 "},"ä":{"ha":722,"x_min":0,"x_max":0,"o":"m 93 542 b 361 743 104 661 211 743 b 618 511 511 743 618 657 l 618 0 l 578 0 l 569 129 b 308 -21 526 50 442 -21 b 69 182 175 -21 69 50 b 349 411 69 303 143 376 l 568 447 l 568 521 b 358 701 568 631 489 701 b 143 542 238 701 153 635 m 568 406 l 368 372 b 121 185 176 340 121 281 b 322 22 121 75 206 22 b 568 254 443 22 568 115 m 193 921 l 193 1000 l 257 1000 l 257 921 m 465 921 l 465 1000 l 529 1000 l 529 921 "},"å":{"ha":722,"x_min":0,"x_max":0,"o":"m 93 542 b 361 743 104 661 211 743 b 618 511 511 743 618 657 l 618 0 l 578 0 l 569 129 b 308 -21 526 50 442 -21 b 69 182 175 -21 69 50 b 349 411 69 303 143 376 l 568 447 l 568 521 b 358 701 568 631 489 701 b 143 542 238 701 153 635 m 568 406 l 368 372 b 121 185 176 340 121 281 b 322 22 121 75 206 22 b 568 254 443 22 568 115 m 242 972 b 357 850 242 893 292 850 b 472 972 422 850 472 893 b 357 1094 472 1051 422 1094 b 242 972 292 1094 242 1051 m 517 972 b 357 813 517 879 451 813 b 197 972 263 813 197 879 b 357 1132 197 1065 263 1132 b 517 972 451 1132 517 1065 "},"æ":{"ha":1288,"x_min":0,"x_max":0,"o":"m 1194 199 b 903 -21 1158 61 1040 -21 b 596 193 779 -21 651 42 b 308 -21 569 85 482 -21 b 69 178 175 -21 69 47 b 353 394 69 294 149 372 l 568 418 l 568 521 b 358 701 568 631 489 701 b 143 542 238 701 153 635 l 93 542 b 361 743 104 661 211 743 b 610 571 489 743 585 681 b 886 743 669 692 781 743 b 1208 378 1044 743 1201 640 l 617 378 l 617 347 b 904 22 617 114 763 22 b 1142 199 1007 22 1110 79 m 322 22 b 568 243 440 22 561 111 l 568 361 l 568 376 l 372 356 b 121 181 182 335 121 271 b 322 22 121 71 206 22 m 886 701 b 619 421 751 701 639 597 l 1154 421 b 886 701 1138 594 1033 701 "},"ç":{"ha":742,"x_min":0,"x_max":0,"o":"m 549 -199 b 399 -331 549 -271 486 -331 b 242 -217 317 -331 253 -292 l 288 -217 b 400 -290 293 -265 340 -290 b 504 -200 463 -290 504 -251 b 344 -107 504 -144 460 -107 l 351 -19 b 69 356 190 -4 69 122 b 385 743 69 617 215 743 b 668 528 535 743 644 657 l 615 528 b 386 701 597 632 507 701 b 119 353 239 701 119 589 b 385 22 119 126 242 22 b 621 204 507 22 603 99 l 672 204 b 393 -21 649 75 540 -17 l 393 -72 b 549 -199 496 -82 549 -132 "},"è":{"ha":789,"x_min":0,"x_max":0,"o":"m 699 192 b 407 -21 664 61 553 -21 b 69 361 215 -21 69 117 b 390 743 69 607 211 743 b 713 349 569 743 713 615 l 121 349 b 408 22 126 125 253 22 b 646 192 525 22 617 83 m 390 701 b 121 392 247 701 131 593 l 660 392 b 390 701 650 597 535 701 m 443 831 l 396 831 l 226 1021 l 300 1021 "},"é":{"ha":789,"x_min":0,"x_max":0,"o":"m 699 192 b 407 -21 664 61 553 -21 b 69 361 215 -21 69 117 b 390 743 69 607 211 743 b 713 349 569 743 713 615 l 121 349 b 408 22 126 125 253 22 b 646 192 525 22 617 83 m 390 701 b 121 392 247 701 131 593 l 660 392 b 390 701 650 597 535 701 m 489 1021 l 563 1021 l 393 831 l 346 831 "},"ê":{"ha":789,"x_min":0,"x_max":0,"o":"m 699 192 b 407 -21 664 61 553 -21 b 69 361 215 -21 69 117 b 390 743 69 607 211 743 b 713 349 569 743 713 615 l 121 349 b 408 22 126 125 253 22 b 646 192 525 22 617 83 m 390 701 b 121 392 247 701 131 593 l 660 392 b 390 701 650 597 535 701 m 563 831 l 515 831 l 389 988 l 264 831 l 215 831 l 360 1021 l 419 1021 "},"ë":{"ha":789,"x_min":0,"x_max":0,"o":"m 699 192 b 407 -21 664 61 553 -21 b 69 361 215 -21 69 117 b 390 743 69 607 211 743 b 713 349 569 743 713 615 l 121 349 b 408 22 126 125 253 22 b 646 192 525 22 617 83 m 390 701 b 121 392 247 701 131 593 l 660 392 b 390 701 650 597 535 701 m 222 921 l 222 1000 l 286 1000 l 286 921 m 494 921 l 494 1000 l 558 1000 l 558 921 "},"ì":{"ha":256,"x_min":0,"x_max":0,"o":"m 103 0 l 103 722 l 153 722 l 153 0 m 194 831 l 147 831 l -22 1021 l 51 1021 "},"í":{"ha":256,"x_min":0,"x_max":0,"o":"m 103 0 l 103 722 l 153 722 l 153 0 m 204 1021 l 278 1021 l 108 831 l 61 831 "},"î":{"ha":256,"x_min":0,"x_max":0,"o":"m 103 0 l 103 722 l 153 722 l 153 0 m 301 831 l 254 831 l 128 988 l 3 831 l -46 831 l 99 1021 l 158 1021 "},"ï":{"ha":256,"x_min":0,"x_max":0,"o":"m 103 0 l 103 722 l 153 722 l 153 0 m -40 921 l -40 1000 l 24 1000 l 24 921 m 232 921 l 232 1000 l 296 1000 l 296 921 "},"ð":{"ha":744,"x_min":0,"x_max":0,"o":"m 197 1007 b 436 915 271 993 357 967 l 517 1000 l 576 1000 l 472 890 b 675 435 585 804 675 664 b 361 -21 675 179 603 -21 b 69 329 178 -21 69 128 b 354 664 69 511 168 664 b 624 465 508 664 596 565 b 443 860 617 665 542 786 l 360 772 l 300 772 l 407 885 b 185 967 336 929 257 951 m 363 619 b 121 325 229 619 121 535 b 361 25 121 156 211 25 b 619 332 538 25 619 163 b 363 619 619 465 535 619 "},"ñ":{"ha":760,"x_min":0,"x_max":0,"o":"m 111 0 l 111 722 l 153 722 l 160 585 b 408 743 207 688 304 743 b 656 500 558 743 656 649 l 656 0 l 606 0 l 606 497 b 397 701 606 624 529 701 b 161 450 285 701 161 604 l 161 0 m 468 879 b 319 924 394 879 378 924 b 218 879 288 924 258 911 l 218 929 b 321 969 256 957 282 969 b 469 925 394 969 411 925 b 571 969 501 925 531 938 l 571 919 b 468 879 533 892 507 879 "},"ò":{"ha":785,"x_min":0,"x_max":0,"o":"m 121 361 b 393 21 121 135 240 21 b 664 361 550 21 664 135 b 393 701 664 589 550 701 b 121 361 236 701 121 588 m 69 361 b 393 743 69 613 208 743 b 715 361 582 743 715 611 b 396 -21 715 110 579 -21 b 69 361 211 -21 69 113 m 443 831 l 396 831 l 226 1021 l 300 1021 "},"ó":{"ha":785,"x_min":0,"x_max":0,"o":"m 121 361 b 393 21 121 135 240 21 b 664 361 550 21 664 135 b 393 701 664 589 550 701 b 121 361 236 701 121 588 m 69 361 b 393 743 69 613 208 743 b 715 361 582 743 715 611 b 396 -21 715 110 579 -21 b 69 361 211 -21 69 113 m 483 1021 l 557 1021 l 388 831 l 340 831 "},"ô":{"ha":785,"x_min":0,"x_max":0,"o":"m 121 361 b 393 21 121 135 240 21 b 664 361 550 21 664 135 b 393 701 664 589 550 701 b 121 361 236 701 121 588 m 69 361 b 393 743 69 613 208 743 b 715 361 582 743 715 611 b 396 -21 715 110 579 -21 b 69 361 211 -21 69 113 m 567 831 l 519 831 l 393 988 l 268 831 l 219 831 l 364 1021 l 424 1021 "},"õ":{"ha":785,"x_min":0,"x_max":0,"o":"m 121 361 b 393 21 121 135 240 21 b 664 361 550 21 664 135 b 393 701 664 589 550 701 b 121 361 236 701 121 588 m 69 361 b 393 743 69 613 208 743 b 715 361 582 743 715 611 b 396 -21 715 110 579 -21 b 69 361 211 -21 69 113 m 465 879 b 317 924 392 879 375 924 b 215 879 285 924 256 911 l 215 929 b 318 969 253 957 279 969 b 467 925 392 969 408 925 b 568 969 499 925 528 938 l 568 919 b 465 879 531 892 504 879 "},"ö":{"ha":785,"x_min":0,"x_max":0,"o":"m 121 361 b 393 21 121 135 240 21 b 664 361 550 21 664 135 b 393 701 664 589 550 701 b 121 361 236 701 121 588 m 69 361 b 393 743 69 613 208 743 b 715 361 582 743 715 611 b 396 -21 715 110 579 -21 b 69 361 211 -21 69 113 m 225 921 l 225 1000 l 289 1000 l 289 921 m 497 921 l 497 1000 l 561 1000 l 561 921 "},"÷":{"ha":833,"x_min":0,"x_max":0,"o":"m 382 89 l 382 178 l 451 178 l 451 89 m 382 717 l 382 806 l 451 806 l 451 717 m 694 424 l 139 424 l 139 471 l 694 471 "},"ø":{"ha":785,"x_min":0,"x_max":0,"o":"m 69 361 b 393 743 69 613 208 743 b 526 717 442 743 486 735 l 597 875 l 647 875 l 567 696 b 715 361 658 636 715 524 b 396 -21 715 110 579 -21 b 258 7 346 -21 300 -11 l 188 -153 l 138 -153 l 218 29 b 69 361 128 89 69 201 m 393 21 b 664 361 550 21 664 135 b 547 653 664 503 619 600 l 276 46 b 393 21 311 29 350 21 m 121 361 b 238 71 121 221 167 124 l 508 676 b 393 701 474 693 435 701 b 121 361 236 701 121 588 "},"ù":{"ha":753,"x_min":0,"x_max":0,"o":"m 154 722 l 154 228 b 360 21 154 90 235 21 b 592 278 489 21 592 131 l 592 722 l 642 722 l 642 0 l 600 0 l 593 129 b 349 -21 543 25 440 -21 b 104 225 210 -21 104 61 l 104 722 m 429 831 l 382 831 l 213 1021 l 286 1021 "},"ú":{"ha":753,"x_min":0,"x_max":0,"o":"m 154 722 l 154 228 b 360 21 154 90 235 21 b 592 278 489 21 592 131 l 592 722 l 642 722 l 642 0 l 600 0 l 593 129 b 349 -21 543 25 440 -21 b 104 225 210 -21 104 61 l 104 722 m 460 1021 l 533 1021 l 364 831 l 317 831 "},"û":{"ha":753,"x_min":0,"x_max":0,"o":"m 154 722 l 154 228 b 360 21 154 90 235 21 b 592 278 489 21 592 131 l 592 722 l 642 722 l 642 0 l 600 0 l 593 129 b 349 -21 543 25 440 -21 b 104 225 210 -21 104 61 l 104 722 m 547 831 l 500 831 l 374 988 l 249 831 l 200 831 l 344 1021 l 404 1021 "},"ü":{"ha":753,"x_min":0,"x_max":0,"o":"m 154 722 l 154 228 b 360 21 154 90 235 21 b 592 278 489 21 592 131 l 592 722 l 642 722 l 642 0 l 600 0 l 593 129 b 349 -21 543 25 440 -21 b 104 225 210 -21 104 61 l 104 722 m 206 921 l 206 1000 l 269 1000 l 269 921 m 478 921 l 478 1000 l 542 1000 l 542 921 "},"ý":{"ha":681,"x_min":0,"x_max":0,"o":"m 394 -4 b 206 -271 318 -217 297 -271 b 135 -257 182 -271 154 -264 l 135 -215 b 207 -229 158 -224 186 -229 b 346 0 268 -229 288 -175 l 322 0 l 28 722 l 82 722 l 360 36 l 601 722 l 653 722 m 415 1021 l 489 1021 l 319 831 l 272 831 "},"þ":{"ha":789,"x_min":0,"x_max":0,"o":"m 111 -250 l 111 1000 l 161 1000 l 161 574 b 421 743 206 672 296 743 b 719 371 594 743 719 624 b 417 -21 719 113 586 -21 b 161 144 294 -21 206 46 l 161 -250 m 668 372 b 413 701 668 599 561 701 b 156 358 289 701 156 614 b 410 21 156 131 264 21 b 668 372 554 21 668 135 "},"ÿ":{"ha":681,"x_min":0,"x_max":0,"o":"m 394 -4 b 206 -271 318 -217 297 -271 b 135 -257 182 -271 154 -264 l 135 -215 b 207 -229 158 -224 186 -229 b 346 0 268 -229 288 -175 l 322 0 l 28 722 l 82 722 l 360 36 l 601 722 l 653 722 m 178 921 l 178 1000 l 242 1000 l 242 921 m 450 921 l 450 1000 l 514 1000 l 514 921 "},"Ā":{"ha":892,"x_min":0,"x_max":0,"o":"m 821 0 l 704 296 l 186 296 l 68 0 l 14 0 l 411 1000 l 482 1000 l 878 0 m 203 340 l 688 340 l 447 953 m 286 1154 l 286 1199 l 606 1199 l 606 1154 "},"ā":{"ha":722,"x_min":0,"x_max":0,"o":"m 93 542 b 361 743 104 661 211 743 b 618 511 511 743 618 657 l 618 0 l 578 0 l 569 129 b 308 -21 526 50 442 -21 b 69 182 175 -21 69 50 b 349 411 69 303 143 376 l 568 447 l 568 521 b 358 701 568 631 489 701 b 143 542 238 701 153 635 m 568 406 l 368 372 b 121 185 176 340 121 281 b 322 22 121 75 206 22 b 568 254 443 22 568 115 m 197 918 l 197 963 l 517 963 l 517 918 "},"Ă":{"ha":892,"x_min":0,"x_max":0,"o":"m 821 0 l 704 296 l 186 296 l 68 0 l 14 0 l 411 1000 l 482 1000 l 878 0 m 203 340 l 688 340 l 447 953 m 446 1053 b 268 1236 338 1054 275 1125 l 314 1236 b 446 1093 318 1160 356 1093 b 578 1236 536 1093 574 1160 l 624 1236 b 446 1053 617 1125 554 1054 "},"ă":{"ha":722,"x_min":0,"x_max":0,"o":"m 93 542 b 361 743 104 661 211 743 b 618 511 511 743 618 657 l 618 0 l 578 0 l 569 129 b 308 -21 526 50 442 -21 b 69 182 175 -21 69 50 b 349 411 69 303 143 376 l 568 447 l 568 521 b 358 701 568 631 489 701 b 143 542 238 701 153 635 m 568 406 l 368 372 b 121 185 176 340 121 281 b 322 22 121 75 206 22 b 568 254 443 22 568 115 m 353 817 b 175 1000 244 818 182 889 l 221 1000 b 353 857 225 924 263 857 b 485 1000 443 857 481 924 l 531 1000 b 353 817 524 889 461 818 "},"Ą":{"ha":892,"x_min":0,"x_max":0,"o":"m 878 0 b 714 -178 782 -47 714 -101 b 832 -278 714 -233 753 -278 b 936 -215 890 -278 917 -258 l 986 -215 b 828 -324 960 -289 906 -324 b 664 -176 732 -324 664 -262 b 819 3 664 -99 729 -37 l 704 296 l 186 296 l 68 0 l 14 0 l 411 1000 l 482 1000 l 878 0 m 203 340 l 688 340 l 447 953 "},"ą":{"ha":722,"x_min":0,"x_max":0,"o":"m 93 542 b 361 743 104 661 211 743 b 618 511 511 743 618 657 l 618 0 b 454 -178 522 -47 454 -101 b 572 -278 454 -233 493 -278 b 676 -215 631 -278 657 -258 l 726 -215 b 568 -324 700 -289 646 -324 b 404 -176 472 -324 404 -262 b 576 11 404 -94 479 -29 l 569 129 b 308 -21 526 50 442 -21 b 69 182 175 -21 69 50 b 349 411 69 303 143 376 l 568 447 l 568 521 b 358 701 568 631 489 701 b 143 542 238 701 153 635 m 322 22 b 568 243 440 22 568 119 l 568 406 l 368 372 b 121 185 176 340 121 281 b 322 22 121 75 206 22 "},"Ć":{"ha":993,"x_min":0,"x_max":0,"o":"m 525 -21 b 76 489 260 -21 76 182 b 519 1021 76 833 272 1021 b 924 707 726 1021 889 914 l 874 707 b 519 975 836 886 701 975 b 129 489 300 975 129 800 b 525 25 129 203 300 25 b 871 324 711 25 844 133 l 922 324 b 525 -21 897 128 750 -21 m 603 1257 l 676 1257 l 507 1067 l 460 1067 "},"ć":{"ha":742,"x_min":0,"x_max":0,"o":"m 672 204 b 382 -21 649 72 535 -21 b 69 356 207 -21 69 108 b 385 743 69 617 215 743 b 668 528 535 743 644 657 l 615 528 b 386 701 597 632 507 701 b 119 353 239 701 119 589 b 385 22 119 126 242 22 b 621 204 507 22 603 99 m 492 1021 l 565 1021 l 396 831 l 349 831 "},"Ĉ":{"ha":993,"x_min":0,"x_max":0,"o":"m 525 -21 b 76 489 260 -21 76 182 b 519 1021 76 833 272 1021 b 924 707 726 1021 889 914 l 874 707 b 519 975 836 886 701 975 b 129 489 300 975 129 800 b 525 25 129 203 300 25 b 871 324 711 25 844 133 l 922 324 b 525 -21 897 128 750 -21 m 674 1067 l 626 1067 l 500 1224 l 375 1067 l 326 1067 l 471 1257 l 531 1257 "},"ĉ":{"ha":742,"x_min":0,"x_max":0,"o":"m 672 204 b 382 -21 649 72 535 -21 b 69 356 207 -21 69 108 b 385 743 69 617 215 743 b 668 528 535 743 644 657 l 615 528 b 386 701 597 632 507 701 b 119 353 239 701 119 589 b 385 22 119 126 242 22 b 621 204 507 22 603 99 m 544 831 l 497 831 l 371 988 l 246 831 l 197 831 l 342 1021 l 401 1021 "},"Ċ":{"ha":993,"x_min":0,"x_max":0,"o":"m 525 -21 b 76 489 260 -21 76 182 b 519 1021 76 833 272 1021 b 924 707 726 1021 889 914 l 874 707 b 519 975 836 886 701 975 b 129 489 300 975 129 800 b 525 25 129 203 300 25 b 871 324 711 25 844 133 l 922 324 b 525 -21 897 128 750 -21 m 488 1157 l 488 1236 l 551 1236 l 551 1157 "},"ċ":{"ha":742,"x_min":0,"x_max":0,"o":"m 672 204 b 382 -21 649 72 535 -21 b 69 356 207 -21 69 108 b 385 743 69 617 215 743 b 668 528 535 743 644 657 l 615 528 b 386 701 597 632 507 701 b 119 353 239 701 119 589 b 385 22 119 126 242 22 b 621 204 507 22 603 99 m 349 921 l 349 1000 l 413 1000 l 413 921 "},"Č":{"ha":993,"x_min":0,"x_max":0,"o":"m 525 -21 b 76 489 260 -21 76 182 b 519 1021 76 833 272 1021 b 924 707 726 1021 889 914 l 874 707 b 519 975 836 886 701 975 b 129 489 300 975 129 800 b 525 25 129 203 300 25 b 871 324 711 25 844 133 l 922 324 b 525 -21 897 128 750 -21 m 324 1257 l 371 1257 l 497 1100 l 622 1257 l 671 1257 l 526 1067 l 467 1067 "},"č":{"ha":742,"x_min":0,"x_max":0,"o":"m 672 204 b 382 -21 649 72 535 -21 b 69 356 207 -21 69 108 b 385 743 69 617 215 743 b 668 528 535 743 644 657 l 615 528 b 386 701 597 632 507 701 b 119 353 239 701 119 589 b 385 22 119 126 242 22 b 621 204 507 22 603 99 m 207 1021 l 254 1021 l 381 864 l 506 1021 l 554 1021 l 410 831 l 350 831 "},"Ď":{"ha":936,"x_min":0,"x_max":0,"o":"m 382 1000 b 860 500 661 1000 860 818 b 381 0 860 185 653 0 l 118 0 l 118 1000 m 169 954 l 169 46 l 388 46 b 807 500 626 46 807 206 b 385 954 807 796 625 954 m 233 1257 l 281 1257 l 407 1100 l 532 1257 l 581 1257 l 436 1067 l 376 1067 "},"ď":{"ha":849,"x_min":0,"x_max":0,"o":"m 638 0 l 629 153 b 369 -21 585 51 494 -21 b 69 353 208 -21 69 100 b 372 743 69 615 208 743 b 628 579 492 743 583 676 l 628 1000 l 678 1000 l 678 0 m 121 354 b 378 21 121 126 236 21 b 633 364 499 21 633 108 b 379 701 633 592 522 701 b 121 354 240 701 121 590 m 835 915 b 729 763 835 831 801 788 l 729 796 b 788 911 774 817 788 849 l 765 911 l 765 1000 l 835 1000 "},"Đ":{"ha":936,"x_min":0,"x_max":0,"o":"m 118 503 l 35 503 l 35 549 l 118 549 l 118 1000 l 382 1000 b 860 500 661 1000 860 818 b 381 0 860 185 653 0 l 118 0 m 500 503 l 169 503 l 169 46 l 388 46 b 807 500 626 46 807 206 b 385 954 807 796 625 954 l 169 954 l 169 549 l 500 549 "},"đ":{"ha":789,"x_min":0,"x_max":0,"o":"m 638 0 l 629 153 b 369 -21 585 51 494 -21 b 69 353 208 -21 69 100 b 372 743 69 615 208 743 b 628 579 492 743 583 676 l 628 861 l 371 861 l 371 904 l 628 904 l 628 1000 l 678 1000 l 678 904 l 747 904 l 747 861 l 678 861 l 678 0 m 121 354 b 378 21 121 126 236 21 b 633 364 499 21 633 108 b 379 701 633 592 522 701 b 121 354 240 701 121 590 "},"Ē":{"ha":779,"x_min":0,"x_max":0,"o":"m 656 486 l 169 486 l 169 46 l 696 46 l 696 0 l 118 0 l 118 1000 l 696 1000 l 696 954 l 169 954 l 169 532 l 656 532 m 242 1154 l 242 1199 l 561 1199 l 561 1154 "},"ē":{"ha":789,"x_min":0,"x_max":0,"o":"m 699 192 b 407 -21 664 61 553 -21 b 69 361 215 -21 69 117 b 390 743 69 607 211 743 b 713 349 569 743 713 615 l 121 349 b 408 22 126 125 253 22 b 646 192 525 22 617 83 m 390 701 b 121 392 247 701 131 593 l 660 392 b 390 701 650 597 535 701 m 229 918 l 229 963 l 549 963 l 549 918 "},"Ė":{"ha":779,"x_min":0,"x_max":0,"o":"m 656 486 l 169 486 l 169 46 l 696 46 l 696 0 l 118 0 l 118 1000 l 696 1000 l 696 954 l 169 954 l 169 532 l 656 532 m 368 1157 l 368 1236 l 432 1236 l 432 1157 "},"ė":{"ha":789,"x_min":0,"x_max":0,"o":"m 699 192 b 407 -21 664 61 553 -21 b 69 361 215 -21 69 117 b 390 743 69 607 211 743 b 713 349 569 743 713 615 l 121 349 b 408 22 126 125 253 22 b 646 192 525 22 617 83 m 390 701 b 121 392 247 701 131 593 l 660 392 b 390 701 650 597 535 701 m 356 921 l 356 1000 l 419 1000 l 419 921 "},"Ę":{"ha":779,"x_min":0,"x_max":0,"o":"m 656 486 l 169 486 l 169 46 l 696 46 l 696 0 l 538 0 b 369 -183 440 -49 369 -104 b 476 -285 369 -250 411 -285 b 590 -207 535 -285 574 -254 l 639 -207 b 474 -326 615 -283 547 -326 b 324 -187 385 -326 324 -274 b 478 0 324 -111 389 -44 l 118 0 l 118 1000 l 696 1000 l 696 954 l 169 954 l 169 532 l 656 532 "},"ę":{"ha":789,"x_min":0,"x_max":0,"o":"m 624 -207 b 458 -326 600 -283 532 -326 b 308 -187 369 -326 308 -274 b 426 -19 308 -122 357 -62 b 407 -21 419 -21 414 -21 b 69 361 215 -21 69 117 b 390 743 69 607 211 743 b 713 349 569 743 713 615 l 121 349 b 408 22 126 125 253 22 b 646 192 525 22 617 83 l 699 192 b 579 25 679 118 636 60 b 511 -4 558 13 536 3 b 354 -183 419 -51 354 -107 b 461 -285 354 -250 396 -285 b 575 -207 519 -285 558 -254 m 390 701 b 121 392 247 701 131 593 l 660 392 b 390 701 650 597 535 701 "},"Ě":{"ha":779,"x_min":0,"x_max":0,"o":"m 656 486 l 169 486 l 169 46 l 696 46 l 696 0 l 118 0 l 118 1000 l 696 1000 l 696 954 l 169 954 l 169 532 l 656 532 m 233 1257 l 281 1257 l 407 1100 l 532 1257 l 581 1257 l 436 1067 l 376 1067 "},"ě":{"ha":789,"x_min":0,"x_max":0,"o":"m 699 192 b 407 -21 664 61 553 -21 b 69 361 215 -21 69 117 b 390 743 69 607 211 743 b 713 349 569 743 713 615 l 121 349 b 408 22 126 125 253 22 b 646 192 525 22 617 83 m 390 701 b 121 392 247 701 131 593 l 660 392 b 390 701 650 597 535 701 m 222 1021 l 269 1021 l 396 864 l 521 1021 l 569 1021 l 425 831 l 365 831 "},"Ĝ":{"ha":1011,"x_min":0,"x_max":0,"o":"m 904 0 l 867 0 l 860 183 b 525 -21 800 56 676 -21 b 76 499 281 -21 76 157 b 518 1021 76 840 271 1021 b 908 736 722 1021 865 919 l 856 736 b 518 975 813 896 692 975 b 129 499 317 975 129 822 b 525 25 129 188 315 25 b 860 326 708 25 860 154 l 860 474 l 522 474 l 522 519 l 904 519 m 678 1067 l 631 1067 l 504 1224 l 379 1067 l 331 1067 l 475 1257 l 535 1257 "},"ĝ":{"ha":789,"x_min":0,"x_max":0,"o":"m 153 -75 b 386 -229 174 -183 271 -229 b 628 0 536 -229 628 -137 l 628 185 b 371 28 583 93 494 28 b 69 379 213 28 69 150 b 372 743 69 615 207 743 b 629 583 490 743 585 681 l 638 722 l 678 722 l 678 0 b 388 -271 678 -154 568 -271 b 100 -75 235 -271 126 -203 m 121 381 b 379 69 121 176 236 69 b 633 385 504 69 633 144 b 378 701 633 603 521 701 b 121 381 239 701 121 600 m 558 831 l 511 831 l 385 988 l 260 831 l 211 831 l 356 1021 l 415 1021 "},"Ğ":{"ha":1011,"x_min":0,"x_max":0,"o":"m 904 0 l 867 0 l 860 183 b 525 -21 800 56 676 -21 b 76 499 281 -21 76 157 b 518 1021 76 840 271 1021 b 908 736 722 1021 865 919 l 856 736 b 518 975 813 896 692 975 b 129 499 317 975 129 822 b 525 25 129 188 315 25 b 860 326 708 25 860 154 l 860 474 l 522 474 l 522 519 l 904 519 m 507 1053 b 329 1236 399 1054 336 1125 l 375 1236 b 507 1093 379 1160 417 1093 b 639 1236 597 1093 635 1160 l 685 1236 b 507 1053 678 1125 615 1054 "},"ğ":{"ha":789,"x_min":0,"x_max":0,"o":"m 153 -75 b 386 -229 174 -183 271 -229 b 628 0 536 -229 628 -137 l 628 185 b 371 28 583 93 494 28 b 69 379 213 28 69 150 b 372 743 69 615 207 743 b 629 583 490 743 585 681 l 638 722 l 678 722 l 678 0 b 388 -271 678 -154 568 -271 b 100 -75 235 -271 126 -203 m 121 381 b 379 69 121 176 236 69 b 633 385 504 69 633 144 b 378 701 633 603 521 701 b 121 381 239 701 121 600 m 381 817 b 203 1000 272 818 210 889 l 249 1000 b 381 857 253 924 290 857 b 513 1000 471 857 508 924 l 558 1000 b 381 817 551 889 489 818 "},"Ġ":{"ha":1011,"x_min":0,"x_max":0,"o":"m 904 0 l 867 0 l 860 183 b 525 -21 800 56 676 -21 b 76 499 281 -21 76 157 b 518 1021 76 840 271 1021 b 908 736 722 1021 865 919 l 856 736 b 518 975 813 896 692 975 b 129 499 317 975 129 822 b 525 25 129 188 315 25 b 860 326 708 25 860 154 l 860 474 l 522 474 l 522 519 l 904 519 m 472 1157 l 472 1236 l 536 1236 l 536 1157 "},"ġ":{"ha":789,"x_min":0,"x_max":0,"o":"m 153 -75 b 386 -229 174 -183 271 -229 b 628 0 536 -229 628 -137 l 628 185 b 371 28 583 93 494 28 b 69 379 213 28 69 150 b 372 743 69 615 207 743 b 629 583 490 743 585 681 l 638 722 l 678 722 l 678 0 b 388 -271 678 -154 568 -271 b 100 -75 235 -271 126 -203 m 121 381 b 379 69 121 176 236 69 b 633 385 504 69 633 144 b 378 701 633 603 521 701 b 121 381 239 701 121 600 m 343 921 l 343 1000 l 407 1000 l 407 921 "},"Ģ":{"ha":1011,"x_min":0,"x_max":0,"o":"m 904 0 l 867 0 l 860 183 b 525 -21 800 56 676 -21 b 76 499 281 -21 76 157 b 518 1021 76 840 271 1021 b 908 736 722 1021 865 919 l 856 736 b 518 975 813 896 692 975 b 129 499 317 975 129 822 b 525 25 129 188 315 25 b 860 326 708 25 860 154 l 860 474 l 522 474 l 522 519 l 904 519 m 547 -210 b 442 -372 547 -297 514 -347 l 442 -340 b 503 -214 486 -319 503 -276 l 483 -214 l 483 -125 l 547 -125 "},"ģ":{"ha":789,"x_min":0,"x_max":0,"o":"m 153 -75 b 386 -229 174 -183 271 -229 b 628 0 536 -229 628 -137 l 628 185 b 371 28 583 93 494 28 b 69 379 213 28 69 150 b 372 743 69 615 207 743 b 629 583 490 743 585 681 l 638 722 l 678 722 l 678 0 b 388 -271 678 -154 568 -271 b 100 -75 235 -271 126 -203 m 121 381 b 379 69 121 176 236 69 b 633 385 504 69 633 144 b 378 701 633 603 521 701 b 121 381 239 701 121 600 m 328 932 b 433 1099 328 1022 361 1074 l 433 1065 b 375 936 389 1044 375 999 l 397 936 l 397 847 l 328 847 "},"Ĥ":{"ha":939,"x_min":0,"x_max":0,"o":"m 821 1000 l 821 0 l 769 0 l 769 488 l 169 488 l 169 0 l 118 0 l 118 1000 l 169 1000 l 169 535 l 769 535 l 769 1000 m 643 1067 l 596 1067 l 469 1224 l 344 1067 l 296 1067 l 440 1257 l 500 1257 "},"ĥ":{"ha":760,"x_min":0,"x_max":0,"o":"m 111 0 l 111 1000 l 161 1000 l 161 586 b 408 743 207 688 304 743 b 656 500 558 743 656 649 l 656 0 l 606 0 l 606 497 b 397 701 606 624 529 701 b 161 449 285 701 161 603 l 161 0 m 476 1067 l 429 1067 l 303 1224 l 178 1067 l 129 1067 l 274 1257 l 333 1257 "},"Ħ":{"ha":939,"x_min":0,"x_max":0,"o":"m 169 1000 l 169 840 l 769 840 l 769 1000 l 821 1000 l 821 840 l 904 840 l 904 797 l 821 797 l 821 0 l 769 0 l 769 488 l 169 488 l 169 0 l 118 0 l 118 797 l 35 797 l 35 840 l 118 840 l 118 1000 m 769 535 l 769 797 l 169 797 l 169 535 "},"ħ":{"ha":760,"x_min":0,"x_max":0,"o":"m 111 0 l 111 861 l 36 861 l 36 904 l 111 904 l 111 1000 l 161 1000 l 161 904 l 413 904 l 413 861 l 161 861 l 161 586 b 408 743 207 688 304 743 b 656 500 558 743 656 649 l 656 0 l 606 0 l 606 497 b 397 701 606 624 529 701 b 161 450 285 701 161 604 l 161 0 "},"Ĩ":{"ha":288,"x_min":0,"x_max":0,"o":"m 169 1000 l 169 0 l 118 0 l 118 1000 m 217 1115 b 68 1160 143 1115 126 1160 b -33 1115 36 1160 7 1147 l -33 1165 b 69 1206 4 1193 31 1206 b 218 1161 143 1206 160 1161 b 319 1206 250 1161 279 1174 l 319 1156 b 217 1115 282 1128 256 1115 "},"ĩ":{"ha":256,"x_min":0,"x_max":0,"o":"m 103 0 l 103 722 l 153 722 l 153 0 m 201 879 b 53 924 128 879 111 924 b -49 879 21 924 -8 911 l -49 929 b 54 969 -11 957 15 969 b 203 925 128 969 144 925 b 304 969 235 925 264 938 l 304 919 b 201 879 267 892 240 879 "},"Ī":{"ha":288,"x_min":0,"x_max":0,"o":"m 169 1000 l 169 0 l 118 0 l 118 1000 m -17 1154 l -17 1199 l 303 1199 l 303 1154 "},"ī":{"ha":256,"x_min":0,"x_max":0,"o":"m 103 0 l 103 722 l 153 722 l 153 0 m -32 918 l -32 963 l 288 963 l 288 918 "},"Į":{"ha":288,"x_min":0,"x_max":0,"o":"m 269 -207 b 104 -326 246 -283 178 -326 b -46 -187 15 -326 -46 -274 b 118 4 -46 -108 25 -39 l 118 1000 l 169 1000 l 169 0 b 0 -183 72 -49 0 -104 b 107 -285 0 -250 42 -285 b 221 -207 165 -285 204 -254 "},"į":{"ha":256,"x_min":0,"x_max":0,"o":"m 251 -207 b 86 -326 228 -283 160 -326 b -64 -187 -3 -326 -64 -274 b 103 6 -64 -108 8 -37 l 103 722 l 153 722 l 153 0 b -18 -183 56 -49 -18 -104 b 89 -285 -18 -250 24 -285 b 203 -207 147 -285 186 -254 m 96 921 l 96 1000 l 160 1000 l 160 921 "},"İ":{"ha":288,"x_min":0,"x_max":0,"o":"m 169 1000 l 169 0 l 118 0 l 118 1000 m 111 1157 l 111 1236 l 175 1236 l 175 1157 "},"ı":{"ha":256,"x_min":0,"x_max":0,"o":"m 103 0 l 103 722 l 153 722 l 153 0 "},"Ĵ":{"ha":718,"x_min":0,"x_max":0,"o":"m 99 258 b 331 25 106 107 197 25 b 556 272 469 25 556 111 l 556 1000 l 607 1000 l 607 274 b 331 -21 607 99 501 -21 b 49 258 158 -21 56 90 m 747 1067 l 700 1067 l 574 1224 l 449 1067 l 400 1067 l 544 1257 l 604 1257 "},"ĵ":{"ha":256,"x_min":0,"x_max":0,"o":"m -82 -211 b 8 -226 -53 -221 -15 -226 b 103 -104 69 -226 103 -193 l 103 722 l 153 722 l 153 -107 b 15 -271 153 -215 103 -271 b -82 -256 -15 -271 -47 -267 m 300 831 l 253 831 l 126 988 l 1 831 l -47 831 l 97 1021 l 157 1021 "},"Ķ":{"ha":806,"x_min":0,"x_max":0,"o":"m 715 0 l 169 500 l 169 0 l 118 0 l 118 1000 l 169 1000 l 169 526 l 682 1000 l 744 1000 l 226 517 l 785 0 m 439 -210 b 333 -372 439 -297 406 -347 l 333 -340 b 394 -214 378 -319 394 -276 l 375 -214 l 375 -125 l 439 -125 "},"ķ":{"ha":658,"x_min":0,"x_max":0,"o":"m 111 0 l 111 1000 l 161 1000 l 161 422 l 533 722 l 603 722 l 213 407 l 651 0 l 583 0 l 161 389 l 161 0 m 379 -210 b 274 -372 379 -297 346 -347 l 274 -340 b 335 -214 318 -319 335 -276 l 315 -214 l 315 -125 l 379 -125 "},"ĸ":{"ha":658,"x_min":0,"x_max":0,"o":"m 111 0 l 111 722 l 161 722 l 161 390 l 540 722 l 603 722 l 213 379 l 651 0 l 585 0 l 161 364 l 161 0 "},"Ĺ":{"ha":758,"x_min":0,"x_max":0,"o":"m 169 1000 l 169 46 l 696 46 l 696 0 l 118 0 l 118 1000 m 225 1257 l 299 1257 l 129 1067 l 82 1067 "},"ĺ":{"ha":272,"x_min":0,"x_max":0,"o":"m 161 0 l 111 0 l 111 1000 l 161 1000 m 213 1257 l 286 1257 l 117 1067 l 69 1067 "},"Ļ":{"ha":758,"x_min":0,"x_max":0,"o":"m 169 1000 l 169 46 l 696 46 l 696 0 l 118 0 l 118 1000 m 426 -210 b 321 -372 426 -297 393 -347 l 321 -340 b 382 -214 365 -319 382 -276 l 363 -214 l 363 -125 l 426 -125 "},"ļ":{"ha":272,"x_min":0,"x_max":0,"o":"m 161 0 l 111 0 l 111 1000 l 161 1000 m 171 -210 b 65 -372 171 -297 138 -347 l 65 -340 b 126 -214 110 -319 126 -276 l 107 -214 l 107 -125 l 171 -125 "},"Ľ":{"ha":758,"x_min":0,"x_max":0,"o":"m 169 1000 l 169 46 l 696 46 l 696 0 l 118 0 l 118 1000 m 394 915 b 289 763 394 831 361 788 l 289 796 b 347 911 333 817 347 849 l 325 911 l 325 1000 l 394 1000 "},"ľ":{"ha":272,"x_min":0,"x_max":0,"o":"m 161 0 l 111 0 l 111 1000 l 161 1000 m 322 915 b 217 763 322 831 289 788 l 217 796 b 275 911 261 817 275 849 l 253 911 l 253 1000 l 322 1000 "},"Ł":{"ha":758,"x_min":0,"x_max":0,"o":"m 169 1000 l 169 543 l 386 675 l 386 618 l 169 486 l 169 49 l 696 49 l 696 0 l 118 0 l 118 456 l 33 404 l 33 461 l 118 513 l 118 1000 "},"ł":{"ha":272,"x_min":0,"x_max":0,"o":"m 161 574 l 268 642 l 268 586 l 161 518 l 161 0 l 111 0 l 111 486 l 4 418 l 4 474 l 111 542 l 111 1000 l 161 1000 "},"Ń":{"ha":985,"x_min":0,"x_max":0,"o":"m 867 1000 l 867 0 l 813 0 l 168 928 l 168 0 l 118 0 l 118 1000 l 175 1000 l 819 79 l 819 1000 m 571 1257 l 644 1257 l 475 1067 l 428 1067 "},"ń":{"ha":760,"x_min":0,"x_max":0,"o":"m 111 0 l 111 722 l 153 722 l 160 585 b 408 743 207 688 304 743 b 656 500 558 743 656 649 l 656 0 l 606 0 l 606 497 b 397 701 606 624 529 701 b 161 450 285 701 161 604 l 161 0 m 471 1021 l 544 1021 l 375 831 l 328 831 "},"Ņ":{"ha":985,"x_min":0,"x_max":0,"o":"m 867 1000 l 867 0 l 813 0 l 168 928 l 168 0 l 118 0 l 118 1000 l 175 1000 l 819 79 l 819 1000 m 533 -210 b 428 -372 533 -297 500 -347 l 428 -340 b 489 -214 472 -319 489 -276 l 469 -214 l 469 -125 l 533 -125 "},"ņ":{"ha":760,"x_min":0,"x_max":0,"o":"m 111 0 l 111 722 l 153 722 l 160 585 b 408 743 207 688 304 743 b 656 500 558 743 656 649 l 656 0 l 606 0 l 606 497 b 397 701 606 624 529 701 b 161 450 285 701 161 604 l 161 0 m 429 -210 b 324 -372 429 -297 396 -347 l 324 -340 b 385 -214 368 -319 385 -276 l 365 -214 l 365 -125 l 429 -125 "},"Ň":{"ha":985,"x_min":0,"x_max":0,"o":"m 867 1000 l 867 0 l 813 0 l 168 928 l 168 0 l 118 0 l 118 1000 l 175 1000 l 819 79 l 819 1000 m 336 1257 l 383 1257 l 510 1100 l 635 1257 l 683 1257 l 539 1067 l 479 1067 "},"ň":{"ha":760,"x_min":0,"x_max":0,"o":"m 111 0 l 111 722 l 153 722 l 160 585 b 408 743 207 688 304 743 b 656 500 558 743 656 649 l 656 0 l 606 0 l 606 497 b 397 701 606 624 529 701 b 161 450 285 701 161 604 l 161 0 m 218 1021 l 265 1021 l 392 864 l 517 1021 l 565 1021 l 421 831 l 361 831 "},"Ŋ":{"ha":985,"x_min":0,"x_max":0,"o":"m 633 -211 b 724 -226 663 -221 700 -226 b 819 -104 785 -226 819 -193 l 819 -4 l 168 928 l 168 0 l 118 0 l 118 1000 l 175 1000 l 819 83 l 819 1000 l 867 1000 l 867 -107 b 731 -271 867 -215 818 -271 b 633 -256 700 -271 668 -267 "},"ŋ":{"ha":760,"x_min":0,"x_max":0,"o":"m 111 0 l 111 722 l 153 722 l 160 585 b 408 743 207 688 304 743 b 656 500 558 743 656 649 l 656 -107 b 518 -271 656 -215 606 -271 b 421 -256 488 -271 456 -267 l 421 -211 b 511 -226 450 -221 488 -226 b 606 -104 572 -226 606 -193 l 606 497 b 397 701 606 624 529 701 b 161 451 285 701 161 606 l 161 0 "},"Ō":{"ha":1033,"x_min":0,"x_max":0,"o":"m 517 25 b 904 499 721 25 904 172 b 517 975 904 808 735 975 b 129 499 299 975 129 808 b 517 25 129 179 313 25 m 517 -21 b 76 499 272 -21 76 165 b 517 1021 76 835 274 1021 b 957 499 760 1021 957 835 b 517 -21 957 158 761 -21 m 356 1154 l 356 1199 l 675 1199 l 675 1154 "},"ō":{"ha":785,"x_min":0,"x_max":0,"o":"m 121 361 b 393 21 121 135 240 21 b 664 361 550 21 664 135 b 393 701 664 589 550 701 b 121 361 236 701 121 588 m 69 361 b 393 743 69 613 208 743 b 715 361 582 743 715 611 b 396 -21 715 110 579 -21 b 69 361 211 -21 69 113 m 232 918 l 232 963 l 551 963 l 551 918 "},"Ő":{"ha":1033,"x_min":0,"x_max":0,"o":"m 517 25 b 904 499 721 25 904 172 b 517 975 904 808 735 975 b 129 499 299 975 129 808 b 517 25 129 179 313 25 m 517 -21 b 76 499 272 -21 76 165 b 517 1021 76 835 274 1021 b 957 499 760 1021 957 835 b 517 -21 957 158 761 -21 m 485 1257 l 556 1257 l 425 1067 l 381 1067 m 697 1257 l 768 1257 l 638 1067 l 593 1067 "},"ő":{"ha":785,"x_min":0,"x_max":0,"o":"m 121 361 b 393 21 121 135 240 21 b 664 361 550 21 664 135 b 393 701 664 589 550 701 b 121 361 236 701 121 588 m 69 361 b 393 743 69 613 208 743 b 715 361 582 743 715 611 b 396 -21 715 110 579 -21 b 69 361 211 -21 69 113 m 365 1021 l 436 1021 l 306 831 l 261 831 m 578 1021 l 649 1021 l 518 831 l 474 831 "},"Œ":{"ha":1288,"x_min":0,"x_max":0,"o":"m 1204 0 l 654 0 b 517 -14 613 -10 563 -14 b 76 503 267 -14 76 171 b 524 1021 76 843 275 1021 b 658 1000 569 1021 615 1013 l 1204 1000 l 1204 954 l 706 954 l 706 532 l 1164 532 l 1164 486 l 706 486 l 706 46 l 1204 46 m 517 32 b 654 49 561 32 613 36 l 654 954 b 524 975 614 968 569 975 b 129 503 300 975 129 808 b 517 32 129 185 306 32 "},"œ":{"ha":1382,"x_min":0,"x_max":0,"o":"m 713 349 b 1000 22 719 124 864 22 b 1238 199 1103 22 1206 79 l 1290 199 b 999 -21 1254 61 1136 -21 b 689 208 868 -21 742 63 b 396 -21 644 72 538 -21 b 69 361 211 -21 69 119 b 393 743 69 606 208 743 b 689 517 538 743 644 651 b 982 743 740 658 861 743 b 1304 349 1139 743 1301 638 m 121 361 b 393 21 121 142 240 21 b 664 361 543 21 664 139 b 393 701 664 583 544 701 b 121 361 236 701 121 581 m 982 701 b 713 392 846 701 724 586 l 1251 392 b 982 701 1242 592 1131 701 "},"Ŕ":{"ha":860,"x_min":0,"x_max":0,"o":"m 768 0 l 489 424 l 169 424 l 169 0 l 118 0 l 118 1000 l 467 1000 b 799 707 681 1000 799 889 b 544 431 799 564 690 464 l 832 0 m 169 954 l 169 469 l 464 469 b 744 707 638 469 744 569 b 471 954 744 863 649 954 m 499 1257 l 572 1257 l 403 1067 l 356 1067 "},"ŕ":{"ha":464,"x_min":0,"x_max":0,"o":"m 111 0 l 111 722 l 151 722 l 160 569 b 371 743 197 690 276 743 b 443 732 397 743 426 738 l 443 683 b 367 696 419 690 394 696 b 161 408 256 696 161 579 l 161 0 m 368 1021 l 442 1021 l 272 831 l 225 831 "},"Ŗ":{"ha":860,"x_min":0,"x_max":0,"o":"m 768 0 l 489 424 l 169 424 l 169 0 l 118 0 l 118 1000 l 467 1000 b 799 707 681 1000 799 889 b 544 431 799 564 690 464 l 832 0 m 169 954 l 169 469 l 464 469 b 744 707 638 469 744 569 b 471 954 744 863 649 954 m 453 -210 b 347 -372 453 -297 419 -347 l 347 -340 b 408 -214 392 -319 408 -276 l 389 -214 l 389 -125 l 453 -125 "},"ŗ":{"ha":464,"x_min":0,"x_max":0,"o":"m 111 0 l 111 722 l 151 722 l 160 569 b 371 743 197 690 276 743 b 443 732 397 743 426 738 l 443 683 b 367 696 419 690 394 696 b 161 408 256 696 161 579 l 161 0 m 171 -210 b 65 -372 171 -297 138 -347 l 65 -340 b 126 -214 110 -319 126 -276 l 107 -214 l 107 -125 l 171 -125 "},"Ř":{"ha":860,"x_min":0,"x_max":0,"o":"m 768 0 l 489 424 l 169 424 l 169 0 l 118 0 l 118 1000 l 467 1000 b 799 707 681 1000 799 889 b 544 431 799 564 690 464 l 832 0 m 169 954 l 169 469 l 464 469 b 744 707 638 469 744 569 b 471 954 744 863 649 954 m 221 1257 l 268 1257 l 394 1100 l 519 1257 l 568 1257 l 424 1067 l 364 1067 "},"ř":{"ha":464,"x_min":0,"x_max":0,"o":"m 111 0 l 111 722 l 151 722 l 160 569 b 371 743 197 690 276 743 b 443 732 397 743 426 738 l 443 683 b 367 696 419 690 394 696 b 161 408 256 696 161 579 l 161 0 m 90 1021 l 138 1021 l 264 864 l 389 1021 l 438 1021 l 293 831 l 233 831 "},"Ś":{"ha":893,"x_min":0,"x_max":0,"o":"m 447 26 b 760 250 649 26 760 113 b 419 508 760 383 690 454 b 108 779 196 553 108 639 b 447 1021 108 921 224 1021 b 817 781 638 1021 782 931 l 764 781 b 450 975 733 901 615 975 b 161 783 256 975 161 896 b 454 550 161 665 224 597 b 813 251 717 496 813 410 b 446 -21 813 94 685 -21 b 63 244 243 -21 97 72 l 117 244 b 447 26 147 96 281 26 m 532 1257 l 606 1257 l 436 1067 l 389 1067 "},"ś":{"ha":682,"x_min":0,"x_max":0,"o":"m 560 189 b 311 360 560 285 490 332 b 78 557 175 381 78 440 b 333 743 78 658 161 743 b 610 549 479 743 589 665 l 557 549 b 329 701 546 635 453 701 b 129 561 192 701 129 636 b 346 400 129 472 185 428 b 613 190 538 367 613 306 b 338 -21 613 82 510 -21 b 56 185 172 -21 74 65 l 108 185 b 339 22 118 90 206 22 b 560 189 482 22 560 103 m 436 1021 l 510 1021 l 340 831 l 293 831 "},"Ŝ":{"ha":893,"x_min":0,"x_max":0,"o":"m 447 26 b 760 250 649 26 760 113 b 419 508 760 383 690 454 b 108 779 196 553 108 639 b 447 1021 108 921 224 1021 b 817 781 638 1021 782 931 l 764 781 b 450 975 733 901 615 975 b 161 783 256 975 161 896 b 454 550 161 665 224 597 b 813 251 717 496 813 410 b 446 -21 813 94 685 -21 b 63 244 243 -21 97 72 l 117 244 b 447 26 147 96 281 26 m 614 1067 l 567 1067 l 440 1224 l 315 1067 l 267 1067 l 411 1257 l 471 1257 "},"ŝ":{"ha":682,"x_min":0,"x_max":0,"o":"m 560 189 b 311 360 560 285 490 332 b 78 557 175 381 78 440 b 333 743 78 658 161 743 b 610 549 479 743 589 665 l 557 549 b 329 701 546 635 453 701 b 129 561 192 701 129 636 b 346 400 129 472 185 428 b 613 190 538 367 613 306 b 338 -21 613 82 510 -21 b 56 185 172 -21 74 65 l 108 185 b 339 22 118 90 206 22 b 560 189 482 22 560 103 m 503 831 l 456 831 l 329 988 l 204 831 l 156 831 l 300 1021 l 360 1021 "},"Ş":{"ha":893,"x_min":0,"x_max":0,"o":"m 633 -199 b 483 -331 633 -271 571 -331 b 326 -217 401 -331 338 -292 l 372 -217 b 485 -290 378 -265 425 -290 b 589 -200 547 -290 589 -251 b 429 -107 589 -144 544 -107 l 435 -21 b 63 244 238 -18 96 75 l 117 244 b 447 26 147 96 281 26 b 760 250 649 26 760 113 b 419 508 760 383 690 454 b 108 779 196 553 108 639 b 447 1021 108 921 224 1021 b 817 781 638 1021 782 931 l 764 781 b 450 975 733 901 615 975 b 161 783 256 975 161 896 b 454 550 161 665 224 597 b 813 251 717 496 813 410 b 478 -19 813 101 696 -10 l 478 -72 b 633 -199 581 -82 633 -132 "},"ş":{"ha":682,"x_min":0,"x_max":0,"o":"m 517 -199 b 367 -331 517 -271 454 -331 b 210 -217 285 -331 221 -292 l 256 -217 b 368 -290 261 -265 308 -290 b 472 -200 431 -290 472 -251 b 313 -107 472 -144 428 -107 l 318 -19 b 56 185 164 -14 72 69 l 108 185 b 339 22 118 90 206 22 b 560 189 482 22 560 103 b 311 360 560 285 490 332 b 78 557 175 381 78 440 b 333 743 78 658 161 743 b 610 549 479 743 589 665 l 557 549 b 329 701 546 635 453 701 b 129 561 192 701 129 636 b 346 400 129 472 185 428 b 613 190 538 367 613 306 b 361 -19 613 86 518 -11 l 361 -72 b 517 -199 464 -82 517 -132 "},"Š":{"ha":893,"x_min":0,"x_max":0,"o":"m 447 26 b 760 250 649 26 760 113 b 419 508 760 383 690 454 b 108 779 196 553 108 639 b 447 1021 108 921 224 1021 b 817 781 638 1021 782 931 l 764 781 b 450 975 733 901 615 975 b 161 783 256 975 161 896 b 454 550 161 665 224 597 b 813 251 717 496 813 410 b 446 -21 813 94 685 -21 b 63 244 243 -21 97 72 l 117 244 b 447 26 147 96 281 26 m 263 1257 l 310 1257 l 436 1100 l 561 1257 l 610 1257 l 465 1067 l 406 1067 "},"š":{"ha":682,"x_min":0,"x_max":0,"o":"m 560 189 b 311 360 560 285 490 332 b 78 557 175 381 78 440 b 333 743 78 658 161 743 b 610 549 479 743 589 665 l 557 549 b 329 701 546 635 453 701 b 129 561 192 701 129 636 b 346 400 129 472 185 428 b 613 190 538 367 613 306 b 338 -21 613 82 510 -21 b 56 185 172 -21 74 65 l 108 185 b 339 22 118 90 206 22 b 560 189 482 22 560 103 m 160 1021 l 207 1021 l 333 864 l 458 1021 l 507 1021 l 363 831 l 303 831 "},"Ţ":{"ha":782,"x_min":0,"x_max":0,"o":"m 754 954 l 417 954 l 417 0 l 365 0 l 365 954 l 28 954 l 28 1000 l 754 1000 m 425 -210 b 319 -372 425 -297 392 -347 l 319 -340 b 381 -214 364 -319 381 -276 l 361 -214 l 361 -125 l 425 -125 "},"ţ":{"ha":408,"x_min":0,"x_max":0,"o":"m 189 679 l 189 132 b 292 21 189 56 229 21 b 381 33 318 21 344 24 l 381 -8 b 292 -21 349 -17 319 -21 b 139 133 199 -21 139 29 l 139 679 l 35 679 l 35 722 l 139 722 l 144 896 l 189 896 l 189 722 l 361 722 l 361 679 m 254 -210 b 149 -372 254 -297 221 -347 l 149 -340 b 210 -214 193 -319 210 -276 l 190 -214 l 190 -125 l 254 -125 "},"Ť":{"ha":782,"x_min":0,"x_max":0,"o":"m 754 954 l 417 954 l 417 0 l 365 0 l 365 954 l 28 954 l 28 1000 l 754 1000 m 217 1257 l 264 1257 l 390 1100 l 515 1257 l 564 1257 l 419 1067 l 360 1067 "},"ť":{"ha":446,"x_min":0,"x_max":0,"o":"m 432 915 b 326 763 432 831 399 788 l 326 796 b 385 911 371 817 385 849 l 363 911 l 363 1000 l 432 1000 m 189 679 l 189 132 b 292 21 189 56 229 21 b 381 33 318 21 344 24 l 381 -8 b 292 -21 349 -17 319 -21 b 139 133 199 -21 139 29 l 139 679 l 35 679 l 35 722 l 139 722 l 144 896 l 189 896 l 189 722 l 361 722 l 361 679 "},"Ŧ":{"ha":782,"x_min":0,"x_max":0,"o":"m 754 954 l 417 954 l 417 590 l 589 590 l 589 544 l 417 544 l 417 0 l 365 0 l 365 544 l 193 544 l 193 590 l 365 590 l 365 954 l 28 954 l 28 1000 l 754 1000 "},"ŧ":{"ha":408,"x_min":0,"x_max":0,"o":"m 189 132 b 292 21 189 56 229 21 b 381 33 318 21 344 24 l 381 -8 b 292 -21 349 -17 319 -21 b 139 133 199 -21 139 29 l 139 486 l 46 486 l 46 529 l 139 529 l 139 679 l 35 679 l 35 722 l 139 722 l 144 896 l 189 896 l 189 722 l 361 722 l 361 679 l 189 679 l 189 529 l 349 529 l 349 486 l 189 486 "},"Ũ":{"ha":972,"x_min":0,"x_max":0,"o":"m 486 -21 b 111 326 246 -21 111 140 l 111 1000 l 161 1000 l 161 325 b 486 25 161 149 301 25 b 811 325 669 25 811 149 l 811 1000 l 861 1000 l 861 326 b 486 -21 861 140 722 -21 m 560 1115 b 411 1160 486 1115 469 1160 b 310 1115 379 1160 350 1147 l 310 1165 b 413 1206 347 1193 374 1206 b 561 1161 486 1206 503 1161 b 663 1206 593 1161 622 1174 l 663 1156 b 560 1115 625 1128 599 1115 "},"ũ":{"ha":753,"x_min":0,"x_max":0,"o":"m 154 722 l 154 228 b 360 21 154 90 235 21 b 592 278 489 21 592 131 l 592 722 l 642 722 l 642 0 l 600 0 l 593 129 b 349 -21 543 25 440 -21 b 104 225 210 -21 104 61 l 104 722 m 440 879 b 292 924 367 879 350 924 b 190 879 260 924 231 911 l 190 929 b 293 969 228 957 254 969 b 442 925 367 969 383 925 b 543 969 474 925 503 938 l 543 919 b 440 879 506 892 479 879 "},"Ū":{"ha":972,"x_min":0,"x_max":0,"o":"m 486 -21 b 111 326 246 -21 111 140 l 111 1000 l 161 1000 l 161 325 b 486 25 161 149 301 25 b 811 325 669 25 811 149 l 811 1000 l 861 1000 l 861 326 b 486 -21 861 140 722 -21 m 326 1154 l 326 1199 l 646 1199 l 646 1154 "},"ū":{"ha":753,"x_min":0,"x_max":0,"o":"m 154 722 l 154 228 b 360 21 154 90 235 21 b 592 278 489 21 592 131 l 592 722 l 642 722 l 642 0 l 600 0 l 593 129 b 349 -21 543 25 440 -21 b 104 225 210 -21 104 61 l 104 722 m 206 918 l 206 963 l 525 963 l 525 918 "},"Ŭ":{"ha":972,"x_min":0,"x_max":0,"o":"m 486 -21 b 111 326 246 -21 111 140 l 111 1000 l 161 1000 l 161 325 b 486 25 161 149 301 25 b 811 325 669 25 811 149 l 811 1000 l 861 1000 l 861 326 b 486 -21 861 140 722 -21 m 486 1053 b 308 1236 378 1054 315 1125 l 354 1236 b 486 1093 358 1160 396 1093 b 618 1236 576 1093 614 1160 l 664 1236 b 486 1053 657 1125 594 1054 "},"ŭ":{"ha":753,"x_min":0,"x_max":0,"o":"m 154 722 l 154 228 b 360 21 154 90 235 21 b 592 278 489 21 592 131 l 592 722 l 642 722 l 642 0 l 600 0 l 593 129 b 349 -21 543 25 440 -21 b 104 225 210 -21 104 61 l 104 722 m 371 817 b 193 1000 263 818 200 889 l 239 1000 b 371 857 243 924 281 857 b 503 1000 461 857 499 924 l 549 1000 b 371 817 542 889 479 818 "},"Ů":{"ha":972,"x_min":0,"x_max":0,"o":"m 486 -21 b 111 326 246 -21 111 140 l 111 1000 l 161 1000 l 161 325 b 486 25 161 149 301 25 b 811 325 669 25 811 149 l 811 1000 l 861 1000 l 861 326 b 486 -21 861 140 722 -21 m 371 1208 b 486 1086 371 1129 421 1086 b 601 1208 551 1086 601 1129 b 486 1331 601 1288 551 1331 b 371 1208 421 1331 371 1288 m 646 1208 b 486 1049 646 1115 581 1049 b 326 1208 392 1049 326 1115 b 486 1368 326 1301 392 1368 b 646 1208 581 1368 646 1301 "},"ů":{"ha":753,"x_min":0,"x_max":0,"o":"m 154 722 l 154 228 b 360 21 154 90 235 21 b 592 278 489 21 592 131 l 592 722 l 642 722 l 642 0 l 600 0 l 593 129 b 349 -21 543 25 440 -21 b 104 225 210 -21 104 61 l 104 722 m 256 972 b 371 850 256 893 306 850 b 486 972 436 850 486 893 b 371 1094 486 1051 436 1094 b 256 972 306 1094 256 1051 m 531 972 b 371 813 531 879 465 813 b 211 972 276 813 211 879 b 371 1132 211 1065 276 1132 b 531 972 465 1132 531 1065 "},"Ű":{"ha":972,"x_min":0,"x_max":0,"o":"m 486 -21 b 111 326 246 -21 111 140 l 111 1000 l 161 1000 l 161 325 b 486 25 161 149 301 25 b 811 325 669 25 811 149 l 811 1000 l 861 1000 l 861 326 b 486 -21 861 140 722 -21 m 432 1257 l 503 1257 l 372 1067 l 328 1067 m 644 1257 l 715 1257 l 585 1067 l 540 1067 "},"ű":{"ha":753,"x_min":0,"x_max":0,"o":"m 154 722 l 154 228 b 360 21 154 90 235 21 b 592 278 489 21 592 131 l 592 722 l 642 722 l 642 0 l 600 0 l 593 129 b 349 -21 543 25 440 -21 b 104 225 210 -21 104 61 l 104 722 m 347 1021 l 418 1021 l 288 831 l 243 831 m 560 1021 l 631 1021 l 500 831 l 456 831 "},"Ų":{"ha":972,"x_min":0,"x_max":0,"o":"m 708 -207 b 543 -326 685 -283 617 -326 b 393 -187 454 -326 393 -274 b 511 -19 393 -122 442 -62 b 486 -21 503 -21 494 -21 b 111 326 246 -21 111 140 l 111 1000 l 161 1000 l 161 325 b 486 25 161 149 301 25 b 811 325 669 25 811 149 l 811 1000 l 861 1000 l 861 326 b 611 -4 861 168 771 47 b 439 -183 511 -36 439 -110 b 546 -285 439 -250 481 -285 b 660 -207 604 -285 643 -254 "},"ų":{"ha":753,"x_min":0,"x_max":0,"o":"m 154 722 l 154 228 b 360 21 154 90 235 21 b 592 278 489 21 592 131 l 592 722 l 642 722 l 642 0 l 631 0 b 463 -183 533 -49 463 -104 b 569 -285 463 -250 504 -285 b 683 -207 628 -285 667 -254 l 732 -207 b 567 -326 708 -283 640 -326 b 417 -187 478 -326 417 -274 b 599 13 417 -104 497 -29 l 593 129 b 349 -21 543 25 440 -21 b 104 225 210 -21 104 61 l 104 722 "},"Ŵ":{"ha":1319,"x_min":0,"x_max":0,"o":"m 1299 1000 l 1017 0 l 940 0 l 660 958 l 381 0 l 303 0 l 21 1000 l 75 1000 l 343 40 l 624 1000 l 700 1000 l 979 43 l 1249 1000 m 832 1067 l 785 1067 l 658 1224 l 533 1067 l 485 1067 l 629 1257 l 689 1257 "},"ŵ":{"ha":1044,"x_min":0,"x_max":0,"o":"m 1010 722 l 803 0 l 739 0 l 525 678 l 324 0 l 260 0 l 35 722 l 85 722 l 293 49 l 493 722 l 560 722 l 771 51 l 961 722 m 699 831 l 651 831 l 525 988 l 400 831 l 351 831 l 496 1021 l 556 1021 "},"Ÿ":{"ha":861,"x_min":0,"x_max":0,"o":"m 69 1000 l 429 440 l 794 1000 l 847 1000 l 456 390 l 456 0 l 404 0 l 404 393 l 14 1000 m 261 1157 l 261 1236 l 325 1236 l 325 1157 m 533 1157 l 533 1236 l 597 1236 l 597 1157 "},"Ź":{"ha":888,"x_min":0,"x_max":0,"o":"m 129 46 l 804 46 l 804 0 l 69 0 l 69 47 l 757 954 l 101 954 l 101 1000 l 818 1000 l 818 957 m 525 1257 l 599 1257 l 429 1067 l 382 1067 "},"ź":{"ha":664,"x_min":0,"x_max":0,"o":"m 111 43 l 608 43 l 608 0 l 56 0 l 56 50 l 556 679 l 76 679 l 76 722 l 608 722 l 608 669 m 424 1021 l 497 1021 l 328 831 l 281 831 "},"Ż":{"ha":888,"x_min":0,"x_max":0,"o":"m 129 46 l 804 46 l 804 0 l 69 0 l 69 47 l 757 954 l 101 954 l 101 1000 l 818 1000 l 818 957 m 411 1157 l 411 1236 l 475 1236 l 475 1157 "},"ż":{"ha":664,"x_min":0,"x_max":0,"o":"m 111 43 l 608 43 l 608 0 l 56 0 l 56 50 l 556 679 l 76 679 l 76 722 l 608 722 l 608 669 m 306 921 l 306 1000 l 369 1000 l 369 921 "},"Ž":{"ha":888,"x_min":0,"x_max":0,"o":"m 129 46 l 804 46 l 804 0 l 69 0 l 69 47 l 757 954 l 101 954 l 101 1000 l 818 1000 l 818 957 m 267 1257 l 314 1257 l 440 1100 l 565 1257 l 614 1257 l 469 1067 l 410 1067 "},"ž":{"ha":664,"x_min":0,"x_max":0,"o":"m 111 43 l 608 43 l 608 0 l 56 0 l 56 50 l 556 679 l 76 679 l 76 722 l 608 722 l 608 669 m 161 1021 l 208 1021 l 335 864 l 460 1021 l 508 1021 l 364 831 l 304 831 "},"ƒ":{"ha":404,"x_min":0,"x_max":0,"o":"m 411 963 b 306 979 378 972 335 979 b 199 854 239 979 199 938 l 199 722 l 375 722 l 375 679 l 199 679 l 199 -250 l 149 -250 l 149 679 l 42 679 l 42 722 l 149 722 l 149 853 b 306 1021 149 961 211 1021 b 411 1004 339 1021 376 1015 "},"Ș":{"ha":893,"x_min":0,"x_max":0,"o":"m 447 26 b 760 250 649 26 760 113 b 419 508 760 383 690 454 b 108 779 196 553 108 639 b 447 1021 108 921 224 1021 b 817 781 638 1021 782 931 l 764 781 b 450 975 733 901 615 975 b 161 783 256 975 161 896 b 454 550 161 665 224 597 b 813 251 717 496 813 410 b 446 -21 813 94 685 -21 b 63 244 243 -21 97 72 l 117 244 b 447 26 147 96 281 26 m 493 -210 b 388 -372 493 -297 460 -347 l 388 -340 b 449 -214 432 -319 449 -276 l 429 -214 l 429 -125 l 493 -125 "},"ș":{"ha":682,"x_min":0,"x_max":0,"o":"m 560 189 b 311 360 560 285 490 332 b 78 557 175 381 78 440 b 333 743 78 658 161 743 b 610 549 479 743 589 665 l 557 549 b 329 701 546 635 453 701 b 129 561 192 701 129 636 b 346 400 129 472 185 428 b 613 190 538 367 613 306 b 338 -21 613 82 510 -21 b 56 185 172 -21 74 65 l 108 185 b 339 22 118 90 206 22 b 560 189 482 22 560 103 m 381 -210 b 275 -372 381 -297 347 -347 l 275 -340 b 336 -214 319 -319 336 -276 l 317 -214 l 317 -125 l 381 -125 "},"Ț":{"ha":782,"x_min":0,"x_max":0,"o":"m 754 954 l 417 954 l 417 0 l 365 0 l 365 954 l 28 954 l 28 1000 l 754 1000 m 425 -210 b 319 -372 425 -297 392 -347 l 319 -340 b 381 -214 364 -319 381 -276 l 361 -214 l 361 -125 l 425 -125 "},"ț":{"ha":408,"x_min":0,"x_max":0,"o":"m 189 679 l 189 132 b 292 21 189 56 229 21 b 381 33 318 21 344 24 l 381 -8 b 292 -21 349 -17 319 -21 b 139 133 199 -21 139 29 l 139 679 l 35 679 l 35 722 l 139 722 l 144 896 l 189 896 l 189 722 l 361 722 l 361 679 m 254 -210 b 149 -372 254 -297 221 -347 l 149 -340 b 210 -214 193 -319 210 -276 l 190 -214 l 190 -125 l 254 -125 "},"ȷ":{"ha":256,"x_min":0,"x_max":0,"o":"m -82 -211 b 8 -226 -53 -221 -15 -226 b 103 -104 69 -226 103 -193 l 103 722 l 153 722 l 153 -107 b 15 -271 153 -215 103 -271 b -82 -256 -15 -271 -47 -267 "},"ˆ":{"ha":431,"x_min":0,"x_max":0,"o":"m 389 831 l 342 831 l 215 988 l 90 831 l 42 831 l 186 1021 l 246 1021 "},"ˇ":{"ha":431,"x_min":0,"x_max":0,"o":"m 42 1021 l 89 1021 l 215 864 l 340 1021 l 389 1021 l 244 831 l 185 831 "},"ˉ":{"ha":403,"x_min":0,"x_max":0,"o":"m 42 918 l 42 963 l 361 963 l 361 918 "},"˘":{"ha":439,"x_min":0,"x_max":0,"o":"m 219 817 b 42 1000 111 818 49 889 l 88 1000 b 219 857 92 924 129 857 b 351 1000 310 857 347 924 l 397 1000 b 219 817 390 889 328 818 "},"˙":{"ha":147,"x_min":0,"x_max":0,"o":"m 42 921 l 42 1000 l 106 1000 l 106 921 "},"˚":{"ha":403,"x_min":0,"x_max":0,"o":"m 86 972 b 201 850 86 893 136 850 b 317 972 267 850 317 893 b 201 1094 317 1051 267 1094 b 86 972 136 1094 86 1051 m 361 972 b 201 813 361 879 296 813 b 42 972 107 813 42 879 b 201 1132 42 1065 107 1132 b 361 972 296 1132 361 1065 "},"˛":{"ha":399,"x_min":0,"x_max":0,"o":"m 357 -207 b 192 -326 333 -283 265 -326 b 42 -187 103 -326 42 -274 b 260 26 42 -94 142 -14 l 314 26 b 88 -183 188 -28 88 -90 b 194 -285 88 -250 129 -285 b 308 -207 253 -285 292 -254 "},"˜":{"ha":436,"x_min":0,"x_max":0,"o":"m 292 879 b 143 924 218 879 201 924 b 42 879 111 924 82 911 l 42 929 b 144 969 79 957 106 969 b 293 925 218 969 235 925 b 394 969 325 925 354 938 l 394 919 b 292 879 357 892 331 879 "},"˝":{"ha":471,"x_min":0,"x_max":0,"o":"m 146 1021 l 217 1021 l 86 831 l 42 831 m 358 1021 l 429 1021 l 299 831 l 254 831 "},"̒":{"ha":165,"x_min":0,"x_max":0,"o":"m 49 932 b 154 1099 49 1022 82 1074 l 154 1065 b 96 936 110 1044 96 999 l 118 936 l 118 847 l 49 847 "},"̣":{"ha":147,"x_min":0,"x_max":0,"o":"m 42 -250 l 42 -171 l 106 -171 l 106 -250 "},";":{"ha":386,"x_min":0,"x_max":0,"o":"m 156 633 l 156 722 l 231 722 l 231 633 m 231 4 b 101 -187 231 -103 183 -162 l 101 -147 b 178 0 156 -125 178 -83 l 153 0 l 153 89 l 231 89 "},"΄":{"ha":189,"x_min":0,"x_max":0,"o":"m 82 1000 l 147 1000 l 85 796 l 42 796 "},"΅":{"ha":419,"x_min":0,"x_max":0,"o":"m 42 921 l 42 1000 l 106 1000 l 106 921 m 314 921 l 314 1000 l 378 1000 l 378 921 m 225 1225 l 292 1225 l 225 1021 l 185 1021 "},"Ά":{"ha":892,"x_min":0,"x_max":0,"o":"m 821 0 l 704 296 l 186 296 l 68 0 l 14 0 l 411 1000 l 482 1000 l 878 0 m 203 340 l 688 340 l 447 953 m 263 1000 l 328 1000 l 265 796 l 222 796 "},"·":{"ha":386,"x_min":0,"x_max":0,"o":"m 156 401 l 156 490 l 231 490 l 231 401 "},"Έ":{"ha":807,"x_min":0,"x_max":0,"o":"m 683 486 l 197 486 l 197 46 l 724 46 l 724 0 l 146 0 l 146 1000 l 724 1000 l 724 954 l 197 954 l 197 532 l 683 532 m 18 1000 l 83 1000 l 21 796 l -22 796 "},"Ή":{"ha":967,"x_min":0,"x_max":0,"o":"m 849 1000 l 849 0 l 797 0 l 797 488 l 197 488 l 197 0 l 146 0 l 146 1000 l 197 1000 l 197 535 l 797 535 l 797 1000 m 18 1000 l 83 1000 l 21 796 l -22 796 "},"Ί":{"ha":315,"x_min":0,"x_max":0,"o":"m 197 1000 l 197 0 l 146 0 l 146 1000 m 18 1000 l 83 1000 l 21 796 l -22 796 "},"Ό":{"ha":1033,"x_min":0,"x_max":0,"o":"m 517 25 b 904 499 721 25 904 157 b 517 975 904 808 735 975 b 129 499 281 975 129 807 b 517 25 129 179 313 25 m 517 -21 b 76 499 272 -21 76 165 b 517 1021 76 856 274 1021 b 957 499 760 1021 957 835 b 517 -21 957 143 761 -21 m 63 1000 l 128 1000 l 65 796 l 22 796 "},"Ύ":{"ha":953,"x_min":0,"x_max":0,"o":"m 161 1000 l 521 440 l 886 1000 l 939 1000 l 547 390 l 547 0 l 496 0 l 496 393 l 106 1000 m -10 1000 l 56 1000 l -7 796 l -50 796 "},"Ώ":{"ha":1033,"x_min":0,"x_max":0,"o":"m 574 47 b 904 503 747 47 904 165 b 517 975 904 808 735 975 b 129 503 281 975 129 808 b 446 47 129 194 278 54 l 460 47 l 460 0 l 132 0 l 132 47 l 301 47 b 76 503 174 115 76 272 b 517 1021 76 857 274 1021 b 957 503 760 1021 957 835 b 736 47 957 261 861 113 l 901 47 l 901 0 l 574 0 m 63 1000 l 128 1000 l 65 796 l 22 796 "},"ΐ":{"ha":256,"x_min":0,"x_max":0,"o":"m 103 0 l 103 722 l 153 722 l 153 0 m -40 921 l -40 1000 l 24 1000 l 24 921 m 232 921 l 232 1000 l 296 1000 l 296 921 m 143 1225 l 210 1225 l 143 1021 l 103 1021 "},"Α":{"ha":892,"x_min":0,"x_max":0,"o":"m 821 0 l 704 296 l 186 296 l 68 0 l 14 0 l 411 1000 l 482 1000 l 878 0 m 203 340 l 688 340 l 447 953 "},"Β":{"ha":878,"x_min":0,"x_max":0,"o":"m 454 1000 b 760 760 650 1000 760 907 b 571 531 760 654 689 558 b 803 276 700 514 803 413 b 463 0 803 107 689 0 l 118 0 l 118 1000 m 169 506 l 169 46 l 469 46 b 749 276 649 46 749 129 b 478 506 749 411 646 506 m 169 954 l 169 550 l 474 550 b 708 758 628 550 708 643 b 463 954 708 882 618 954 "},"Γ":{"ha":674,"x_min":0,"x_max":0,"o":"m 646 1000 l 646 954 l 169 954 l 169 0 l 118 0 l 118 1000 "},"Δ":{"ha":892,"x_min":0,"x_max":0,"o":"m 14 0 l 411 1000 l 482 1000 l 878 0 m 85 44 l 803 44 l 447 953 "},"Ε":{"ha":779,"x_min":0,"x_max":0,"o":"m 656 486 l 169 486 l 169 46 l 696 46 l 696 0 l 118 0 l 118 1000 l 696 1000 l 696 954 l 169 954 l 169 532 l 656 532 "},"Ζ":{"ha":888,"x_min":0,"x_max":0,"o":"m 129 46 l 804 46 l 804 0 l 69 0 l 69 47 l 757 954 l 101 954 l 101 1000 l 818 1000 l 818 957 "},"Η":{"ha":939,"x_min":0,"x_max":0,"o":"m 821 1000 l 821 0 l 769 0 l 769 488 l 169 488 l 169 0 l 118 0 l 118 1000 l 169 1000 l 169 535 l 769 535 l 769 1000 "},"Θ":{"ha":1033,"x_min":0,"x_max":0,"o":"m 772 486 l 263 486 l 263 532 l 772 532 m 517 25 b 904 499 721 25 904 172 b 517 975 904 808 735 975 b 129 499 299 975 129 808 b 517 25 129 179 313 25 m 517 -21 b 76 499 272 -21 76 165 b 517 1021 76 835 274 1021 b 957 499 760 1021 957 835 b 517 -21 957 158 761 -21 "},"Ι":{"ha":288,"x_min":0,"x_max":0,"o":"m 169 1000 l 169 0 l 118 0 l 118 1000 "},"Κ":{"ha":806,"x_min":0,"x_max":0,"o":"m 715 0 l 169 500 l 169 0 l 118 0 l 118 1000 l 169 1000 l 169 526 l 682 1000 l 744 1000 l 226 517 l 785 0 "},"Λ":{"ha":878,"x_min":0,"x_max":0,"o":"m 807 0 l 440 953 l 68 0 l 14 0 l 404 1000 l 475 1000 l 864 0 "},"Μ":{"ha":1151,"x_min":0,"x_max":0,"o":"m 556 0 l 168 947 l 168 0 l 118 0 l 118 1000 l 199 1000 l 588 49 l 956 1000 l 1033 1000 l 1033 0 l 983 0 l 983 940 l 618 0 "},"Ν":{"ha":985,"x_min":0,"x_max":0,"o":"m 867 1000 l 867 0 l 813 0 l 168 928 l 168 0 l 118 0 l 118 1000 l 175 1000 l 819 79 l 819 1000 "},"Ξ":{"ha":818,"x_min":0,"x_max":0,"o":"m 83 50 l 735 50 l 735 0 l 83 0 m 735 951 l 85 951 l 85 1000 l 735 1000 m 181 472 l 181 519 l 639 519 l 639 472 "},"Ο":{"ha":1033,"x_min":0,"x_max":0,"o":"m 517 25 b 904 499 721 25 904 157 b 517 975 904 808 735 975 b 129 499 281 975 129 807 b 517 25 129 179 313 25 m 517 -21 b 76 499 272 -21 76 165 b 517 1021 76 856 274 1021 b 957 499 760 1021 957 835 b 517 -21 957 143 761 -21 "},"Π":{"ha":939,"x_min":0,"x_max":0,"o":"m 821 1000 l 821 0 l 769 0 l 769 953 l 169 953 l 169 0 l 118 0 l 118 1000 "},"Ρ":{"ha":867,"x_min":0,"x_max":0,"o":"m 458 1000 b 797 692 674 1000 797 883 b 456 394 797 508 651 394 l 169 394 l 169 0 l 118 0 l 118 1000 m 169 954 l 169 442 l 456 442 b 743 692 631 442 743 536 b 463 954 743 856 639 954 "},"Σ":{"ha":776,"x_min":0,"x_max":0,"o":"m 508 528 l 508 485 l 113 46 l 721 46 l 721 0 l 56 0 l 56 47 l 464 506 l 56 953 l 56 1000 l 721 1000 l 721 954 l 113 954 "},"Τ":{"ha":782,"x_min":0,"x_max":0,"o":"m 754 954 l 417 954 l 417 0 l 365 0 l 365 954 l 28 954 l 28 1000 l 754 1000 "},"Υ":{"ha":861,"x_min":0,"x_max":0,"o":"m 69 1000 l 429 440 l 794 1000 l 847 1000 l 456 390 l 456 0 l 404 0 l 404 393 l 14 1000 "},"Φ":{"ha":1071,"x_min":0,"x_max":0,"o":"m 561 1021 l 561 972 b 994 499 800 969 994 811 b 561 28 994 210 801 31 l 561 -21 l 510 -21 l 510 28 b 76 499 268 31 76 210 b 510 972 76 811 269 969 l 510 1021 m 942 499 b 561 926 942 763 793 924 l 561 74 b 942 499 763 76 942 224 m 129 499 b 510 74 129 224 308 76 l 510 926 b 129 499 278 924 129 763 "},"Χ":{"ha":828,"x_min":0,"x_max":0,"o":"m 449 517 l 800 0 l 739 0 l 414 479 l 88 0 l 28 0 l 383 519 l 56 1000 l 117 1000 l 418 557 l 731 1000 l 788 1000 "},"Ψ":{"ha":1008,"x_min":0,"x_max":0,"o":"m 149 1000 l 149 557 b 482 310 149 397 301 317 l 482 1000 l 532 1000 l 532 310 b 861 557 700 317 861 397 l 861 1000 l 911 1000 l 911 563 b 532 264 911 374 746 272 l 532 0 l 482 0 l 482 264 b 97 563 267 271 97 374 l 97 1000 "},"Ω":{"ha":1033,"x_min":0,"x_max":0,"o":"m 574 47 b 904 503 747 47 904 165 b 517 975 904 808 735 975 b 129 503 281 975 129 808 b 446 47 129 194 278 54 l 460 47 l 460 0 l 132 0 l 132 47 l 301 47 b 76 503 174 115 76 272 b 517 1021 76 857 274 1021 b 957 503 760 1021 957 835 b 736 47 957 261 861 113 l 901 47 l 901 0 l 574 0 "},"Ϊ":{"ha":289,"x_min":0,"x_max":0,"o":"m 169 1000 l 169 0 l 118 0 l 118 1000 m -24 1157 l -24 1236 l 40 1236 l 40 1157 m 249 1157 l 249 1236 l 313 1236 l 313 1157 "},"Ϋ":{"ha":861,"x_min":0,"x_max":0,"o":"m 69 1000 l 429 440 l 794 1000 l 847 1000 l 456 390 l 456 0 l 404 0 l 404 393 l 14 1000 m 263 1157 l 263 1236 l 326 1236 l 326 1157 m 535 1157 l 535 1236 l 599 1236 l 599 1157 "},"ά":{"ha":782,"x_min":0,"x_max":0,"o":"m 631 0 l 622 153 b 364 -21 578 51 486 -21 b 69 353 207 -21 69 100 b 368 743 69 615 208 743 b 622 576 488 743 578 675 l 631 722 l 671 722 l 671 0 m 121 354 b 372 21 121 126 235 21 b 626 364 490 21 626 108 b 375 701 626 592 515 701 b 121 354 240 701 121 590 m 404 1000 l 469 1000 l 407 796 l 364 796 "},"έ":{"ha":649,"x_min":0,"x_max":0,"o":"m 313 701 b 131 551 192 701 131 640 b 315 400 131 465 218 400 l 375 400 l 375 354 l 313 354 b 106 188 186 354 106 281 b 321 22 106 82 186 22 b 549 199 436 22 529 86 l 597 199 b 317 -21 574 67 476 -21 b 56 190 153 -21 56 58 b 232 379 56 278 114 354 b 82 557 132 407 82 471 b 311 743 82 665 167 743 b 593 533 469 743 569 656 l 543 533 b 313 701 521 639 436 701 m 328 1000 l 393 1000 l 331 796 l 288 796 "},"ή":{"ha":760,"x_min":0,"x_max":0,"o":"m 111 0 l 111 722 l 153 722 l 160 585 b 408 743 207 688 304 743 b 656 500 558 743 656 649 l 656 -250 l 606 -250 l 606 497 b 397 701 606 624 529 701 b 161 450 285 701 161 604 l 161 0 m 392 1000 l 457 1000 l 394 796 l 351 796 "},"ί":{"ha":256,"x_min":0,"x_max":0,"o":"m 103 0 l 103 722 l 153 722 l 153 0 m 149 1000 l 214 1000 l 151 796 l 108 796 "},"ΰ":{"ha":747,"x_min":0,"x_max":0,"o":"m 374 -21 b 104 225 193 -21 104 74 l 104 722 l 154 722 l 154 231 b 374 21 154 107 218 21 b 593 231 529 21 593 107 l 593 722 l 643 722 l 643 225 b 374 -21 643 74 554 -21 m 206 921 l 206 1000 l 269 1000 l 269 921 m 478 921 l 478 1000 l 542 1000 l 542 921 m 389 1225 l 456 1225 l 389 1021 l 349 1021 "},"α":{"ha":782,"x_min":0,"x_max":0,"o":"m 631 0 l 622 153 b 364 -21 578 51 486 -21 b 69 353 207 -21 69 100 b 368 743 69 615 208 743 b 622 576 488 743 578 675 l 631 722 l 671 722 l 671 0 m 121 354 b 372 21 121 126 235 21 b 626 364 490 21 626 108 b 375 701 626 592 515 701 b 121 354 240 701 121 590 "},"β":{"ha":757,"x_min":0,"x_max":0,"o":"m 618 786 b 433 546 618 671 540 576 b 644 289 528 526 644 451 b 388 -21 644 88 535 -21 b 161 121 289 -21 208 31 l 161 -250 l 111 -250 l 111 700 b 363 1021 111 901 189 1021 b 618 786 529 1021 618 919 m 161 254 b 382 24 161 163 247 24 b 593 286 510 24 593 119 b 367 521 593 447 469 521 l 304 521 l 304 567 l 364 567 b 568 781 449 567 568 650 b 361 979 568 897 500 979 b 161 694 231 979 161 889 "},"γ":{"ha":681,"x_min":0,"x_max":0,"o":"m 315 -250 l 315 0 l 28 722 l 82 722 l 340 50 l 601 722 l 653 722 l 365 0 l 365 -250 "},"δ":{"ha":740,"x_min":0,"x_max":0,"o":"m 207 1000 l 631 1000 l 631 957 l 333 957 b 671 435 513 908 671 735 b 361 -21 671 179 603 -21 b 69 329 178 -21 69 128 b 354 664 69 511 168 664 b 624 465 508 664 596 565 b 207 968 611 826 368 932 m 619 329 b 363 619 619 463 535 619 b 121 325 229 619 121 535 b 361 25 121 156 211 25 b 619 314 519 25 599 121 "},"ε":{"ha":649,"x_min":0,"x_max":0,"o":"m 313 701 b 131 551 192 701 131 640 b 315 400 131 465 218 400 l 375 400 l 375 354 l 313 354 b 106 188 186 354 106 281 b 321 22 106 82 186 22 b 549 199 436 22 529 86 l 597 199 b 317 -21 574 67 476 -21 b 56 190 153 -21 56 58 b 232 379 56 278 114 354 b 82 557 132 407 82 471 b 311 743 82 665 167 743 b 593 533 469 743 569 656 l 543 533 b 313 701 521 639 436 701 "},"ζ":{"ha":631,"x_min":0,"x_max":0,"o":"m 85 376 b 367 44 85 182 179 90 b 575 -104 539 3 575 -35 b 483 -271 575 -171 521 -233 l 456 -247 b 528 -119 488 -215 528 -164 b 364 -4 528 -60 501 -37 b 35 368 144 49 35 164 b 451 957 35 654 196 872 l 58 957 l 58 1000 l 568 1000 l 568 967 b 85 376 300 908 85 688 "},"η":{"ha":760,"x_min":0,"x_max":0,"o":"m 111 0 l 111 722 l 153 722 l 160 585 b 408 743 207 688 304 743 b 656 500 558 743 656 649 l 656 -250 l 606 -250 l 606 497 b 397 701 606 624 529 701 b 161 450 285 701 161 604 l 161 0 "},"θ":{"ha":792,"x_min":0,"x_max":0,"o":"m 396 -21 b 69 499 210 -21 69 144 b 396 1021 69 854 210 1021 b 722 499 582 1021 722 854 b 396 -21 722 143 582 -21 m 396 24 b 671 481 560 24 667 178 l 121 481 b 396 24 125 178 231 24 m 396 976 b 121 525 232 976 126 821 l 671 525 b 396 976 664 821 558 976 "},"ι":{"ha":256,"x_min":0,"x_max":0,"o":"m 103 0 l 103 722 l 153 722 l 153 0 "},"κ":{"ha":658,"x_min":0,"x_max":0,"o":"m 111 0 l 111 722 l 161 722 l 161 393 l 536 722 l 603 722 l 213 379 l 651 0 l 581 0 l 161 360 l 161 0 "},"λ":{"ha":681,"x_min":0,"x_max":0,"o":"m 653 0 l 600 0 l 358 686 l 81 0 l 28 0 l 322 722 l 346 722 b 193 979 265 964 244 979 b 106 961 169 979 133 971 l 106 1003 b 193 1021 132 1013 168 1021 b 396 726 276 1021 299 1003 "},"μ":{"ha":760,"x_min":0,"x_max":0,"o":"m 161 722 l 161 228 b 367 21 161 90 242 21 b 599 278 496 21 599 131 l 599 722 l 649 722 l 649 0 l 607 0 l 600 129 b 356 -21 550 25 447 -21 b 161 61 275 -21 204 6 l 161 -250 l 111 -250 l 111 722 "},"ν":{"ha":681,"x_min":0,"x_max":0,"o":"m 653 722 l 374 0 l 307 0 l 28 722 l 82 722 l 340 44 l 601 722 "},"ξ":{"ha":608,"x_min":0,"x_max":0,"o":"m 363 -17 b 28 265 132 32 28 124 b 246 504 28 400 96 476 b 54 714 125 525 54 586 b 303 957 54 828 150 928 l 58 957 l 58 1000 l 554 1000 l 554 964 l 533 964 b 103 710 236 964 103 849 b 343 525 103 582 211 525 l 403 525 l 403 479 l 340 479 b 78 263 165 479 78 393 b 365 28 78 144 154 78 b 574 -111 544 -15 574 -46 b 482 -271 574 -174 519 -233 l 454 -247 b 526 -126 486 -215 526 -165 b 363 -17 526 -75 500 -46 "},"ο":{"ha":785,"x_min":0,"x_max":0,"o":"m 121 361 b 393 21 121 135 240 21 b 664 361 550 21 664 135 b 393 701 664 589 550 701 b 121 361 236 701 121 588 m 69 361 b 393 743 69 613 208 743 b 715 361 582 743 715 611 b 396 -21 715 110 579 -21 b 69 361 211 -21 69 113 "},"π":{"ha":844,"x_min":0,"x_max":0,"o":"m 175 0 l 175 678 l 63 678 l 63 722 l 782 722 l 782 678 l 669 678 l 669 0 l 619 0 l 619 678 l 225 678 l 225 0 "},"ρ":{"ha":789,"x_min":0,"x_max":0,"o":"m 111 399 b 406 743 111 624 222 743 b 719 371 583 743 719 624 b 414 -21 719 113 583 -21 b 161 144 293 -21 204 46 l 161 -250 l 111 -250 l 111 399 m 668 372 b 406 701 668 599 553 701 b 156 358 243 701 156 590 b 407 21 156 131 264 21 b 668 372 551 21 668 135 "},"ς":{"ha":724,"x_min":0,"x_max":0,"o":"m 69 378 b 381 743 69 617 211 743 b 668 528 536 743 642 661 l 615 528 b 382 701 597 633 511 701 b 119 374 235 701 119 585 b 410 42 119 199 210 90 b 646 -104 597 -4 646 -24 b 558 -271 646 -171 596 -233 l 531 -247 b 599 -119 563 -215 599 -164 b 407 -4 599 -57 561 -37 b 69 378 179 46 69 165 "},"σ":{"ha":785,"x_min":0,"x_max":0,"o":"m 69 361 b 389 743 69 613 204 743 b 532 722 435 743 490 735 l 806 722 l 806 678 l 589 683 b 715 361 665 621 715 503 b 396 -21 715 110 579 -21 b 69 361 211 -21 69 113 m 121 361 b 393 21 121 135 240 21 b 664 361 550 21 664 135 b 526 685 664 496 621 618 b 389 701 490 694 433 701 b 121 361 239 701 121 588 "},"τ":{"ha":656,"x_min":0,"x_max":0,"o":"m 303 0 l 303 678 l 21 678 l 21 722 l 635 722 l 635 678 l 353 678 l 353 0 "},"υ":{"ha":747,"x_min":0,"x_max":0,"o":"m 374 -21 b 104 225 193 -21 104 74 l 104 722 l 154 722 l 154 231 b 374 21 154 107 218 21 b 593 231 529 21 593 107 l 593 722 l 643 722 l 643 225 b 374 -21 643 74 554 -21 "},"φ":{"ha":1054,"x_min":0,"x_max":0,"o":"m 964 371 b 536 -21 964 119 817 -14 l 536 -250 l 486 -250 l 486 -21 b 90 303 239 -15 90 75 b 181 722 90 436 126 571 l 231 722 b 140 308 175 569 140 456 b 486 21 140 121 249 26 l 486 392 b 721 743 486 617 561 743 b 964 371 869 743 964 624 m 536 21 b 913 372 794 28 913 142 b 718 701 913 599 838 701 b 536 358 604 701 536 614 "},"χ":{"ha":700,"x_min":0,"x_max":0,"o":"m 376 261 l 672 -250 l 610 -250 l 343 225 l 88 -250 l 28 -250 l 313 261 l 40 722 l 104 722 l 347 297 l 571 722 l 629 722 "},"ψ":{"ha":981,"x_min":0,"x_max":0,"o":"m 156 722 l 156 272 b 468 24 156 113 290 31 l 468 722 l 518 722 l 518 24 b 826 272 696 31 826 113 l 826 722 l 876 722 l 876 278 b 518 -19 876 89 729 -12 l 518 -250 l 468 -250 l 468 -21 b 104 278 254 -14 104 89 l 104 722 "},"ω":{"ha":1072,"x_min":0,"x_max":0,"o":"m 892 722 b 982 299 946 571 982 432 b 758 -21 982 78 886 -21 b 536 164 639 -21 557 38 b 311 -21 514 39 431 -21 b 90 299 183 -21 90 78 b 181 722 90 432 126 571 l 231 722 b 140 304 175 569 140 451 b 322 21 140 106 215 21 b 513 249 435 21 513 108 l 513 528 l 560 528 l 560 249 b 747 21 560 108 635 21 b 932 304 854 21 932 106 b 842 722 932 451 897 569 "},"ϊ":{"ha":256,"x_min":0,"x_max":0,"o":"m 103 0 l 103 722 l 153 722 l 153 0 m -40 921 l -40 1000 l 24 1000 l 24 921 m 232 921 l 232 1000 l 296 1000 l 296 921 "},"ϋ":{"ha":747,"x_min":0,"x_max":0,"o":"m 374 -21 b 104 225 193 -21 104 74 l 104 722 l 154 722 l 154 231 b 374 21 154 107 218 21 b 593 231 529 21 593 107 l 593 722 l 643 722 l 643 225 b 374 -21 643 74 554 -21 m 204 921 l 204 1000 l 268 1000 l 268 921 m 476 921 l 476 1000 l 540 1000 l 540 921 "},"ό":{"ha":785,"x_min":0,"x_max":0,"o":"m 121 361 b 393 21 121 135 240 21 b 664 361 550 21 664 135 b 393 701 664 589 550 701 b 121 361 236 701 121 588 m 69 361 b 393 743 69 613 208 743 b 715 361 582 743 715 611 b 396 -21 715 110 579 -21 b 69 361 211 -21 69 113 m 414 1000 l 479 1000 l 417 796 l 374 796 "},"ύ":{"ha":747,"x_min":0,"x_max":0,"o":"m 374 -21 b 104 225 193 -21 104 74 l 104 722 l 154 722 l 154 231 b 374 21 154 107 218 21 b 593 231 529 21 593 107 l 593 722 l 643 722 l 643 225 b 374 -21 643 74 554 -21 m 371 1000 l 436 1000 l 374 796 l 331 796 "},"ώ":{"ha":1072,"x_min":0,"x_max":0,"o":"m 892 722 b 982 299 946 571 982 432 b 758 -21 982 78 886 -21 b 536 164 639 -21 557 38 b 311 -21 514 39 431 -21 b 90 299 183 -21 90 78 b 181 722 90 432 126 571 l 231 722 b 140 304 175 569 140 451 b 322 21 140 106 215 21 b 513 249 435 21 513 108 l 513 528 l 560 528 l 560 249 b 747 21 560 108 635 21 b 932 304 854 21 932 106 b 842 722 932 451 897 569 m 556 1000 l 621 1000 l 558 796 l 515 796 "},"Ё":{"ha":779,"x_min":0,"x_max":0,"o":"m 656 486 l 169 486 l 169 46 l 696 46 l 696 0 l 118 0 l 118 1000 l 696 1000 l 696 954 l 169 954 l 169 532 l 656 532 m 235 1157 l 235 1236 l 299 1236 l 299 1157 m 507 1157 l 507 1236 l 571 1236 l 571 1157 "},"Ђ":{"ha":1088,"x_min":0,"x_max":0,"o":"m 338 0 l 338 954 l 28 954 l 28 1000 l 699 1000 l 699 954 l 389 954 l 389 486 b 675 642 439 588 543 642 b 990 329 863 642 990 539 l 990 139 b 851 -21 990 33 938 -21 b 754 -6 821 -21 789 -17 l 754 39 b 844 24 783 29 821 24 b 939 146 906 24 939 57 l 939 335 b 660 596 939 515 826 596 b 389 328 488 596 389 483 l 389 0 "},"Ѓ":{"ha":674,"x_min":0,"x_max":0,"o":"m 646 1000 l 646 954 l 169 954 l 169 0 l 118 0 l 118 1000 m 417 1257 l 490 1257 l 321 1067 l 274 1067 "},"Є":{"ha":993,"x_min":0,"x_max":0,"o":"m 525 -21 b 76 489 260 -21 76 182 b 519 1021 76 833 272 1021 b 924 707 726 1021 889 914 l 874 707 b 519 975 836 886 701 975 b 131 532 310 975 146 815 l 638 532 l 638 486 l 129 486 b 525 25 131 201 300 25 b 871 324 711 25 844 133 l 922 324 b 525 -21 897 128 750 -21 "},"Ѕ":{"ha":893,"x_min":0,"x_max":0,"o":"m 447 26 b 760 250 649 26 760 113 b 419 508 760 383 690 454 b 108 779 196 553 108 639 b 447 1021 108 921 224 1021 b 817 781 638 1021 782 931 l 764 781 b 450 975 733 901 615 975 b 161 783 256 975 161 896 b 454 550 161 665 224 597 b 813 251 717 496 813 410 b 446 -21 813 94 685 -21 b 63 244 243 -21 97 72 l 117 244 b 447 26 147 96 281 26 "},"І":{"ha":288,"x_min":0,"x_max":0,"o":"m 169 1000 l 169 0 l 118 0 l 118 1000 "},"Ї":{"ha":288,"x_min":0,"x_max":0,"o":"m 169 1000 l 169 0 l 118 0 l 118 1000 m -24 1157 l -24 1236 l 40 1236 l 40 1157 m 249 1157 l 249 1236 l 313 1236 l 313 1157 "},"Ј":{"ha":718,"x_min":0,"x_max":0,"o":"m 99 258 b 331 25 106 107 197 25 b 556 272 469 25 556 111 l 556 1000 l 607 1000 l 607 274 b 331 -21 607 99 501 -21 b 49 258 158 -21 56 90 "},"Љ":{"ha":1426,"x_min":0,"x_max":0,"o":"m 729 1000 l 729 606 l 1018 606 b 1357 297 1233 606 1357 489 b 1015 0 1357 114 1211 0 l 678 0 l 678 953 l 244 953 l 178 181 b 28 0 165 42 128 0 l 28 54 b 122 167 88 54 114 75 l 197 1000 m 729 560 l 729 47 l 1015 47 b 1303 297 1190 47 1303 142 b 1022 560 1303 461 1199 560 "},"Њ":{"ha":1490,"x_min":0,"x_max":0,"o":"m 742 0 l 742 532 l 169 532 l 169 0 l 118 0 l 118 1000 l 169 1000 l 169 578 l 742 578 l 742 1000 l 793 1000 l 793 578 l 1082 578 b 1421 283 1297 578 1421 461 b 1079 0 1421 114 1275 0 m 793 532 l 793 47 l 1079 47 b 1367 283 1254 47 1367 142 b 1086 532 1367 433 1263 532 "},"Ћ":{"ha":1088,"x_min":0,"x_max":0,"o":"m 338 0 l 338 954 l 28 954 l 28 1000 l 699 1000 l 699 954 l 389 954 l 389 486 b 675 642 439 588 543 642 b 990 329 863 642 990 539 l 990 0 l 939 0 l 939 335 b 660 596 939 515 826 596 b 389 321 483 596 389 482 l 389 0 "},"Ќ":{"ha":806,"x_min":0,"x_max":0,"o":"m 714 0 l 249 486 l 169 486 l 169 0 l 118 0 l 118 1000 l 169 1000 l 169 532 l 251 532 l 682 1000 l 744 1000 l 294 511 l 785 0 m 432 1257 l 506 1257 l 336 1067 l 289 1067 "},"Ў":{"ha":754,"x_min":0,"x_max":0,"o":"m 417 239 b 229 -21 339 54 325 -21 b 174 -12 214 -21 189 -17 l 174 31 b 232 24 193 26 215 24 b 367 239 289 24 308 76 l 344 239 l 14 1000 l 68 1000 l 381 279 l 689 1000 l 740 1000 m 371 1067 b 186 1222 267 1068 193 1111 l 233 1222 b 371 1108 238 1146 285 1108 b 508 1222 457 1108 504 1146 l 556 1222 b 371 1067 549 1111 475 1068 "},"Џ":{"ha":939,"x_min":0,"x_max":0,"o":"m 493 0 l 493 -194 l 446 -194 l 446 0 l 118 0 l 118 1000 l 169 1000 l 169 47 l 769 47 l 769 1000 l 821 1000 l 821 0 "},"А":{"ha":892,"x_min":0,"x_max":0,"o":"m 821 0 l 704 296 l 186 296 l 68 0 l 14 0 l 411 1000 l 482 1000 l 878 0 m 203 340 l 688 340 l 447 953 "},"Б":{"ha":867,"x_min":0,"x_max":0,"o":"m 660 1000 l 660 954 l 169 954 l 169 606 l 458 606 b 797 297 674 606 797 489 b 456 0 797 114 651 0 l 118 0 l 118 1000 m 169 560 l 169 47 l 456 47 b 743 297 631 47 743 142 b 463 560 743 461 639 560 "},"В":{"ha":878,"x_min":0,"x_max":0,"o":"m 454 1000 b 760 760 650 1000 760 907 b 571 531 760 654 689 558 b 803 276 700 514 803 413 b 463 0 803 107 689 0 l 118 0 l 118 1000 m 169 506 l 169 46 l 469 46 b 749 276 649 46 749 129 b 478 506 749 411 646 506 m 169 954 l 169 550 l 474 550 b 708 758 628 550 708 643 b 463 954 708 882 618 954 "},"Г":{"ha":674,"x_min":0,"x_max":0,"o":"m 646 1000 l 646 954 l 169 954 l 169 0 l 118 0 l 118 1000 "},"Д":{"ha":836,"x_min":0,"x_max":0,"o":"m 718 1000 l 718 47 l 788 47 l 788 -194 l 740 -194 l 740 0 l 61 0 l 61 -194 l 14 -194 l 14 47 l 71 47 b 156 254 122 76 151 161 l 188 1000 m 208 263 b 125 47 204 158 176 88 l 667 47 l 667 953 l 238 953 l 208 263 "},"Е":{"ha":779,"x_min":0,"x_max":0,"o":"m 656 486 l 169 486 l 169 46 l 696 46 l 696 0 l 118 0 l 118 1000 l 696 1000 l 696 954 l 169 954 l 169 532 l 656 532 "},"Ж":{"ha":1142,"x_min":0,"x_max":0,"o":"m 119 1000 l 396 532 l 546 532 l 546 1000 l 596 1000 l 596 532 l 744 532 l 1022 1000 l 1081 1000 l 790 515 l 1121 0 l 1063 0 l 751 486 l 596 486 l 596 0 l 546 0 l 546 486 l 390 486 l 79 0 l 21 0 l 351 515 l 61 1000 "},"З":{"ha":817,"x_min":0,"x_max":0,"o":"m 407 -21 b 69 213 231 -21 99 63 l 124 213 b 408 24 149 90 258 24 b 686 278 578 24 686 119 b 439 507 686 425 586 507 l 325 507 l 325 553 l 433 553 b 661 769 575 553 661 643 b 411 976 661 899 565 976 b 138 788 260 976 164 910 l 83 788 b 413 1021 113 933 232 1021 b 714 775 590 1021 714 926 b 528 531 714 642 651 560 b 740 281 649 517 740 425 b 407 -21 740 90 607 -21 "},"И":{"ha":935,"x_min":0,"x_max":0,"o":"m 767 1000 l 817 1000 l 817 0 l 767 0 l 767 876 l 165 51 l 165 0 l 118 0 l 118 1000 l 165 1000 l 165 124 l 767 950 "},"Й":{"ha":935,"x_min":0,"x_max":0,"o":"m 767 1000 l 817 1000 l 817 0 l 767 0 l 767 876 l 165 51 l 165 0 l 118 0 l 118 1000 l 165 1000 l 165 124 l 767 950 m 461 1067 b 276 1222 357 1068 283 1111 l 324 1222 b 461 1108 328 1146 375 1108 b 599 1222 547 1108 594 1146 l 646 1222 b 461 1067 639 1111 565 1068 "},"К":{"ha":806,"x_min":0,"x_max":0,"o":"m 714 0 l 249 486 l 169 486 l 169 0 l 118 0 l 118 1000 l 169 1000 l 169 532 l 251 532 l 682 1000 l 744 1000 l 294 511 l 785 0 "},"Л":{"ha":861,"x_min":0,"x_max":0,"o":"m 743 0 l 692 0 l 692 953 l 244 953 l 178 181 b 28 0 165 42 128 0 l 28 54 b 122 167 88 54 114 75 l 197 1000 l 743 1000 "},"М":{"ha":1151,"x_min":0,"x_max":0,"o":"m 556 0 l 168 947 l 168 0 l 118 0 l 118 1000 l 199 1000 l 588 49 l 956 1000 l 1033 1000 l 1033 0 l 983 0 l 983 940 l 618 0 "},"Н":{"ha":939,"x_min":0,"x_max":0,"o":"m 821 1000 l 821 0 l 769 0 l 769 488 l 169 488 l 169 0 l 118 0 l 118 1000 l 169 1000 l 169 535 l 769 535 l 769 1000 "},"О":{"ha":1033,"x_min":0,"x_max":0,"o":"m 517 25 b 904 499 721 25 904 172 b 517 975 904 808 735 975 b 129 499 299 975 129 808 b 517 25 129 179 313 25 m 517 -21 b 76 499 272 -21 76 165 b 517 1021 76 835 274 1021 b 957 499 760 1021 957 835 b 517 -21 957 158 761 -21 "},"П":{"ha":939,"x_min":0,"x_max":0,"o":"m 821 1000 l 821 0 l 769 0 l 769 953 l 169 953 l 169 0 l 118 0 l 118 1000 "},"Р":{"ha":867,"x_min":0,"x_max":0,"o":"m 458 1000 b 797 692 674 1000 797 883 b 456 394 797 508 651 394 l 169 394 l 169 0 l 118 0 l 118 1000 m 169 954 l 169 442 l 456 442 b 743 692 631 442 743 536 b 463 954 743 856 639 954 "},"С":{"ha":993,"x_min":0,"x_max":0,"o":"m 525 -21 b 76 489 260 -21 76 182 b 519 1021 76 833 272 1021 b 924 707 726 1021 889 914 l 874 707 b 519 975 836 886 701 975 b 129 489 300 975 129 800 b 525 25 129 203 300 25 b 871 324 711 25 844 133 l 922 324 b 525 -21 897 128 750 -21 "},"Т":{"ha":782,"x_min":0,"x_max":0,"o":"m 754 954 l 417 954 l 417 0 l 365 0 l 365 954 l 28 954 l 28 1000 l 754 1000 "},"У":{"ha":754,"x_min":0,"x_max":0,"o":"m 417 239 b 229 -21 339 54 325 -21 b 174 -12 214 -21 189 -17 l 174 31 b 232 24 193 26 215 24 b 367 239 289 24 308 76 l 344 239 l 14 1000 l 68 1000 l 381 279 l 689 1000 l 740 1000 "},"Ф":{"ha":1071,"x_min":0,"x_max":0,"o":"m 561 1021 l 561 972 b 994 499 800 969 994 811 b 561 28 994 210 801 31 l 561 -21 l 510 -21 l 510 28 b 76 499 268 31 76 210 b 510 972 76 811 269 969 l 510 1021 m 942 499 b 561 926 942 763 793 924 l 561 74 b 942 499 763 76 942 224 m 129 499 b 510 74 129 224 308 76 l 510 926 b 129 499 278 924 129 763 "},"Х":{"ha":828,"x_min":0,"x_max":0,"o":"m 449 517 l 800 0 l 739 0 l 414 479 l 88 0 l 28 0 l 383 519 l 56 1000 l 117 1000 l 418 557 l 731 1000 l 788 1000 "},"Ц":{"ha":939,"x_min":0,"x_max":0,"o":"m 118 1000 l 169 1000 l 169 47 l 769 47 l 769 1000 l 821 1000 l 821 47 l 890 47 l 890 -194 l 843 -194 l 843 0 l 118 0 "},"Ч":{"ha":868,"x_min":0,"x_max":0,"o":"m 750 1000 l 750 0 l 699 0 l 699 519 b 413 358 650 415 547 358 b 97 671 217 358 97 464 l 97 1000 l 149 1000 l 149 665 b 428 404 149 488 251 404 b 699 669 600 404 699 510 l 699 1000 "},"Ш":{"ha":1371,"x_min":0,"x_max":0,"o":"m 1253 1000 l 1253 0 l 118 0 l 118 1000 l 169 1000 l 169 47 l 660 47 l 660 1000 l 711 1000 l 711 47 l 1201 47 l 1201 1000 "},"Щ":{"ha":1371,"x_min":0,"x_max":0,"o":"m 1253 1000 l 1253 47 l 1322 47 l 1322 -194 l 1275 -194 l 1275 0 l 118 0 l 118 1000 l 169 1000 l 169 47 l 660 47 l 660 1000 l 711 1000 l 711 47 l 1201 47 l 1201 1000 "},"Ъ":{"ha":1117,"x_min":0,"x_max":0,"o":"m 14 1000 l 419 1000 l 419 606 l 708 606 b 1047 297 924 606 1047 489 b 706 0 1047 114 901 0 l 368 0 l 368 954 l 14 954 m 419 560 l 419 47 l 706 47 b 993 297 881 47 993 142 b 713 560 993 461 889 560 "},"Ы":{"ha":1031,"x_min":0,"x_max":0,"o":"m 169 1000 l 169 606 l 458 606 b 797 297 674 606 797 489 b 456 0 797 114 651 0 l 118 0 l 118 1000 m 169 560 l 169 47 l 456 47 b 743 297 631 47 743 142 b 463 560 743 461 639 560 m 913 1000 l 913 0 l 861 0 l 861 1000 "},"Ь":{"ha":867,"x_min":0,"x_max":0,"o":"m 169 1000 l 169 606 l 458 606 b 797 297 674 606 797 489 b 456 0 797 114 651 0 l 118 0 l 118 1000 m 169 560 l 169 47 l 456 47 b 743 297 631 47 743 142 b 463 560 743 461 639 560 "},"Э":{"ha":993,"x_min":0,"x_max":0,"o":"m 486 -21 b 71 324 246 -21 97 121 l 124 324 b 486 25 150 133 290 25 b 864 486 719 25 860 206 l 356 486 l 356 532 l 863 532 b 476 975 851 822 688 975 b 121 707 292 975 157 886 l 69 707 b 476 1021 103 914 268 1021 b 917 500 724 1021 917 844 b 486 -21 917 196 765 -21 "},"Ю":{"ha":1394,"x_min":0,"x_max":0,"o":"m 892 -21 b 465 488 664 -21 469 161 l 163 488 l 163 0 l 111 0 l 111 1000 l 163 1000 l 163 535 l 465 535 b 892 1021 479 867 669 1021 b 1318 499 1121 1021 1318 835 b 892 -21 1318 143 1122 -21 m 892 25 b 1265 499 1082 25 1265 157 b 892 975 1265 808 1096 975 b 518 499 669 975 518 807 b 892 25 518 179 701 25 "},"Я":{"ha":879,"x_min":0,"x_max":0,"o":"m 28 0 l 304 428 b 82 696 197 453 82 521 b 382 1000 82 890 199 1000 l 761 1000 l 761 0 l 710 0 l 710 422 l 358 422 l 89 0 m 136 696 b 372 469 136 553 236 469 l 710 469 l 710 954 l 375 954 b 136 696 206 954 136 832 "},"а":{"ha":722,"x_min":0,"x_max":0,"o":"m 93 542 b 361 743 104 661 211 743 b 618 511 511 743 618 657 l 618 0 l 578 0 l 569 129 b 308 -21 526 50 442 -21 b 69 182 175 -21 69 50 b 349 411 69 303 143 376 l 568 447 l 568 521 b 358 701 568 631 489 701 b 143 542 238 701 153 635 m 568 406 l 368 372 b 121 185 176 340 121 281 b 322 22 121 75 206 22 b 568 254 443 22 568 115 "},"б":{"ha":785,"x_min":0,"x_max":0,"o":"m 121 325 b 393 21 121 133 240 21 b 664 325 543 21 664 142 b 400 629 664 508 554 629 b 121 325 251 629 121 524 m 114 485 b 400 671 163 599 278 671 b 715 325 586 671 715 532 b 396 -21 715 118 571 -21 b 69 403 211 -21 69 85 b 338 906 69 721 168 865 b 549 1000 446 931 549 956 l 607 1000 b 365 872 607 921 438 888 b 114 485 197 836 149 736 "},"в":{"ha":692,"x_min":0,"x_max":0,"o":"m 111 0 l 111 722 l 383 722 b 610 557 515 722 610 672 b 460 379 610 464 553 406 b 636 199 554 360 636 303 b 382 0 636 60 525 0 m 378 44 b 586 196 479 44 586 68 b 379 354 586 299 482 354 l 161 354 l 161 44 l 378 44 m 561 551 b 382 678 561 640 500 678 l 161 678 l 161 400 l 376 400 b 561 551 461 400 561 458 "},"г":{"ha":526,"x_min":0,"x_max":0,"o":"m 111 0 l 111 722 l 499 722 l 499 678 l 161 678 l 161 0 "},"д":{"ha":724,"x_min":0,"x_max":0,"o":"m 85 44 b 132 156 111 68 129 88 l 160 722 l 613 722 l 613 44 l 668 44 l 668 -194 l 621 -194 l 621 0 l 75 0 l 75 -194 l 28 -194 l 28 44 m 182 165 b 133 44 179 103 157 68 l 563 44 l 563 678 l 207 678 l 182 165 "},"е":{"ha":789,"x_min":0,"x_max":0,"o":"m 699 192 b 407 -21 664 61 553 -21 b 69 361 215 -21 69 117 b 390 743 69 607 211 743 b 713 349 569 743 713 615 l 121 349 b 408 22 126 125 253 22 b 646 192 525 22 617 83 m 390 701 b 121 392 247 701 131 593 l 660 392 b 390 701 650 597 535 701 "},"ж":{"ha":969,"x_min":0,"x_max":0,"o":"m 114 722 l 338 415 l 461 415 l 461 722 l 508 722 l 508 415 l 631 415 l 856 722 l 914 722 l 669 393 l 963 0 l 903 0 l 628 371 l 508 371 l 508 0 l 461 0 l 461 371 l 342 371 l 67 0 l 7 0 l 300 393 l 56 722 "},"з":{"ha":649,"x_min":0,"x_max":0,"o":"m 332 701 b 106 528 204 701 124 632 l 54 528 b 333 743 78 657 181 743 b 567 557 472 743 567 672 b 417 379 567 464 510 406 b 593 199 511 360 593 303 b 331 -21 593 60 479 -21 b 50 204 169 -21 74 71 l 100 204 b 326 22 118 99 197 22 b 543 196 433 22 543 68 b 336 354 543 299 439 354 l 274 354 l 274 400 l 333 400 b 518 551 418 400 518 458 b 332 701 518 640 457 701 "},"и":{"ha":760,"x_min":0,"x_max":0,"o":"m 111 0 l 111 722 l 161 722 l 161 101 l 599 692 l 599 722 l 649 722 l 649 0 l 599 0 l 599 621 l 161 31 l 161 0 "},"й":{"ha":760,"x_min":0,"x_max":0,"o":"m 111 0 l 111 722 l 161 722 l 161 101 l 599 692 l 599 722 l 649 722 l 649 0 l 599 0 l 599 621 l 161 31 l 161 0 m 386 831 b 201 986 282 832 208 875 l 249 986 b 386 872 253 910 300 872 b 524 986 472 872 519 910 l 571 986 b 386 831 564 875 490 832 "},"к":{"ha":658,"x_min":0,"x_max":0,"o":"m 111 0 l 111 722 l 161 722 l 161 415 l 238 415 l 539 722 l 603 722 l 282 393 l 651 0 l 589 0 l 238 371 l 161 371 l 161 0 "},"л":{"ha":706,"x_min":0,"x_max":0,"o":"m 544 0 l 544 678 l 192 678 l 150 157 b 28 0 142 53 122 0 l 28 47 b 103 151 65 47 94 47 l 147 722 l 594 722 l 594 0 "},"м":{"ha":885,"x_min":0,"x_max":0,"o":"m 411 0 l 160 665 l 160 0 l 111 0 l 111 722 l 190 722 l 443 53 l 696 722 l 774 722 l 774 0 l 724 0 l 724 658 l 472 0 "},"н":{"ha":767,"x_min":0,"x_max":0,"o":"m 111 0 l 111 722 l 161 722 l 161 396 l 606 396 l 606 722 l 656 722 l 656 0 l 606 0 l 606 351 l 161 351 l 161 0 "},"о":{"ha":785,"x_min":0,"x_max":0,"o":"m 121 361 b 393 21 121 135 240 21 b 664 361 550 21 664 135 b 393 701 664 589 550 701 b 121 361 236 701 121 588 m 69 361 b 393 743 69 613 208 743 b 715 361 582 743 715 611 b 396 -21 715 110 579 -21 b 69 361 211 -21 69 113 "},"п":{"ha":767,"x_min":0,"x_max":0,"o":"m 111 0 l 111 722 l 656 722 l 656 0 l 606 0 l 606 678 l 161 678 l 161 0 "},"р":{"ha":789,"x_min":0,"x_max":0,"o":"m 151 722 l 160 571 b 421 743 203 671 294 743 b 719 371 593 743 719 624 b 414 -21 719 113 583 -21 b 161 144 293 -21 204 46 l 161 -250 l 111 -250 l 111 722 m 668 372 b 413 701 668 599 560 701 b 156 358 289 701 156 614 b 407 21 156 131 264 21 b 668 372 551 21 668 135 "},"с":{"ha":742,"x_min":0,"x_max":0,"o":"m 672 204 b 382 -21 649 72 535 -21 b 69 356 207 -21 69 108 b 385 743 69 617 215 743 b 668 528 535 743 644 657 l 615 528 b 386 701 597 632 507 701 b 119 353 239 701 119 589 b 385 22 119 126 242 22 b 621 204 507 22 603 99 "},"т":{"ha":656,"x_min":0,"x_max":0,"o":"m 303 0 l 303 678 l 21 678 l 21 722 l 635 722 l 635 678 l 353 678 l 353 0 "},"у":{"ha":681,"x_min":0,"x_max":0,"o":"m 394 -4 b 206 -271 318 -217 297 -271 b 135 -257 182 -271 154 -264 l 135 -215 b 207 -229 158 -224 186 -229 b 346 0 268 -229 288 -175 l 322 0 l 28 722 l 82 722 l 360 36 l 601 722 l 653 722 "},"ф":{"ha":1147,"x_min":0,"x_max":0,"o":"m 599 1000 l 599 572 b 821 743 636 671 714 743 b 1078 371 965 743 1078 624 b 814 -21 1078 113 956 -21 b 599 146 713 -21 636 46 l 599 -250 l 549 -250 l 549 146 b 333 -21 510 46 433 -21 b 69 371 192 -21 69 113 b 326 743 69 624 182 743 b 549 572 432 743 510 671 l 549 1000 m 1026 372 b 813 701 1026 599 932 701 b 597 358 717 701 597 614 b 807 21 597 131 692 21 b 1026 372 924 21 1026 135 m 121 372 b 340 21 121 135 224 21 b 550 358 456 21 550 131 b 335 701 550 614 431 701 b 121 372 215 701 121 599 "},"х":{"ha":700,"x_min":0,"x_max":0,"o":"m 376 381 l 672 0 l 610 0 l 343 344 l 88 0 l 28 0 l 313 381 l 40 722 l 104 722 l 347 417 l 571 722 l 629 722 "},"ц":{"ha":767,"x_min":0,"x_max":0,"o":"m 656 722 l 656 44 l 711 44 l 711 -194 l 664 -194 l 664 0 l 111 0 l 111 722 l 161 722 l 161 44 l 606 44 l 606 722 "},"ч":{"ha":746,"x_min":0,"x_max":0,"o":"m 147 722 l 147 454 b 353 247 147 317 228 247 b 585 497 478 247 585 356 l 585 722 l 635 722 l 635 0 l 585 0 l 585 353 b 342 206 535 250 433 206 b 97 451 203 206 97 288 l 97 722 "},"ш":{"ha":1121,"x_min":0,"x_max":0,"o":"m 1010 722 l 1010 0 l 111 0 l 111 722 l 161 722 l 161 44 l 536 44 l 536 722 l 586 722 l 586 44 l 960 44 l 960 722 "},"щ":{"ha":1121,"x_min":0,"x_max":0,"o":"m 1010 722 l 1010 44 l 1065 44 l 1065 -194 l 1018 -194 l 1018 0 l 111 0 l 111 722 l 161 722 l 161 44 l 536 44 l 536 722 l 586 722 l 586 44 l 960 44 l 960 722 "},"ъ":{"ha":878,"x_min":0,"x_max":0,"o":"m 340 722 l 340 463 l 518 463 b 808 243 717 463 808 363 b 504 0 808 83 710 0 l 290 0 l 290 678 l 14 678 l 14 722 m 340 418 l 340 44 l 510 44 b 757 242 689 44 757 113 b 517 418 757 340 692 418 "},"ы":{"ha":853,"x_min":0,"x_max":0,"o":"m 161 722 l 161 463 l 339 463 b 629 243 538 463 629 363 b 325 0 629 83 531 0 l 111 0 l 111 722 m 161 418 l 161 44 l 331 44 b 578 242 510 44 578 113 b 338 418 578 340 513 418 m 692 0 l 692 722 l 742 722 l 742 0 "},"ь":{"ha":699,"x_min":0,"x_max":0,"o":"m 161 722 l 161 463 l 339 463 b 629 243 538 463 629 363 b 325 0 629 83 531 0 l 111 0 l 111 722 m 161 418 l 161 44 l 331 44 b 578 242 510 44 578 113 b 338 418 578 340 513 418 "},"э":{"ha":742,"x_min":0,"x_max":0,"o":"m 121 204 b 371 22 139 99 242 22 b 622 351 518 22 621 125 l 276 351 l 276 396 l 621 396 b 374 701 608 603 513 701 b 126 528 236 701 144 632 l 74 528 b 375 743 97 657 210 743 b 672 356 546 743 672 617 b 369 -21 672 110 549 -21 b 69 204 214 -21 93 72 "},"ю":{"ha":1065,"x_min":0,"x_max":0,"o":"m 111 0 l 111 722 l 161 722 l 161 396 l 378 396 b 688 743 390 624 518 743 b 996 361 869 743 996 611 b 690 -21 996 110 868 -21 b 378 351 514 -21 381 108 l 161 351 l 161 0 m 429 361 b 688 21 429 135 542 21 b 944 361 838 21 944 135 b 688 701 944 589 839 701 b 429 361 538 701 429 588 "},"я":{"ha":726,"x_min":0,"x_max":0,"o":"m 28 0 l 257 292 b 97 494 168 311 97 386 b 378 722 97 642 186 722 l 615 722 l 615 0 l 565 0 l 565 288 l 311 288 l 83 0 m 565 332 l 565 678 l 372 678 b 149 496 206 678 149 613 b 319 332 149 394 214 332 "},"ё":{"ha":789,"x_min":0,"x_max":0,"o":"m 699 192 b 407 -21 664 61 553 -21 b 69 361 215 -21 69 117 b 390 743 69 607 211 743 b 713 349 569 743 713 615 l 121 349 b 408 22 126 125 253 22 b 646 192 525 22 617 83 m 390 701 b 121 392 247 701 131 593 l 660 392 b 390 701 650 597 535 701 m 222 921 l 222 1000 l 286 1000 l 286 921 m 494 921 l 494 1000 l 558 1000 l 558 921 "},"ђ":{"ha":760,"x_min":0,"x_max":0,"o":"m 111 0 l 111 861 l 36 861 l 36 904 l 111 904 l 111 1000 l 161 1000 l 161 904 l 413 904 l 413 861 l 161 861 l 161 586 b 408 743 207 688 304 743 b 656 500 558 743 656 649 l 656 -107 b 518 -271 656 -215 606 -271 b 421 -256 488 -271 456 -267 l 421 -211 b 511 -226 450 -221 488 -226 b 606 -104 572 -226 606 -193 l 606 497 b 397 701 606 624 529 701 b 161 451 285 701 161 606 l 161 0 "},"ѓ":{"ha":526,"x_min":0,"x_max":0,"o":"m 111 0 l 111 722 l 499 722 l 499 678 l 161 678 l 161 0 m 349 1021 l 422 1021 l 253 831 l 206 831 "},"є":{"ha":742,"x_min":0,"x_max":0,"o":"m 672 204 b 382 -21 649 72 535 -21 b 69 356 207 -21 69 108 b 385 743 69 617 215 743 b 668 528 535 743 644 657 l 615 528 b 386 701 597 632 507 701 b 121 396 247 701 135 603 l 465 396 l 465 351 l 119 351 b 385 22 119 125 242 22 b 621 204 507 22 603 99 "},"ѕ":{"ha":682,"x_min":0,"x_max":0,"o":"m 560 189 b 311 360 560 285 490 332 b 78 557 175 381 78 440 b 333 743 78 658 161 743 b 610 549 479 743 589 665 l 557 549 b 329 701 546 635 453 701 b 129 561 192 701 129 636 b 346 400 129 472 185 428 b 613 190 538 367 613 306 b 338 -21 613 82 510 -21 b 56 185 172 -21 74 65 l 108 185 b 339 22 118 90 206 22 b 560 189 482 22 560 103 "},"і":{"ha":256,"x_min":0,"x_max":0,"o":"m 103 0 l 103 722 l 153 722 l 153 0 m 96 921 l 96 1000 l 160 1000 l 160 921 "},"ї":{"ha":256,"x_min":0,"x_max":0,"o":"m 103 0 l 103 722 l 153 722 l 153 0 m -40 921 l -40 1000 l 24 1000 l 24 921 m 232 921 l 232 1000 l 296 1000 l 296 921 "},"ј":{"ha":256,"x_min":0,"x_max":0,"o":"m -82 -211 b 8 -226 -53 -221 -15 -226 b 103 -104 69 -226 103 -193 l 103 722 l 153 722 l 153 -107 b 15 -271 153 -215 103 -271 b -82 -256 -15 -271 -47 -267 m 96 921 l 96 1000 l 160 1000 l 160 921 "},"љ":{"ha":1090,"x_min":0,"x_max":0,"o":"m 553 722 l 553 463 l 731 463 b 1021 243 929 463 1021 363 b 717 0 1021 83 922 0 l 503 0 l 503 678 l 194 678 l 153 157 b 28 0 144 53 122 0 l 28 47 b 103 151 65 47 94 47 l 147 722 m 553 418 l 553 44 l 722 44 b 969 242 901 44 969 113 b 729 418 969 340 904 418 "},"њ":{"ha":1151,"x_min":0,"x_max":0,"o":"m 111 0 l 111 722 l 161 722 l 161 396 l 564 396 l 564 722 l 614 722 l 614 463 l 792 463 b 1082 243 990 463 1082 363 b 778 0 1082 83 983 0 l 564 0 l 564 351 l 161 351 l 161 0 m 614 418 l 614 44 l 783 44 b 1031 242 963 44 1031 113 b 790 418 1031 340 965 418 "},"ћ":{"ha":760,"x_min":0,"x_max":0,"o":"m 111 0 l 111 861 l 36 861 l 36 904 l 111 904 l 111 1000 l 161 1000 l 161 904 l 413 904 l 413 861 l 161 861 l 161 586 b 408 743 207 688 304 743 b 656 500 558 743 656 649 l 656 0 l 606 0 l 606 497 b 397 701 606 624 529 701 b 161 450 285 701 161 604 l 161 0 "},"ќ":{"ha":658,"x_min":0,"x_max":0,"o":"m 111 0 l 111 722 l 161 722 l 161 415 l 238 415 l 539 722 l 603 722 l 282 393 l 651 0 l 589 0 l 238 371 l 161 371 l 161 0 m 406 1021 l 479 1021 l 310 831 l 263 831 "},"ў":{"ha":681,"x_min":0,"x_max":0,"o":"m 394 -4 b 206 -271 318 -217 297 -271 b 135 -257 182 -271 154 -264 l 135 -215 b 207 -229 158 -224 186 -229 b 346 0 268 -229 288 -175 l 322 0 l 28 722 l 82 722 l 360 36 l 601 722 l 653 722 m 349 831 b 164 986 244 832 171 875 l 211 986 b 349 872 215 910 263 872 b 486 986 435 872 482 910 l 533 986 b 349 831 526 875 453 832 "},"џ":{"ha":767,"x_min":0,"x_max":0,"o":"m 656 722 l 656 0 l 407 0 l 407 -194 l 360 -194 l 360 0 l 111 0 l 111 722 l 161 722 l 161 47 l 606 47 l 606 722 "},"Ѣ":{"ha":1086,"x_min":0,"x_max":0,"o":"m 338 0 l 338 954 l 28 954 l 28 1000 l 699 1000 l 699 954 l 389 954 l 389 606 l 678 606 b 1017 297 893 606 1017 489 b 675 0 1017 114 871 0 m 389 560 l 389 47 l 675 47 b 963 297 850 47 963 142 b 682 560 963 461 858 560 "},"ѣ":{"ha":699,"x_min":0,"x_max":0,"o":"m 161 679 l 161 463 l 339 463 b 629 243 538 463 629 363 b 325 0 629 83 531 0 l 111 0 l 111 679 l 7 679 l 7 722 l 111 722 l 111 896 l 161 896 l 161 722 l 333 722 l 333 679 m 161 418 l 161 44 l 331 44 b 578 242 510 44 578 113 b 338 418 578 340 513 418 "},"Ѳ":{"ha":1033,"x_min":0,"x_max":0,"o":"m 517 -21 b 76 499 272 -21 76 165 b 517 1021 76 835 274 1021 b 957 499 760 1021 957 835 b 517 -21 957 158 761 -21 m 517 25 b 904 488 718 25 900 168 l 129 488 b 517 25 133 175 314 25 m 517 975 b 129 535 307 975 142 821 l 903 535 b 517 975 890 821 725 975 "},"ѳ":{"ha":785,"x_min":0,"x_max":0,"o":"m 69 361 b 393 743 69 613 208 743 b 715 361 582 743 715 611 b 396 -21 715 110 579 -21 b 69 361 211 -21 69 113 m 393 21 b 664 349 547 21 660 131 l 121 349 b 393 21 125 131 243 21 m 393 701 b 121 392 243 701 131 597 l 663 392 b 393 701 653 599 543 701 "},"Ѵ":{"ha":858,"x_min":0,"x_max":0,"o":"m 67 1000 l 428 40 l 794 1000 l 844 1000 l 467 0 l 390 0 l 14 1000 "},"ѵ":{"ha":681,"x_min":0,"x_max":0,"o":"m 653 722 l 374 0 l 307 0 l 28 722 l 82 722 l 340 44 l 601 722 "},"Ґ":{"ha":674,"x_min":0,"x_max":0,"o":"m 599 1000 l 599 1194 l 646 1194 l 646 954 l 169 954 l 169 0 l 118 0 l 118 1000 "},"ґ":{"ha":526,"x_min":0,"x_max":0,"o":"m 111 0 l 111 722 l 451 722 l 451 917 l 499 917 l 499 678 l 161 678 l 161 0 "},"Ғ":{"ha":674,"x_min":0,"x_max":0,"o":"m 646 954 l 169 954 l 169 532 l 479 532 l 479 486 l 169 486 l 169 0 l 118 0 l 118 486 l -7 486 l -7 532 l 118 532 l 118 1000 l 646 1000 "},"ғ":{"ha":526,"x_min":0,"x_max":0,"o":"m 161 678 l 161 396 l 382 396 l 382 351 l 161 351 l 161 0 l 111 0 l 111 351 l 42 351 l 42 396 l 111 396 l 111 722 l 499 722 l 499 678 "},"Җ":{"ha":1138,"x_min":0,"x_max":0,"o":"m 119 1000 l 396 532 l 546 532 l 546 1000 l 596 1000 l 596 532 l 744 532 l 1022 1000 l 1081 1000 l 790 515 l 1090 47 l 1151 47 l 1151 -194 l 1104 -194 l 1104 0 l 1063 0 l 751 486 l 596 486 l 596 0 l 546 0 l 546 486 l 390 486 l 79 0 l 21 0 l 351 515 l 61 1000 "},"җ":{"ha":971,"x_min":0,"x_max":0,"o":"m 114 722 l 338 415 l 461 415 l 461 722 l 508 722 l 508 415 l 631 415 l 856 722 l 914 722 l 669 393 l 929 44 l 978 44 l 978 -194 l 931 -194 l 931 0 l 903 0 l 628 371 l 508 371 l 508 0 l 461 0 l 461 371 l 342 371 l 67 0 l 7 0 l 300 393 l 56 722 "},"Ҙ":{"ha":817,"x_min":0,"x_max":0,"o":"m 596 -199 b 446 -331 596 -271 533 -331 b 289 -217 364 -331 300 -292 l 335 -217 b 447 -290 340 -265 388 -290 b 551 -200 510 -290 551 -251 b 392 -107 551 -144 507 -107 l 397 -21 b 69 213 226 -18 97 65 l 124 213 b 408 24 149 90 258 24 b 686 278 578 24 686 119 b 439 507 686 425 586 507 l 325 507 l 325 553 l 433 553 b 661 769 575 553 661 643 b 411 976 661 899 565 976 b 138 788 260 976 164 910 l 83 788 b 413 1021 113 933 232 1021 b 714 775 590 1021 714 926 b 528 531 714 642 651 560 b 740 281 649 517 740 425 b 440 -19 740 101 621 -7 l 440 -72 b 596 -199 543 -82 596 -132 "},"ҙ":{"ha":649,"x_min":0,"x_max":0,"o":"m 503 -199 b 353 -331 503 -271 440 -331 b 196 -217 271 -331 207 -292 l 242 -217 b 354 -290 247 -265 294 -290 b 458 -200 417 -290 458 -251 b 299 -107 458 -144 414 -107 l 306 -19 b 50 204 160 -11 72 78 l 100 204 b 326 22 118 99 197 22 b 543 196 433 22 543 68 b 336 354 543 299 439 354 l 274 354 l 274 400 l 333 400 b 518 551 418 400 518 458 b 332 701 518 640 457 701 b 106 528 204 701 124 632 l 54 528 b 333 743 78 657 181 743 b 567 557 472 743 567 672 b 417 379 567 464 510 406 b 593 199 511 360 593 303 b 347 -21 593 64 488 -15 l 347 -72 b 503 -199 450 -82 503 -132 "},"Қ":{"ha":806,"x_min":0,"x_max":0,"o":"m 744 1000 l 294 511 l 739 47 l 806 47 l 806 -194 l 758 -194 l 758 0 l 714 0 l 249 486 l 169 486 l 169 0 l 118 0 l 118 1000 l 169 1000 l 169 532 l 251 532 l 682 1000 "},"қ":{"ha":658,"x_min":0,"x_max":0,"o":"m 111 0 l 111 722 l 161 722 l 161 415 l 238 415 l 539 722 l 603 722 l 282 393 l 610 44 l 664 44 l 664 -194 l 617 -194 l 617 0 l 588 0 l 238 371 l 161 371 l 161 0 "},"Ҝ":{"ha":847,"x_min":0,"x_max":0,"o":"m 251 88 l 251 486 l 169 486 l 169 0 l 118 0 l 118 1000 l 169 1000 l 169 532 l 251 532 l 251 821 l 293 821 l 293 532 l 724 1000 l 786 1000 l 336 511 l 826 0 l 757 0 l 293 485 l 293 88 "},"ҝ":{"ha":686,"x_min":0,"x_max":0,"o":"m 261 557 l 261 415 l 265 415 l 567 722 l 631 722 l 310 393 l 679 0 l 617 0 l 265 371 l 261 371 l 261 74 l 217 74 l 217 371 l 161 371 l 161 0 l 111 0 l 111 722 l 161 722 l 161 415 l 217 415 l 217 557 "},"Ҡ":{"ha":1056,"x_min":0,"x_max":0,"o":"m 964 0 l 499 486 l 419 486 l 419 0 l 368 0 l 368 954 l 14 954 l 14 1000 l 419 1000 l 419 532 l 501 532 l 932 1000 l 994 1000 l 544 511 l 1035 0 "},"ҡ":{"ha":838,"x_min":0,"x_max":0,"o":"m 290 0 l 290 678 l 14 678 l 14 722 l 340 722 l 340 415 l 417 415 l 718 722 l 782 722 l 461 393 l 831 0 l 768 0 l 417 371 l 340 371 l 340 0 "},"Ң":{"ha":939,"x_min":0,"x_max":0,"o":"m 821 1000 l 821 47 l 890 47 l 890 -194 l 843 -194 l 843 0 l 769 0 l 769 488 l 169 488 l 169 0 l 118 0 l 118 1000 l 169 1000 l 169 535 l 769 535 l 769 1000 "},"ң":{"ha":767,"x_min":0,"x_max":0,"o":"m 111 0 l 111 722 l 161 722 l 161 396 l 606 396 l 606 722 l 656 722 l 656 44 l 711 44 l 711 -194 l 664 -194 l 664 0 l 606 0 l 606 351 l 161 351 l 161 0 "},"Ҫ":{"ha":993,"x_min":0,"x_max":0,"o":"m 774 -207 b 608 -326 750 -283 682 -326 b 458 -187 519 -326 458 -274 b 581 -17 458 -121 508 -61 b 525 -21 563 -19 544 -21 b 76 489 260 -21 76 182 b 519 1021 76 833 272 1021 b 924 707 726 1021 889 914 l 874 707 b 519 975 836 886 701 975 b 129 489 300 975 129 800 b 525 25 129 203 300 25 b 871 324 711 25 844 133 l 922 324 b 728 29 906 194 828 78 b 504 -183 604 -31 504 -90 b 611 -285 504 -250 546 -285 b 725 -207 669 -285 708 -254 "},"ҫ":{"ha":742,"x_min":0,"x_max":0,"o":"m 596 -207 b 431 -326 572 -283 504 -326 b 281 -187 342 -326 281 -274 b 399 -21 281 -122 329 -64 l 382 -21 b 69 356 207 -21 69 108 b 385 743 69 617 215 743 b 668 528 535 743 644 657 l 615 528 b 386 701 597 632 507 701 b 119 353 239 701 119 589 b 385 22 119 126 242 22 b 621 204 507 22 603 99 l 672 204 b 493 -3 654 103 588 32 b 326 -183 400 -37 326 -110 b 433 -285 326 -250 368 -285 b 547 -207 492 -285 531 -254 "},"Ү":{"ha":861,"x_min":0,"x_max":0,"o":"m 69 1000 l 429 440 l 794 1000 l 847 1000 l 456 390 l 456 0 l 404 0 l 404 393 l 14 1000 "},"ү":{"ha":681,"x_min":0,"x_max":0,"o":"m 315 -250 l 315 0 l 28 722 l 82 722 l 340 50 l 601 722 l 653 722 l 365 0 l 365 -250 "},"Ұ":{"ha":861,"x_min":0,"x_max":0,"o":"m 69 1000 l 429 440 l 794 1000 l 847 1000 l 478 425 l 667 425 l 667 379 l 456 379 l 456 0 l 404 0 l 404 379 l 193 379 l 193 425 l 383 425 l 14 1000 "},"ұ":{"ha":681,"x_min":0,"x_max":0,"o":"m 653 722 l 382 44 l 522 44 l 522 0 l 365 0 l 365 -250 l 315 -250 l 315 0 l 154 0 l 154 44 l 297 44 l 28 722 l 82 722 l 340 50 l 601 722 "},"Ҳ":{"ha":826,"x_min":0,"x_max":0,"o":"m 449 517 l 768 47 l 829 47 l 829 -194 l 782 -194 l 782 0 l 739 0 l 414 479 l 88 0 l 28 0 l 383 519 l 56 1000 l 117 1000 l 418 557 l 731 1000 l 788 1000 "},"ҳ":{"ha":699,"x_min":0,"x_max":0,"o":"m 376 381 l 638 44 l 685 44 l 685 -194 l 638 -194 l 638 0 l 610 0 l 343 344 l 88 0 l 28 0 l 313 381 l 40 722 l 104 722 l 347 417 l 571 722 l 629 722 "},"Ҹ":{"ha":868,"x_min":0,"x_max":0,"o":"m 407 88 l 407 358 b 97 671 214 360 97 465 l 97 1000 l 149 1000 l 149 665 b 407 404 149 494 243 411 l 407 821 l 449 821 l 449 404 b 699 667 607 413 699 514 l 699 1000 l 750 1000 l 750 0 l 699 0 l 699 519 b 449 360 654 425 565 369 l 449 88 "},"ҹ":{"ha":746,"x_min":0,"x_max":0,"o":"m 383 557 l 383 249 b 585 504 497 265 585 368 l 585 722 l 635 722 l 635 0 l 585 0 l 585 353 b 383 208 542 265 463 221 l 383 74 l 339 74 l 339 206 b 97 451 201 207 97 289 l 97 722 l 147 722 l 147 454 b 339 247 147 321 221 253 l 339 557 "},"Һ":{"ha":868,"x_min":0,"x_max":0,"o":"m 118 0 l 118 1000 l 169 1000 l 169 486 b 456 642 219 588 324 642 b 771 329 643 642 771 539 l 771 0 l 719 0 l 719 335 b 440 596 719 515 607 596 b 169 324 268 596 169 485 l 169 0 "},"һ":{"ha":760,"x_min":0,"x_max":0,"o":"m 111 0 l 111 1000 l 161 1000 l 161 458 b 408 615 207 560 304 615 b 656 372 558 615 656 521 l 656 0 l 606 0 l 606 369 b 397 574 606 496 529 574 b 161 324 285 574 161 478 l 161 0 "},"Ӏ":{"ha":288,"x_min":0,"x_max":0,"o":"m 169 1000 l 169 0 l 118 0 l 118 1000 "},"Ӌ":{"ha":868,"x_min":0,"x_max":0,"o":"m 750 1000 l 750 47 l 819 47 l 819 -194 l 772 -194 l 772 0 l 699 0 l 699 519 b 413 358 650 415 547 358 b 97 671 217 358 97 464 l 97 1000 l 149 1000 l 149 665 b 428 404 149 488 251 404 b 699 679 604 404 699 513 l 699 1000 "},"ӌ":{"ha":746,"x_min":0,"x_max":0,"o":"m 147 722 l 147 454 b 353 247 147 317 228 247 b 585 499 478 247 585 357 l 585 722 l 635 722 l 635 44 l 690 44 l 690 -194 l 643 -194 l 643 0 l 585 0 l 585 353 b 342 206 535 250 433 206 b 97 451 203 206 97 288 l 97 722 "},"ӏ":{"ha":272,"x_min":0,"x_max":0,"o":"m 161 0 l 111 0 l 111 1000 l 161 1000 "},"Ә":{"ha":993,"x_min":0,"x_max":0,"o":"m 483 -21 b 63 493 214 -21 83 165 l 864 493 b 489 975 863 813 708 975 b 122 721 285 975 165 890 l 71 721 b 489 1021 115 928 276 1021 b 917 500 736 1021 917 844 b 483 -21 917 193 749 -21 m 483 25 b 861 447 694 25 843 190 l 122 447 b 483 25 139 160 279 25 "},"ә":{"ha":789,"x_min":0,"x_max":0,"o":"m 90 531 b 396 743 125 661 250 743 b 719 361 583 743 719 604 b 401 -21 719 117 581 -21 b 76 374 222 -21 76 107 l 668 374 b 394 700 663 596 549 700 b 143 531 278 700 172 639 m 401 21 b 667 331 543 21 658 131 l 128 331 b 401 21 138 125 256 21 "},"Ӣ":{"ha":935,"x_min":0,"x_max":0,"o":"m 767 1000 l 817 1000 l 817 0 l 767 0 l 767 876 l 165 51 l 165 0 l 118 0 l 118 1000 l 165 1000 l 165 124 l 767 950 m 307 1154 l 307 1199 l 626 1199 l 626 1154 "},"ӣ":{"ha":760,"x_min":0,"x_max":0,"o":"m 111 0 l 111 722 l 161 722 l 161 101 l 599 692 l 599 722 l 649 722 l 649 0 l 599 0 l 599 621 l 161 31 l 161 0 m 219 918 l 219 963 l 539 963 l 539 918 "},"Ө":{"ha":1033,"x_min":0,"x_max":0,"o":"m 517 -21 b 76 499 272 -21 76 165 b 517 1021 76 835 274 1021 b 957 499 760 1021 957 835 b 517 -21 957 158 761 -21 m 517 25 b 904 488 718 25 900 168 l 129 488 b 517 25 133 175 314 25 m 517 975 b 129 535 307 975 142 821 l 903 535 b 517 975 890 821 725 975 "},"ө":{"ha":785,"x_min":0,"x_max":0,"o":"m 69 361 b 393 743 69 613 208 743 b 715 361 582 743 715 611 b 396 -21 715 110 579 -21 b 69 361 211 -21 69 113 m 393 21 b 664 349 547 21 660 131 l 121 349 b 393 21 125 131 243 21 m 393 701 b 121 392 243 701 131 597 l 663 392 b 393 701 653 599 543 701 "},"Ӯ":{"ha":754,"x_min":0,"x_max":0,"o":"m 417 239 b 229 -21 339 54 325 -21 b 174 -12 214 -21 189 -17 l 174 31 b 232 24 193 26 215 24 b 367 239 289 24 308 76 l 344 239 l 14 1000 l 68 1000 l 381 279 l 689 1000 l 740 1000 m 217 1154 l 217 1199 l 536 1199 l 536 1154 "},"ӯ":{"ha":681,"x_min":0,"x_max":0,"o":"m 394 -4 b 206 -271 318 -217 297 -271 b 135 -257 182 -271 154 -264 l 135 -215 b 207 -229 158 -224 186 -229 b 346 0 268 -229 288 -175 l 322 0 l 28 722 l 82 722 l 360 36 l 601 722 l 653 722 m 181 918 l 181 963 l 500 963 l 500 918 "},"‒":{"ha":750,"x_min":0,"x_max":0,"o":"m 653 424 l 97 424 l 97 471 l 653 471 "},"–":{"ha":556,"x_min":0,"x_max":0,"o":"m 556 424 l 0 424 l 0 471 l 556 471 "},"—":{"ha":833,"x_min":0,"x_max":0,"o":"m 833 424 l 0 424 l 0 471 l 833 471 "},"―":{"ha":556,"x_min":0,"x_max":0,"o":"m 556 424 l 0 424 l 0 471 l 556 471 "},"‘":{"ha":375,"x_min":0,"x_max":0,"o":"m 144 808 b 274 1000 144 915 192 975 l 274 960 b 197 813 219 938 197 896 l 222 813 l 222 724 l 144 724 "},"’":{"ha":375,"x_min":0,"x_max":0,"o":"m 231 915 b 101 724 231 808 183 749 l 101 764 b 178 911 156 786 178 828 l 153 911 l 153 1000 l 231 1000 "},"‚":{"ha":375,"x_min":0,"x_max":0,"o":"m 231 4 b 101 -187 231 -103 183 -162 l 101 -147 b 178 0 156 -125 178 -83 l 153 0 l 153 89 l 231 89 "},"“":{"ha":553,"x_min":0,"x_max":0,"o":"m 149 808 b 278 1000 149 915 196 975 l 278 960 b 201 813 224 938 201 896 l 226 813 l 226 724 l 149 724 m 322 808 b 451 1000 322 915 369 975 l 451 960 b 375 813 397 938 375 896 l 400 813 l 400 724 l 322 724 "},"”":{"ha":549,"x_min":0,"x_max":0,"o":"m 231 915 b 101 724 231 808 183 749 l 101 764 b 178 911 156 786 178 828 l 153 911 l 153 1000 l 231 1000 m 404 915 b 275 724 404 808 357 749 l 275 764 b 351 911 329 786 351 828 l 326 911 l 326 1000 l 404 1000 "},"„":{"ha":549,"x_min":0,"x_max":0,"o":"m 231 4 b 101 -187 231 -103 183 -162 l 101 -147 b 178 0 156 -125 178 -83 l 153 0 l 153 89 l 231 89 m 404 4 b 275 -187 404 -103 357 -162 l 275 -147 b 351 0 329 -125 351 -83 l 326 0 l 326 89 l 404 89 "},"†":{"ha":833,"x_min":0,"x_max":0,"o":"m 442 1000 l 442 706 l 722 706 l 722 658 l 442 658 l 442 0 l 392 0 l 392 658 l 111 658 l 111 706 l 392 706 l 392 1000 "},"‡":{"ha":833,"x_min":0,"x_max":0,"o":"m 442 1000 l 442 733 l 722 733 l 722 686 l 442 686 l 442 314 l 722 314 l 722 267 l 442 267 l 442 0 l 392 0 l 392 267 l 111 267 l 111 314 l 392 314 l 392 686 l 111 686 l 111 733 l 392 733 l 392 1000 "},"•":{"ha":410,"x_min":0,"x_max":0,"o":"m 125 361 l 125 522 l 285 522 l 285 361 "},"…":{"ha":814,"x_min":0,"x_max":0,"o":"m 156 0 l 156 89 l 219 89 l 219 0 m 375 0 l 375 89 l 439 89 l 439 0 m 594 0 l 594 89 l 658 89 l 658 0 "},"‰":{"ha":1658,"x_min":0,"x_max":0,"o":"m 378 0 l 329 0 l 764 972 l 813 972 m 129 758 b 304 564 129 622 213 564 b 481 758 394 564 481 622 b 304 953 481 894 396 953 b 129 758 213 953 129 894 m 528 758 b 304 524 528 601 425 524 b 82 758 183 524 82 601 b 304 993 82 915 185 993 b 528 758 425 993 528 915 m 664 214 b 839 19 664 78 747 19 b 1015 214 929 19 1015 78 b 839 408 1015 350 931 408 b 664 214 747 408 664 350 m 1063 214 b 839 -21 1063 57 960 -21 b 617 214 718 -21 617 57 b 839 449 617 371 719 449 b 1063 214 960 449 1063 371 m 1192 214 b 1367 19 1192 78 1275 19 b 1543 214 1457 19 1543 78 b 1367 408 1543 350 1458 408 b 1192 214 1275 408 1192 350 m 1590 214 b 1367 -21 1590 57 1488 -21 b 1144 214 1246 -21 1144 57 b 1367 449 1144 371 1247 449 b 1590 214 1488 449 1590 371 "},"‹":{"ha":388,"x_min":0,"x_max":0,"o":"m 90 438 l 256 722 l 297 722 l 150 435 l 283 125 l 242 125 "},"›":{"ha":388,"x_min":0,"x_max":0,"o":"m 146 125 l 104 125 l 238 435 l 90 722 l 132 722 l 297 438 "},"⁄":{"ha":375,"x_min":0,"x_max":0,"o":"m -108 -125 l -156 -125 l 475 1097 l 524 1097 "},"⁴":{"ha":472,"x_min":0,"x_max":0,"o":"m 315 917 l 315 749 l 408 749 l 408 708 l 315 708 l 315 583 l 268 583 l 268 708 l 63 708 l 63 750 l 179 1111 l 226 1111 l 108 749 l 268 749 l 268 776 l 275 917 "},"€":{"ha":833,"x_min":0,"x_max":0,"o":"m 485 -21 b 150 365 322 -21 176 78 l 39 365 l 50 410 l 146 410 b 143 486 143 433 143 460 b 146 569 143 515 143 543 l 39 569 l 50 614 l 150 614 b 481 993 178 904 322 993 b 792 760 643 993 763 906 l 740 760 b 478 949 714 882 619 949 b 203 614 349 949 228 875 l 638 614 l 626 569 l 199 569 b 196 486 196 543 196 515 b 199 410 196 458 196 433 l 582 410 l 571 365 l 203 365 b 486 24 226 107 350 24 b 743 213 626 24 717 90 l 794 213 b 485 -21 765 67 646 -21 "},"№":{"ha":1518,"x_min":0,"x_max":0,"o":"m 867 1000 l 867 0 l 813 0 l 168 928 l 168 0 l 118 0 l 118 1000 l 175 1000 l 819 79 l 819 1000 m 1081 713 b 1253 451 1081 518 1164 451 b 1422 713 1342 451 1422 518 b 1253 978 1422 908 1342 978 b 1081 713 1164 978 1081 907 m 1033 713 b 1253 1017 1033 915 1119 1017 b 1469 713 1386 1017 1469 918 b 1254 413 1469 507 1382 413 b 1033 713 1125 413 1033 510 m 1449 0 l 1040 0 l 1040 47 l 1449 47 "},"™":{"ha":1139,"x_min":0,"x_max":0,"o":"m 749 450 l 553 950 l 553 450 l 511 450 l 511 960 l 306 960 l 306 450 l 263 450 l 263 960 l 49 960 l 49 1000 l 576 1000 l 769 503 l 958 1000 l 1021 1000 l 1021 450 l 978 450 l 978 950 l 789 450 "},"Ω":{"ha":1033,"x_min":0,"x_max":0,"o":"m 574 47 b 904 503 747 47 904 165 b 517 975 904 808 735 975 b 129 503 281 975 129 808 b 446 47 129 194 278 54 l 460 47 l 460 0 l 132 0 l 132 47 l 301 47 b 76 503 174 115 76 272 b 517 1021 76 857 274 1021 b 957 503 760 1021 957 835 b 736 47 957 261 861 113 l 901 47 l 901 0 l 574 0 "},"℮":{"ha":1313,"x_min":0,"x_max":0,"o":"m 303 471 l 303 168 b 657 33 361 81 526 33 b 1018 169 788 33 940 79 l 1099 169 b 656 -21 997 51 849 -21 b 97 482 338 -21 97 190 b 656 993 97 774 349 993 b 1215 471 953 993 1215 781 m 1010 797 b 657 939 932 882 819 939 b 303 799 494 939 374 885 l 303 526 l 1010 526 "},"⅓":{"ha":1222,"x_min":0,"x_max":0,"o":"m 769 411 b 936 529 788 486 851 529 b 1085 390 1026 529 1085 469 b 989 269 1085 332 1051 288 b 1106 132 1042 258 1106 225 b 935 -21 1106 44 1036 -21 b 767 101 854 -21 781 35 l 817 101 b 933 19 832 53 885 19 b 1058 133 1014 19 1058 72 b 931 247 1058 210 997 247 l 899 247 l 899 285 l 938 285 b 1039 389 993 285 1039 335 b 935 490 1039 451 999 490 b 817 411 871 490 831 458 m 318 -125 l 271 -125 l 901 1097 l 950 1097 m 135 444 l 135 485 l 265 485 l 265 926 l 115 838 l 115 886 l 260 972 l 313 972 l 313 485 l 421 485 l 421 444 "},"⅔":{"ha":1222,"x_min":0,"x_max":0,"o":"m 336 -125 l 289 -125 l 919 1097 l 968 1097 m 92 861 b 265 993 111 939 175 993 b 429 840 367 993 429 922 b 331 654 429 764 390 714 l 169 493 l 422 493 l 422 451 l 113 451 l 113 493 l 300 685 b 382 840 339 724 382 769 b 265 954 382 885 354 954 b 139 861 200 954 156 917 m 794 411 b 961 529 813 486 876 529 b 1110 390 1051 529 1110 469 b 1014 269 1110 332 1076 288 b 1131 132 1067 258 1131 225 b 960 -21 1131 44 1061 -21 b 792 101 879 -21 806 35 l 842 101 b 958 19 857 53 910 19 b 1083 133 1039 19 1083 72 b 956 247 1083 210 1022 247 l 924 247 l 924 285 l 963 285 b 1064 389 1018 285 1064 335 b 960 490 1064 451 1024 490 b 842 411 896 490 856 458 "},"←":{"ha":833,"x_min":0,"x_max":0,"o":"m 107 533 l 806 533 l 806 486 l 107 486 l 363 158 l 300 158 l 28 510 l 300 861 l 363 861 "},"↑":{"ha":833,"x_min":0,"x_max":0,"o":"m 442 821 l 442 121 l 392 121 l 392 821 l 65 568 l 65 626 l 417 899 l 768 626 l 768 568 "},"→":{"ha":833,"x_min":0,"x_max":0,"o":"m 725 486 l 28 486 l 28 533 l 725 533 l 471 861 l 533 861 l 806 510 l 533 158 l 471 158 "},"↓":{"ha":833,"x_min":0,"x_max":0,"o":"m 392 197 l 392 899 l 442 899 l 442 197 l 768 451 l 768 393 l 417 121 l 65 393 l 65 451 "},"↔":{"ha":1250,"x_min":0,"x_max":0,"o":"m 1142 486 l 107 486 l 363 158 l 300 158 l 28 510 l 300 861 l 363 861 l 107 533 l 1142 533 l 888 861 l 950 861 l 1222 510 l 950 158 l 888 158 "},"↕":{"ha":833,"x_min":0,"x_max":0,"o":"m 392 -11 l 392 1029 l 65 776 l 65 835 l 417 1107 l 768 835 l 768 776 l 442 1029 l 442 -11 l 768 243 l 768 185 l 417 -87 l 65 185 l 65 243 "},"↖":{"ha":833,"x_min":0,"x_max":0,"o":"m 210 750 l 708 253 l 674 218 l 179 713 l 128 303 l 86 343 l 142 785 l 583 840 l 624 803 "},"↗":{"ha":833,"x_min":0,"x_max":0,"o":"m 614 713 l 121 218 l 86 253 l 585 750 l 171 803 l 211 840 l 653 785 l 708 343 l 667 303 "},"↘":{"ha":833,"x_min":0,"x_max":0,"o":"m 585 308 l 86 806 l 121 840 l 614 344 l 667 756 l 708 715 l 653 274 l 211 218 l 171 256 "},"↙":{"ha":833,"x_min":0,"x_max":0,"o":"m 179 344 l 674 840 l 708 806 l 210 308 l 624 256 l 583 218 l 142 274 l 86 715 l 128 756 "},"∂":{"ha":744,"x_min":0,"x_max":0,"o":"m 197 1007 b 675 435 390 972 675 843 b 361 -21 675 179 603 -21 b 69 329 178 -21 69 128 b 354 664 69 511 168 664 b 624 465 508 664 596 565 b 185 967 611 826 375 929 m 619 329 b 363 619 619 463 535 619 b 121 325 229 619 121 535 b 361 25 121 156 211 25 b 619 314 519 25 599 121 "},"∆":{"ha":892,"x_min":0,"x_max":0,"o":"m 14 0 l 411 1000 l 482 1000 l 878 0 m 85 44 l 803 44 l 447 953 "},"∏":{"ha":833,"x_min":0,"x_max":0,"o":"m 144 0 l 144 928 l 63 928 l 63 972 l 771 972 l 771 928 l 686 928 l 686 0 l 636 0 l 636 928 l 194 928 l 194 0 "},"∑":{"ha":890,"x_min":0,"x_max":0,"o":"m 458 382 l 104 956 l 104 1000 l 821 1000 l 821 956 l 158 956 l 513 382 l 158 -192 l 821 -192 l 821 -236 l 104 -236 l 104 -192 "},"−":{"ha":833,"x_min":0,"x_max":0,"o":"m 694 424 l 139 424 l 139 471 l 694 471 "},"∕":{"ha":375,"x_min":0,"x_max":0,"o":"m -108 -125 l -156 -125 l 475 1097 l 524 1097 "},"∙":{"ha":375,"x_min":0,"x_max":0,"o":"m 156 401 l 156 490 l 231 490 l 231 401 "},"√":{"ha":828,"x_min":0,"x_max":0,"o":"m 304 0 l 42 639 l 94 639 l 338 44 l 678 1114 l 897 1114 l 897 1069 l 715 1069 l 371 0 "},"∞":{"ha":1000,"x_min":0,"x_max":0,"o":"m 279 726 b 503 568 368 726 457 675 b 725 726 544 678 624 726 b 958 486 883 726 958 604 b 721 246 958 375 883 246 b 497 403 631 246 542 297 b 275 246 456 294 376 246 b 42 486 117 246 42 368 b 279 726 42 597 117 726 m 721 293 b 906 486 849 293 906 385 b 724 679 906 588 842 679 b 519 476 582 679 528 558 b 721 293 524 444 574 293 m 279 679 b 94 486 151 679 94 588 b 276 293 94 385 158 293 b 481 496 418 293 472 414 b 279 679 476 528 426 679 "},"∫":{"ha":833,"x_min":0,"x_max":0,"o":"m 164 -222 b 274 -229 213 -228 239 -229 b 392 -104 332 -229 392 -196 l 392 1117 b 560 1285 392 1222 465 1285 b 669 1276 600 1285 626 1282 l 669 1236 b 560 1243 621 1242 594 1243 b 442 1118 501 1243 442 1210 l 442 -103 b 274 -271 442 -208 368 -271 b 164 -262 233 -271 207 -268 "},"≈":{"ha":833,"x_min":0,"x_max":0,"o":"m 550 581 b 694 649 607 581 647 607 l 694 592 b 549 536 657 563 614 536 b 283 618 435 536 379 618 b 139 550 226 618 186 592 l 139 607 b 285 663 176 636 219 663 b 550 581 399 663 454 581 m 550 297 b 694 365 607 297 647 324 l 694 308 b 549 253 657 279 614 253 b 283 335 435 253 379 335 b 139 267 226 335 186 308 l 139 324 b 285 379 176 353 219 379 b 550 297 399 379 454 297 "},"≠":{"ha":833,"x_min":0,"x_max":0,"o":"m 694 278 l 339 278 l 197 56 l 142 56 l 282 278 l 139 278 l 139 325 l 313 325 l 468 569 l 139 569 l 139 617 l 497 617 l 636 833 l 692 833 l 554 617 l 694 617 l 694 569 l 524 569 l 368 325 l 694 325 "},"≤":{"ha":833,"x_min":0,"x_max":0,"o":"m 197 461 l 694 243 l 694 188 l 139 442 l 139 482 l 694 750 l 694 694 l 197 463 m 694 0 l 139 0 l 139 47 l 694 47 "},"≥":{"ha":833,"x_min":0,"x_max":0,"o":"m 636 463 l 139 694 l 139 750 l 694 482 l 694 442 l 139 188 l 139 243 l 636 461 m 139 47 l 694 47 l 694 0 l 139 0 "},"⋆":{"ha":833,"x_min":0,"x_max":0,"o":"m 418 1036 l 464 599 l 782 904 l 536 539 l 975 569 l 551 447 l 908 188 l 506 367 l 611 -61 l 418 335 l 224 -61 l 331 367 l -72 188 l 283 447 l -140 569 l 300 539 l 54 904 l 371 599 "},"▯":{"ha":760,"x_min":0,"x_max":0,"o":"m 111 1000 l 649 1000 l 649 0 l 111 0 m 601 47 l 601 953 l 158 953 l 158 47 "},"◊":{"ha":833,"x_min":0,"x_max":0,"o":"m 415 932 l 172 486 l 418 38 l 661 486 m 449 0 l 385 0 l 115 486 l 385 972 l 449 972 l 718 486 "},"ﬀ":{"ha":851,"x_min":0,"x_max":0,"o":"m 858 963 b 753 979 825 972 782 979 b 646 854 686 979 646 938 l 646 722 l 814 722 l 814 679 l 646 679 l 646 0 l 596 0 l 596 679 l 199 679 l 199 0 l 149 0 l 149 679 l 42 679 l 42 722 l 149 722 l 149 789 b 383 1013 149 924 199 1013 b 626 963 461 1013 549 992 b 753 1021 653 1000 697 1021 b 858 1004 786 1021 824 1015 m 199 722 l 596 722 l 596 853 b 607 926 596 881 600 906 b 383 971 549 950 460 971 b 199 790 239 971 199 911 "},"ﬁ":{"ha":757,"x_min":0,"x_max":0,"o":"m 596 0 l 596 679 l 199 679 l 199 0 l 149 0 l 149 679 l 42 679 l 42 722 l 149 722 l 149 839 b 357 1021 149 958 222 1021 b 528 994 428 1021 493 1006 l 528 953 b 357 979 494 963 425 979 b 199 840 251 979 199 938 l 199 722 l 646 722 l 646 0 "},"ﬂ":{"ha":757,"x_min":0,"x_max":0,"o":"m 596 0 l 596 947 b 385 979 543 964 449 979 b 199 799 242 979 199 919 l 199 722 l 368 722 l 368 679 l 199 679 l 199 0 l 149 0 l 149 679 l 42 679 l 42 722 l 149 722 l 149 797 b 385 1021 149 932 203 1021 b 597 992 450 1021 542 1007 l 646 1000 l 646 0 "},"ﬃ":{"ha":1203,"x_min":0,"x_max":0,"o":"m 1042 0 l 1042 679 l 644 679 l 644 0 l 594 0 l 594 679 l 199 679 l 199 0 l 149 0 l 149 679 l 42 679 l 42 722 l 149 722 l 149 789 b 383 1013 149 924 199 1013 b 633 960 464 1013 553 990 b 803 1021 668 1000 725 1021 b 974 994 874 1021 939 1006 l 974 953 b 803 979 940 963 871 979 b 644 840 697 979 644 938 l 644 722 l 1092 722 l 1092 0 m 594 839 b 611 924 594 871 600 900 b 383 971 553 949 461 971 b 199 790 239 971 199 911 l 199 722 l 594 722 l 594 839 "},"ﬄ":{"ha":1204,"x_min":0,"x_max":0,"o":"m 1043 0 l 1043 947 b 832 979 990 964 896 979 b 646 799 689 979 646 919 l 646 722 l 814 722 l 814 679 l 646 679 l 646 0 l 596 0 l 596 679 l 199 679 l 199 0 l 149 0 l 149 679 l 42 679 l 42 722 l 149 722 l 149 789 b 383 1013 149 924 199 1013 b 642 956 463 1013 560 990 b 832 1021 678 997 738 1021 b 1044 992 897 1021 989 1007 l 1093 1000 l 1093 0 m 596 797 b 619 921 596 844 603 886 b 383 971 556 950 458 971 b 199 790 239 971 199 911 l 199 722 l 596 722 l 596 797 "}}}
